<mxfile host="app.diagrams.net" modified="2023-06-10T21:15:32.177Z" agent="Mozilla/5.0 (Windows NT 10.0; Win64; x64; rv:109.0) Gecko/20100101 Firefox/114.0" etag="GKqBe4LGSchavszlE3vn" version="21.3.8" type="device" pages="11">
  <diagram name="Logoff Area" id="sy6cFq0AnC4OptEBpVbT">
    <mxGraphModel dx="1036" dy="511" grid="1" gridSize="10" guides="1" tooltips="1" connect="1" arrows="1" fold="1" page="1" pageScale="1" pageWidth="1100" pageHeight="850" background="none" math="0" shadow="0">
      <root>
        <mxCell id="RLLYAHdJKFdGqzuDM6Y1-0" />
        <mxCell id="RLLYAHdJKFdGqzuDM6Y1-1" parent="RLLYAHdJKFdGqzuDM6Y1-0" />
        <mxCell id="RLLYAHdJKFdGqzuDM6Y1-2" value="" style="whiteSpace=wrap;html=1;rounded=0;shadow=0;labelBackgroundColor=none;strokeColor=#000000;strokeWidth=1;fillColor=none;fontFamily=Verdana;fontSize=12;fontColor=#000000;align=center;comic=1;" vertex="1" parent="RLLYAHdJKFdGqzuDM6Y1-1">
          <mxGeometry x="20" y="20" width="1060" height="810" as="geometry" />
        </mxCell>
        <mxCell id="RLLYAHdJKFdGqzuDM6Y1-3" value="" style="verticalLabelPosition=bottom;shadow=0;dashed=0;align=center;html=1;verticalAlign=top;strokeWidth=1;shape=mxgraph.mockup.graphics.simpleIcon;strokeColor=#999999;rounded=0;labelBackgroundColor=none;fontFamily=Verdana;fontSize=14;fontColor=#000000;comic=1;" vertex="1" parent="RLLYAHdJKFdGqzuDM6Y1-1">
          <mxGeometry x="250" y="150" width="550" height="660" as="geometry" />
        </mxCell>
        <mxCell id="RLLYAHdJKFdGqzuDM6Y1-5" value="IAT" style="whiteSpace=wrap;html=1;rounded=0;shadow=0;labelBackgroundColor=none;strokeWidth=1;fontFamily=Verdana;fontSize=28;align=center;comic=1;" vertex="1" parent="RLLYAHdJKFdGqzuDM6Y1-1">
          <mxGeometry x="30" y="80" width="200" height="50" as="geometry" />
        </mxCell>
        <mxCell id="RLLYAHdJKFdGqzuDM6Y1-7" value="" style="whiteSpace=wrap;html=1;rounded=0;shadow=0;labelBackgroundColor=none;strokeWidth=1;fillColor=none;fontFamily=Verdana;fontSize=12;align=center;comic=1;" vertex="1" parent="RLLYAHdJKFdGqzuDM6Y1-1">
          <mxGeometry x="230" y="80" width="840" height="50" as="geometry" />
        </mxCell>
        <mxCell id="RLLYAHdJKFdGqzuDM6Y1-8" value="About" style="text;html=1;points=[];align=left;verticalAlign=top;spacingTop=-4;fontSize=14;fontFamily=Verdana" vertex="1" parent="RLLYAHdJKFdGqzuDM6Y1-1">
          <mxGeometry x="970" y="95" width="60" height="20" as="geometry" />
        </mxCell>
        <mxCell id="RLLYAHdJKFdGqzuDM6Y1-9" value="Administrative Module" style="text;html=1;points=[];align=left;verticalAlign=top;spacingTop=-4;fontSize=14;fontFamily=Verdana" vertex="1" parent="RLLYAHdJKFdGqzuDM6Y1-1">
          <mxGeometry x="490" width="170" height="20" as="geometry" />
        </mxCell>
        <mxCell id="RLLYAHdJKFdGqzuDM6Y1-13" value="" style="whiteSpace=wrap;html=1;rounded=0;shadow=0;labelBackgroundColor=none;strokeWidth=1;fillColor=none;fontFamily=Verdana;fontSize=12;align=center;comic=1;" vertex="1" parent="RLLYAHdJKFdGqzuDM6Y1-1">
          <mxGeometry x="30" y="40" width="1040" height="30" as="geometry" />
        </mxCell>
        <mxCell id="RLLYAHdJKFdGqzuDM6Y1-14" value="HTTPS://localhost" style="text;html=1;points=[];align=left;verticalAlign=top;spacingTop=-4;fontSize=14;fontFamily=Verdana" vertex="1" parent="RLLYAHdJKFdGqzuDM6Y1-1">
          <mxGeometry x="40" y="45" width="170" height="20" as="geometry" />
        </mxCell>
        <mxCell id="RLLYAHdJKFdGqzuDM6Y1-15" value="&lt;span&gt;Sign Up&lt;br&gt;&lt;/span&gt;" style="text;html=1;points=[];align=left;verticalAlign=top;spacingTop=-4;fontSize=14;fontFamily=Verdana;fontStyle=1" vertex="1" parent="RLLYAHdJKFdGqzuDM6Y1-1">
          <mxGeometry x="300" y="415" width="170" height="20" as="geometry" />
        </mxCell>
        <mxCell id="RLLYAHdJKFdGqzuDM6Y1-17" value="E-mail" style="text;html=1;points=[];align=right;verticalAlign=top;spacingTop=-4;fontSize=14;fontFamily=Verdana" vertex="1" parent="RLLYAHdJKFdGqzuDM6Y1-1">
          <mxGeometry x="270" y="215" width="110" height="20" as="geometry" />
        </mxCell>
        <mxCell id="RLLYAHdJKFdGqzuDM6Y1-18" value="" style="strokeWidth=1;shadow=0;dashed=0;align=center;html=1;shape=mxgraph.mockup.text.textBox;fontColor=#666666;align=left;fontSize=17;spacingLeft=4;spacingTop=-3;whiteSpace=wrap;strokeColor=#666666;mainText=" vertex="1" parent="RLLYAHdJKFdGqzuDM6Y1-1">
          <mxGeometry x="390" y="260" width="370" height="30" as="geometry" />
        </mxCell>
        <mxCell id="RLLYAHdJKFdGqzuDM6Y1-19" value="Password" style="text;html=1;points=[];align=right;verticalAlign=top;spacingTop=-4;fontSize=14;fontFamily=Verdana" vertex="1" parent="RLLYAHdJKFdGqzuDM6Y1-1">
          <mxGeometry x="270" y="265" width="110" height="20" as="geometry" />
        </mxCell>
        <mxCell id="RLLYAHdJKFdGqzuDM6Y1-20" value="" style="strokeWidth=1;shadow=0;dashed=0;align=center;html=1;shape=mxgraph.mockup.text.textBox;fontColor=#666666;align=left;fontSize=17;spacingLeft=4;spacingTop=-3;whiteSpace=wrap;strokeColor=#666666;mainText=" vertex="1" parent="RLLYAHdJKFdGqzuDM6Y1-1">
          <mxGeometry x="390" y="561" width="370" height="30" as="geometry" />
        </mxCell>
        <mxCell id="RLLYAHdJKFdGqzuDM6Y1-21" value="Social Name" style="text;html=1;points=[];align=right;verticalAlign=top;spacingTop=-4;fontSize=14;fontFamily=Verdana" vertex="1" parent="RLLYAHdJKFdGqzuDM6Y1-1">
          <mxGeometry x="270" y="571" width="110" height="20" as="geometry" />
        </mxCell>
        <mxCell id="RLLYAHdJKFdGqzuDM6Y1-22" value="" style="strokeWidth=1;shadow=0;dashed=0;align=center;html=1;shape=mxgraph.mockup.text.textBox;fontColor=#666666;align=left;fontSize=17;spacingLeft=4;spacingTop=-3;whiteSpace=wrap;strokeColor=#666666;mainText=" vertex="1" parent="RLLYAHdJKFdGqzuDM6Y1-1">
          <mxGeometry x="390" y="615" width="370" height="30" as="geometry" />
        </mxCell>
        <mxCell id="RLLYAHdJKFdGqzuDM6Y1-23" value="E-mail" style="text;html=1;points=[];align=right;verticalAlign=top;spacingTop=-4;fontSize=14;fontFamily=Verdana" vertex="1" parent="RLLYAHdJKFdGqzuDM6Y1-1">
          <mxGeometry x="270" y="625" width="110" height="20" as="geometry" />
        </mxCell>
        <mxCell id="RLLYAHdJKFdGqzuDM6Y1-24" value="" style="strokeWidth=1;shadow=0;dashed=0;align=center;html=1;shape=mxgraph.mockup.text.textBox;fontColor=#666666;align=left;fontSize=17;spacingLeft=4;spacingTop=-3;whiteSpace=wrap;strokeColor=#666666;mainText=" vertex="1" parent="RLLYAHdJKFdGqzuDM6Y1-1">
          <mxGeometry x="390" y="660" width="370" height="30" as="geometry" />
        </mxCell>
        <mxCell id="RLLYAHdJKFdGqzuDM6Y1-25" value="Mobile Number" style="text;html=1;points=[];align=right;verticalAlign=top;spacingTop=-4;fontSize=14;fontFamily=Verdana" vertex="1" parent="RLLYAHdJKFdGqzuDM6Y1-1">
          <mxGeometry x="270" y="670" width="110" height="20" as="geometry" />
        </mxCell>
        <mxCell id="RLLYAHdJKFdGqzuDM6Y1-26" value="Type of User" style="text;html=1;points=[];align=right;verticalAlign=top;spacingTop=-4;fontSize=14;fontFamily=Verdana" vertex="1" parent="RLLYAHdJKFdGqzuDM6Y1-1">
          <mxGeometry x="270" y="715" width="110" height="20" as="geometry" />
        </mxCell>
        <mxCell id="RLLYAHdJKFdGqzuDM6Y1-27" value="Interviewer" style="strokeWidth=1;shadow=0;dashed=0;align=center;html=1;shape=mxgraph.mockup.forms.comboBox;strokeColor=#999999;fillColor=#ddeeff;align=left;fillColor2=#aaddff;mainText=;fontColor=#666666;fontSize=17;spacingLeft=3;" vertex="1" parent="RLLYAHdJKFdGqzuDM6Y1-1">
          <mxGeometry x="390" y="710" width="370" height="30" as="geometry" />
        </mxCell>
        <mxCell id="RLLYAHdJKFdGqzuDM6Y1-28" value="Save" style="strokeWidth=1;shadow=0;dashed=0;align=center;html=1;shape=mxgraph.mockup.buttons.button;strokeColor=#666666;fontColor=#ffffff;mainText=;buttonStyle=round;fontSize=17;fontStyle=1;fillColor=#008cff;whiteSpace=wrap;" vertex="1" parent="RLLYAHdJKFdGqzuDM6Y1-1">
          <mxGeometry x="390" y="760" width="150" height="30" as="geometry" />
        </mxCell>
        <mxCell id="RLLYAHdJKFdGqzuDM6Y1-39" value="Cancel" style="strokeWidth=1;shadow=0;dashed=0;align=center;html=1;shape=mxgraph.mockup.buttons.button;strokeColor=#666666;fontColor=#ffffff;mainText=;buttonStyle=round;fontSize=17;fontStyle=1;fillColor=#008cff;whiteSpace=wrap;" vertex="1" parent="RLLYAHdJKFdGqzuDM6Y1-1">
          <mxGeometry x="560" y="760" width="150" height="30" as="geometry" />
        </mxCell>
        <mxCell id="RLLYAHdJKFdGqzuDM6Y1-42" value="" style="strokeWidth=1;shadow=0;dashed=0;align=center;html=1;shape=mxgraph.mockup.text.textBox;fontColor=#666666;align=left;fontSize=17;spacingLeft=4;spacingTop=-3;whiteSpace=wrap;strokeColor=#666666;mainText=" vertex="1" parent="RLLYAHdJKFdGqzuDM6Y1-1">
          <mxGeometry x="390" y="210" width="370" height="30" as="geometry" />
        </mxCell>
        <mxCell id="aTVbiTPCzEX1jlQtt6EG-0" value="First Name" style="text;html=1;points=[];align=right;verticalAlign=top;spacingTop=-4;fontSize=14;fontFamily=Verdana" vertex="1" parent="RLLYAHdJKFdGqzuDM6Y1-1">
          <mxGeometry x="270" y="475" width="110" height="20" as="geometry" />
        </mxCell>
        <mxCell id="aTVbiTPCzEX1jlQtt6EG-1" value="" style="strokeWidth=1;shadow=0;dashed=0;align=center;html=1;shape=mxgraph.mockup.text.textBox;fontColor=#666666;align=left;fontSize=17;spacingLeft=4;spacingTop=-3;whiteSpace=wrap;strokeColor=#666666;mainText=" vertex="1" parent="RLLYAHdJKFdGqzuDM6Y1-1">
          <mxGeometry x="390" y="510" width="370" height="30" as="geometry" />
        </mxCell>
        <mxCell id="aTVbiTPCzEX1jlQtt6EG-2" value="Last Name" style="text;html=1;points=[];align=right;verticalAlign=top;spacingTop=-4;fontSize=14;fontFamily=Verdana" vertex="1" parent="RLLYAHdJKFdGqzuDM6Y1-1">
          <mxGeometry x="270" y="520" width="110" height="20" as="geometry" />
        </mxCell>
        <mxCell id="aTVbiTPCzEX1jlQtt6EG-3" value="" style="strokeWidth=1;shadow=0;dashed=0;align=center;html=1;shape=mxgraph.mockup.text.textBox;fontColor=#666666;align=left;fontSize=17;spacingLeft=4;spacingTop=-3;whiteSpace=wrap;strokeColor=#666666;mainText=" vertex="1" parent="RLLYAHdJKFdGqzuDM6Y1-1">
          <mxGeometry x="390" y="465" width="370" height="30" as="geometry" />
        </mxCell>
        <mxCell id="aTVbiTPCzEX1jlQtt6EG-4" value="&lt;span&gt;Sign In&lt;br&gt;&lt;/span&gt;" style="text;html=1;points=[];align=left;verticalAlign=top;spacingTop=-4;fontSize=14;fontFamily=Verdana;fontStyle=1" vertex="1" parent="RLLYAHdJKFdGqzuDM6Y1-1">
          <mxGeometry x="300" y="170" width="170" height="20" as="geometry" />
        </mxCell>
        <mxCell id="aTVbiTPCzEX1jlQtt6EG-5" value="Sign In" style="strokeWidth=1;shadow=0;dashed=0;align=center;html=1;shape=mxgraph.mockup.buttons.button;strokeColor=#666666;fontColor=#ffffff;mainText=;buttonStyle=round;fontSize=17;fontStyle=1;fillColor=#008cff;whiteSpace=wrap;" vertex="1" parent="RLLYAHdJKFdGqzuDM6Y1-1">
          <mxGeometry x="460" y="340" width="150" height="30" as="geometry" />
        </mxCell>
        <mxCell id="aTVbiTPCzEX1jlQtt6EG-6" value="" style="verticalLabelPosition=bottom;shadow=0;dashed=0;align=center;html=1;verticalAlign=top;strokeWidth=1;shape=mxgraph.mockup.markup.line;strokeColor=#999999;" vertex="1" parent="RLLYAHdJKFdGqzuDM6Y1-1">
          <mxGeometry x="277.5" y="390" width="515" height="20" as="geometry" />
        </mxCell>
      </root>
    </mxGraphModel>
  </diagram>
  <diagram name="Admin - Home" id="03018318-947c-dd8e-b7a3-06fadd420f32">
    <mxGraphModel dx="1762" dy="868" grid="1" gridSize="10" guides="1" tooltips="1" connect="1" arrows="1" fold="1" page="1" pageScale="1" pageWidth="1100" pageHeight="850" background="none" math="0" shadow="0">
      <root>
        <mxCell id="0" />
        <mxCell id="1" parent="0" />
        <mxCell id="677b7b8949515195-1" value="" style="whiteSpace=wrap;html=1;rounded=0;shadow=0;labelBackgroundColor=none;strokeColor=#000000;strokeWidth=1;fillColor=none;fontFamily=Verdana;fontSize=12;fontColor=#000000;align=center;comic=1;" parent="1" vertex="1">
          <mxGeometry x="20" y="20" width="1060" height="810" as="geometry" />
        </mxCell>
        <mxCell id="677b7b8949515195-2" value="IAT" style="whiteSpace=wrap;html=1;rounded=0;shadow=0;labelBackgroundColor=none;strokeWidth=1;fontFamily=Verdana;fontSize=28;align=center;comic=1;" parent="1" vertex="1">
          <mxGeometry x="30" y="80" width="200" height="50" as="geometry" />
        </mxCell>
        <mxCell id="677b7b8949515195-8" value="" style="whiteSpace=wrap;html=1;rounded=0;shadow=0;labelBackgroundColor=none;strokeWidth=1;fillColor=none;fontFamily=Verdana;fontSize=12;align=center;comic=1;" parent="1" vertex="1">
          <mxGeometry x="30" y="130" width="200" height="680" as="geometry" />
        </mxCell>
        <mxCell id="677b7b8949515195-10" value="" style="whiteSpace=wrap;html=1;rounded=0;shadow=0;labelBackgroundColor=none;strokeWidth=1;fillColor=none;fontFamily=Verdana;fontSize=12;align=center;comic=1;" parent="1" vertex="1">
          <mxGeometry x="230" y="80" width="840" height="50" as="geometry" />
        </mxCell>
        <mxCell id="677b7b8949515195-14" value="About" style="text;html=1;points=[];align=left;verticalAlign=top;spacingTop=-4;fontSize=14;fontFamily=Verdana" parent="1" vertex="1">
          <mxGeometry x="970" y="95" width="60" height="20" as="geometry" />
        </mxCell>
        <mxCell id="677b7b8949515195-16" value="" style="verticalLabelPosition=bottom;shadow=0;dashed=0;align=center;html=1;verticalAlign=top;strokeWidth=1;shape=mxgraph.mockup.graphics.simpleIcon;strokeColor=#999999;rounded=0;labelBackgroundColor=none;fontFamily=Verdana;fontSize=14;fontColor=#000000;comic=1;" parent="1" vertex="1">
          <mxGeometry x="250" y="150" width="790" height="660" as="geometry" />
        </mxCell>
        <mxCell id="677b7b8949515195-27" value="Administrative Module" style="text;html=1;points=[];align=left;verticalAlign=top;spacingTop=-4;fontSize=14;fontFamily=Verdana" parent="1" vertex="1">
          <mxGeometry x="490" width="170" height="20" as="geometry" />
        </mxCell>
        <mxCell id="677b7b8949515195-28" value="Users Type" style="text;html=1;points=[];align=left;verticalAlign=top;spacingTop=-4;fontSize=14;fontFamily=Verdana" parent="1" vertex="1">
          <mxGeometry x="50" y="205" width="170" height="20" as="geometry" />
        </mxCell>
        <mxCell id="677b7b8949515195-29" value="Users Managment" style="text;html=1;points=[];align=left;verticalAlign=top;spacingTop=-4;fontSize=14;fontFamily=Verdana" parent="1" vertex="1">
          <mxGeometry x="50" y="240" width="170" height="20" as="geometry" />
        </mxCell>
        <mxCell id="677b7b8949515195-30" value="Report of Users" style="text;html=1;points=[];align=left;verticalAlign=top;spacingTop=-4;fontSize=14;fontFamily=Verdana" parent="1" vertex="1">
          <mxGeometry x="50" y="276" width="170" height="20" as="geometry" />
        </mxCell>
        <mxCell id="DhHvLzg6ioDdfDAAFR8x-2" value="" style="whiteSpace=wrap;html=1;rounded=0;shadow=0;labelBackgroundColor=none;strokeWidth=1;fillColor=none;fontFamily=Verdana;fontSize=12;align=center;comic=1;" vertex="1" parent="1">
          <mxGeometry x="30" y="40" width="1040" height="30" as="geometry" />
        </mxCell>
        <mxCell id="DhHvLzg6ioDdfDAAFR8x-3" value="HTTPS://localhost" style="text;html=1;points=[];align=left;verticalAlign=top;spacingTop=-4;fontSize=14;fontFamily=Verdana" vertex="1" parent="1">
          <mxGeometry x="40" y="45" width="170" height="20" as="geometry" />
        </mxCell>
        <mxCell id="DhHvLzg6ioDdfDAAFR8x-4" value="&lt;b&gt;Home&lt;/b&gt;" style="text;html=1;points=[];align=left;verticalAlign=top;spacingTop=-4;fontSize=14;fontFamily=Verdana" vertex="1" parent="1">
          <mxGeometry x="290" y="160" width="170" height="20" as="geometry" />
        </mxCell>
        <mxCell id="DZDsvi1AYfKIpylWdPPn-1" value="Home" style="text;html=1;points=[];align=left;verticalAlign=top;spacingTop=-4;fontSize=14;fontFamily=Verdana;fontStyle=1" vertex="1" parent="1">
          <mxGeometry x="50" y="170" width="170" height="20" as="geometry" />
        </mxCell>
      </root>
    </mxGraphModel>
  </diagram>
  <diagram name="Admin - Users Type" id="zxE2MJkUYM-8MJj3zDDk">
    <mxGraphModel dx="1468" dy="723" grid="1" gridSize="10" guides="1" tooltips="1" connect="1" arrows="1" fold="1" page="1" pageScale="1" pageWidth="1100" pageHeight="850" background="none" math="0" shadow="0">
      <root>
        <mxCell id="o5ja1BoNVp0h4WqLbqSB-0" />
        <mxCell id="o5ja1BoNVp0h4WqLbqSB-1" parent="o5ja1BoNVp0h4WqLbqSB-0" />
        <mxCell id="o5ja1BoNVp0h4WqLbqSB-2" value="" style="whiteSpace=wrap;html=1;rounded=0;shadow=0;labelBackgroundColor=none;strokeColor=#000000;strokeWidth=1;fillColor=none;fontFamily=Verdana;fontSize=12;fontColor=#000000;align=center;comic=1;" vertex="1" parent="o5ja1BoNVp0h4WqLbqSB-1">
          <mxGeometry x="20" y="20" width="1060" height="810" as="geometry" />
        </mxCell>
        <mxCell id="o5ja1BoNVp0h4WqLbqSB-3" value="IAT" style="whiteSpace=wrap;html=1;rounded=0;shadow=0;labelBackgroundColor=none;strokeWidth=1;fontFamily=Verdana;fontSize=28;align=center;comic=1;" vertex="1" parent="o5ja1BoNVp0h4WqLbqSB-1">
          <mxGeometry x="30" y="80" width="200" height="50" as="geometry" />
        </mxCell>
        <mxCell id="o5ja1BoNVp0h4WqLbqSB-4" value="" style="whiteSpace=wrap;html=1;rounded=0;shadow=0;labelBackgroundColor=none;strokeWidth=1;fillColor=none;fontFamily=Verdana;fontSize=12;align=center;comic=1;" vertex="1" parent="o5ja1BoNVp0h4WqLbqSB-1">
          <mxGeometry x="30" y="130" width="200" height="680" as="geometry" />
        </mxCell>
        <mxCell id="o5ja1BoNVp0h4WqLbqSB-5" value="" style="whiteSpace=wrap;html=1;rounded=0;shadow=0;labelBackgroundColor=none;strokeWidth=1;fillColor=none;fontFamily=Verdana;fontSize=12;align=center;comic=1;" vertex="1" parent="o5ja1BoNVp0h4WqLbqSB-1">
          <mxGeometry x="230" y="80" width="840" height="50" as="geometry" />
        </mxCell>
        <mxCell id="o5ja1BoNVp0h4WqLbqSB-6" value="About" style="text;html=1;points=[];align=left;verticalAlign=top;spacingTop=-4;fontSize=14;fontFamily=Verdana" vertex="1" parent="o5ja1BoNVp0h4WqLbqSB-1">
          <mxGeometry x="970" y="95" width="60" height="20" as="geometry" />
        </mxCell>
        <mxCell id="o5ja1BoNVp0h4WqLbqSB-7" value="" style="verticalLabelPosition=bottom;shadow=0;dashed=0;align=center;html=1;verticalAlign=top;strokeWidth=1;shape=mxgraph.mockup.graphics.simpleIcon;strokeColor=#999999;rounded=0;labelBackgroundColor=none;fontFamily=Verdana;fontSize=14;fontColor=#000000;comic=1;" vertex="1" parent="o5ja1BoNVp0h4WqLbqSB-1">
          <mxGeometry x="250" y="150" width="790" height="660" as="geometry" />
        </mxCell>
        <mxCell id="o5ja1BoNVp0h4WqLbqSB-8" value="Administrative Module" style="text;html=1;points=[];align=left;verticalAlign=top;spacingTop=-4;fontSize=14;fontFamily=Verdana" vertex="1" parent="o5ja1BoNVp0h4WqLbqSB-1">
          <mxGeometry x="490" width="170" height="20" as="geometry" />
        </mxCell>
        <mxCell id="o5ja1BoNVp0h4WqLbqSB-9" value="Users Type" style="text;html=1;points=[];align=left;verticalAlign=top;spacingTop=-4;fontSize=14;fontFamily=Verdana;fontStyle=1" vertex="1" parent="o5ja1BoNVp0h4WqLbqSB-1">
          <mxGeometry x="50" y="205" width="170" height="20" as="geometry" />
        </mxCell>
        <mxCell id="o5ja1BoNVp0h4WqLbqSB-10" value="Users Managment" style="text;html=1;points=[];align=left;verticalAlign=top;spacingTop=-4;fontSize=14;fontFamily=Verdana" vertex="1" parent="o5ja1BoNVp0h4WqLbqSB-1">
          <mxGeometry x="50" y="240" width="170" height="20" as="geometry" />
        </mxCell>
        <mxCell id="o5ja1BoNVp0h4WqLbqSB-12" value="" style="whiteSpace=wrap;html=1;rounded=0;shadow=0;labelBackgroundColor=none;strokeWidth=1;fillColor=none;fontFamily=Verdana;fontSize=12;align=center;comic=1;" vertex="1" parent="o5ja1BoNVp0h4WqLbqSB-1">
          <mxGeometry x="30" y="40" width="1040" height="30" as="geometry" />
        </mxCell>
        <mxCell id="o5ja1BoNVp0h4WqLbqSB-13" value="HTTPS://localhost" style="text;html=1;points=[];align=left;verticalAlign=top;spacingTop=-4;fontSize=14;fontFamily=Verdana" vertex="1" parent="o5ja1BoNVp0h4WqLbqSB-1">
          <mxGeometry x="40" y="45" width="170" height="20" as="geometry" />
        </mxCell>
        <mxCell id="o5ja1BoNVp0h4WqLbqSB-14" value="&lt;b&gt;Users Type&lt;/b&gt;" style="text;html=1;points=[];align=left;verticalAlign=top;spacingTop=-4;fontSize=14;fontFamily=Verdana" vertex="1" parent="o5ja1BoNVp0h4WqLbqSB-1">
          <mxGeometry x="280" y="160" width="170" height="20" as="geometry" />
        </mxCell>
        <mxCell id="NjfFvkyEXaKaUACILdZ--0" value="Interviewer" style="strokeWidth=1;shadow=0;dashed=0;align=center;html=1;shape=mxgraph.mockup.text.textBox;fontColor=#666666;align=left;fontSize=17;spacingLeft=4;spacingTop=-3;whiteSpace=wrap;strokeColor=#666666;mainText=" vertex="1" parent="o5ja1BoNVp0h4WqLbqSB-1">
          <mxGeometry x="570" y="210" width="150" height="30" as="geometry" />
        </mxCell>
        <mxCell id="NjfFvkyEXaKaUACILdZ--1" value="Type of User(*)" style="text;html=1;points=[];align=left;verticalAlign=top;spacingTop=-4;fontSize=14;fontFamily=Verdana" vertex="1" parent="o5ja1BoNVp0h4WqLbqSB-1">
          <mxGeometry x="450" y="220" width="110" height="20" as="geometry" />
        </mxCell>
        <mxCell id="NjfFvkyEXaKaUACILdZ--42" value="Administrative" style="strokeWidth=1;shadow=0;dashed=0;align=center;html=1;shape=mxgraph.mockup.text.textBox;fontColor=#666666;align=left;fontSize=17;spacingLeft=4;spacingTop=-3;whiteSpace=wrap;strokeColor=#666666;mainText=" vertex="1" parent="o5ja1BoNVp0h4WqLbqSB-1">
          <mxGeometry x="480" y="395" width="150" height="30" as="geometry" />
        </mxCell>
        <mxCell id="NjfFvkyEXaKaUACILdZ--43" value="Researcher" style="strokeWidth=1;shadow=0;dashed=0;align=center;html=1;shape=mxgraph.mockup.text.textBox;fontColor=#666666;align=left;fontSize=17;spacingLeft=4;spacingTop=-3;whiteSpace=wrap;strokeColor=#666666;mainText=" vertex="1" parent="o5ja1BoNVp0h4WqLbqSB-1">
          <mxGeometry x="480" y="425" width="150" height="30" as="geometry" />
        </mxCell>
        <mxCell id="NjfFvkyEXaKaUACILdZ--44" value="" style="strokeWidth=1;shadow=0;dashed=0;align=center;html=1;shape=mxgraph.mockup.text.textBox;fontColor=#666666;align=left;fontSize=17;spacingLeft=4;spacingTop=-3;whiteSpace=wrap;strokeColor=#666666;mainText=" vertex="1" parent="o5ja1BoNVp0h4WqLbqSB-1">
          <mxGeometry x="480" y="455" width="150" height="30" as="geometry" />
        </mxCell>
        <mxCell id="NjfFvkyEXaKaUACILdZ--45" value="&lt;b&gt;Type of users&lt;/b&gt;" style="strokeWidth=1;shadow=0;dashed=0;align=center;html=1;shape=mxgraph.mockup.text.textBox;fontColor=#666666;align=left;fontSize=17;spacingLeft=4;spacingTop=-3;whiteSpace=wrap;strokeColor=#666666;mainText=" vertex="1" parent="o5ja1BoNVp0h4WqLbqSB-1">
          <mxGeometry x="480" y="365" width="150" height="30" as="geometry" />
        </mxCell>
        <mxCell id="jSSlekYDw5d-cv3N8Kyl-0" value="Home" style="text;html=1;points=[];align=left;verticalAlign=top;spacingTop=-4;fontSize=14;fontFamily=Verdana;fontStyle=0" vertex="1" parent="o5ja1BoNVp0h4WqLbqSB-1">
          <mxGeometry x="50" y="170" width="170" height="20" as="geometry" />
        </mxCell>
        <mxCell id="1IA792UhqPmyU6hzxMft-0" value="Save" style="strokeWidth=1;shadow=0;dashed=0;align=center;html=1;shape=mxgraph.mockup.buttons.button;strokeColor=#666666;fontColor=#ffffff;mainText=;buttonStyle=round;fontSize=17;fontStyle=1;fillColor=#008cff;whiteSpace=wrap;" vertex="1" parent="o5ja1BoNVp0h4WqLbqSB-1">
          <mxGeometry x="410" y="270" width="150" height="30" as="geometry" />
        </mxCell>
        <mxCell id="1IA792UhqPmyU6hzxMft-1" value="Cancel" style="strokeWidth=1;shadow=0;dashed=0;align=center;html=1;shape=mxgraph.mockup.buttons.button;strokeColor=#666666;fontColor=#ffffff;mainText=;buttonStyle=round;fontSize=17;fontStyle=1;fillColor=#008cff;whiteSpace=wrap;" vertex="1" parent="o5ja1BoNVp0h4WqLbqSB-1">
          <mxGeometry x="580" y="270" width="150" height="30" as="geometry" />
        </mxCell>
        <mxCell id="6s36amRxian8yJi3XT7s-0" value="Report of Users" style="text;html=1;points=[];align=left;verticalAlign=top;spacingTop=-4;fontSize=14;fontFamily=Verdana" vertex="1" parent="o5ja1BoNVp0h4WqLbqSB-1">
          <mxGeometry x="50" y="276" width="170" height="20" as="geometry" />
        </mxCell>
      </root>
    </mxGraphModel>
  </diagram>
  <diagram name="Admin - Users Managment" id="GGAYn9xwpP0Su5vLr4br">
    <mxGraphModel dx="1602" dy="789" grid="1" gridSize="10" guides="1" tooltips="1" connect="1" arrows="1" fold="1" page="1" pageScale="1" pageWidth="1100" pageHeight="850" background="none" math="0" shadow="0">
      <root>
        <mxCell id="0-gXcxRjBIyQzrn8WR7A-0" />
        <mxCell id="0-gXcxRjBIyQzrn8WR7A-1" parent="0-gXcxRjBIyQzrn8WR7A-0" />
        <mxCell id="0-gXcxRjBIyQzrn8WR7A-2" value="" style="whiteSpace=wrap;html=1;rounded=0;shadow=0;labelBackgroundColor=none;strokeColor=#000000;strokeWidth=1;fillColor=none;fontFamily=Verdana;fontSize=12;fontColor=#000000;align=center;comic=1;" vertex="1" parent="0-gXcxRjBIyQzrn8WR7A-1">
          <mxGeometry x="20" y="20" width="1060" height="810" as="geometry" />
        </mxCell>
        <mxCell id="0-gXcxRjBIyQzrn8WR7A-7" value="" style="verticalLabelPosition=bottom;shadow=0;dashed=0;align=center;html=1;verticalAlign=top;strokeWidth=1;shape=mxgraph.mockup.graphics.simpleIcon;strokeColor=#999999;rounded=0;labelBackgroundColor=none;fontFamily=Verdana;fontSize=14;fontColor=#000000;comic=1;" vertex="1" parent="0-gXcxRjBIyQzrn8WR7A-1">
          <mxGeometry x="250" y="150" width="790" height="660" as="geometry" />
        </mxCell>
        <mxCell id="g06kdSWjcPRJpSiqd1Oi-37" value="" style="whiteSpace=wrap;html=1;rounded=0;shadow=0;labelBackgroundColor=none;strokeWidth=1;fillColor=none;fontFamily=Verdana;fontSize=12;align=center;comic=1;" vertex="1" parent="0-gXcxRjBIyQzrn8WR7A-1">
          <mxGeometry x="270" y="610" width="583" height="180" as="geometry" />
        </mxCell>
        <mxCell id="0-gXcxRjBIyQzrn8WR7A-3" value="IAT" style="whiteSpace=wrap;html=1;rounded=0;shadow=0;labelBackgroundColor=none;strokeWidth=1;fontFamily=Verdana;fontSize=28;align=center;comic=1;" vertex="1" parent="0-gXcxRjBIyQzrn8WR7A-1">
          <mxGeometry x="30" y="80" width="200" height="50" as="geometry" />
        </mxCell>
        <mxCell id="0-gXcxRjBIyQzrn8WR7A-4" value="" style="whiteSpace=wrap;html=1;rounded=0;shadow=0;labelBackgroundColor=none;strokeWidth=1;fillColor=none;fontFamily=Verdana;fontSize=12;align=center;comic=1;" vertex="1" parent="0-gXcxRjBIyQzrn8WR7A-1">
          <mxGeometry x="30" y="130" width="200" height="680" as="geometry" />
        </mxCell>
        <mxCell id="0-gXcxRjBIyQzrn8WR7A-5" value="" style="whiteSpace=wrap;html=1;rounded=0;shadow=0;labelBackgroundColor=none;strokeWidth=1;fillColor=none;fontFamily=Verdana;fontSize=12;align=center;comic=1;" vertex="1" parent="0-gXcxRjBIyQzrn8WR7A-1">
          <mxGeometry x="230" y="80" width="840" height="50" as="geometry" />
        </mxCell>
        <mxCell id="0-gXcxRjBIyQzrn8WR7A-6" value="About" style="text;html=1;points=[];align=left;verticalAlign=top;spacingTop=-4;fontSize=14;fontFamily=Verdana" vertex="1" parent="0-gXcxRjBIyQzrn8WR7A-1">
          <mxGeometry x="970" y="95" width="60" height="20" as="geometry" />
        </mxCell>
        <mxCell id="0-gXcxRjBIyQzrn8WR7A-8" value="Administrative Module" style="text;html=1;points=[];align=left;verticalAlign=top;spacingTop=-4;fontSize=14;fontFamily=Verdana" vertex="1" parent="0-gXcxRjBIyQzrn8WR7A-1">
          <mxGeometry x="490" width="170" height="20" as="geometry" />
        </mxCell>
        <mxCell id="0-gXcxRjBIyQzrn8WR7A-9" value="Users Type" style="text;html=1;points=[];align=left;verticalAlign=top;spacingTop=-4;fontSize=14;fontFamily=Verdana" vertex="1" parent="0-gXcxRjBIyQzrn8WR7A-1">
          <mxGeometry x="50" y="205" width="170" height="20" as="geometry" />
        </mxCell>
        <mxCell id="0-gXcxRjBIyQzrn8WR7A-10" value="Users Managment" style="text;html=1;points=[];align=left;verticalAlign=top;spacingTop=-4;fontSize=14;fontFamily=Verdana;fontStyle=1" vertex="1" parent="0-gXcxRjBIyQzrn8WR7A-1">
          <mxGeometry x="50" y="240" width="170" height="20" as="geometry" />
        </mxCell>
        <mxCell id="0-gXcxRjBIyQzrn8WR7A-11" value="Report of Users" style="text;html=1;points=[];align=left;verticalAlign=top;spacingTop=-4;fontSize=14;fontFamily=Verdana" vertex="1" parent="0-gXcxRjBIyQzrn8WR7A-1">
          <mxGeometry x="50" y="276" width="170" height="20" as="geometry" />
        </mxCell>
        <mxCell id="0-gXcxRjBIyQzrn8WR7A-12" value="" style="whiteSpace=wrap;html=1;rounded=0;shadow=0;labelBackgroundColor=none;strokeWidth=1;fillColor=none;fontFamily=Verdana;fontSize=12;align=center;comic=1;" vertex="1" parent="0-gXcxRjBIyQzrn8WR7A-1">
          <mxGeometry x="30" y="40" width="1040" height="30" as="geometry" />
        </mxCell>
        <mxCell id="0-gXcxRjBIyQzrn8WR7A-13" value="HTTPS://localhost" style="text;html=1;points=[];align=left;verticalAlign=top;spacingTop=-4;fontSize=14;fontFamily=Verdana" vertex="1" parent="0-gXcxRjBIyQzrn8WR7A-1">
          <mxGeometry x="40" y="45" width="170" height="20" as="geometry" />
        </mxCell>
        <mxCell id="0-gXcxRjBIyQzrn8WR7A-14" value="&lt;b&gt;Users Managment&lt;br&gt;&lt;/b&gt;" style="text;html=1;points=[];align=left;verticalAlign=top;spacingTop=-4;fontSize=14;fontFamily=Verdana" vertex="1" parent="0-gXcxRjBIyQzrn8WR7A-1">
          <mxGeometry x="300" y="170" width="170" height="20" as="geometry" />
        </mxCell>
        <mxCell id="bUUL3skueEAqUQBAPJLO-0" value="" style="strokeWidth=1;shadow=0;dashed=0;align=center;html=1;shape=mxgraph.mockup.text.textBox;fontColor=#666666;align=left;fontSize=17;spacingLeft=4;spacingTop=-3;whiteSpace=wrap;strokeColor=#666666;mainText=" vertex="1" parent="0-gXcxRjBIyQzrn8WR7A-1">
          <mxGeometry x="477.5" y="620" width="180" height="30" as="geometry" />
        </mxCell>
        <mxCell id="bUUL3skueEAqUQBAPJLO-1" value="First Name" style="text;html=1;points=[];align=right;verticalAlign=top;spacingTop=-4;fontSize=14;fontFamily=Verdana" vertex="1" parent="0-gXcxRjBIyQzrn8WR7A-1">
          <mxGeometry x="270" y="210" width="110" height="20" as="geometry" />
        </mxCell>
        <mxCell id="bUUL3skueEAqUQBAPJLO-2" value="" style="strokeWidth=1;shadow=0;dashed=0;align=center;html=1;shape=mxgraph.mockup.text.textBox;fontColor=#666666;align=left;fontSize=17;spacingLeft=4;spacingTop=-3;whiteSpace=wrap;strokeColor=#666666;mainText=" vertex="1" parent="0-gXcxRjBIyQzrn8WR7A-1">
          <mxGeometry x="390" y="250" width="370" height="30" as="geometry" />
        </mxCell>
        <mxCell id="bUUL3skueEAqUQBAPJLO-3" value="Last Name" style="text;html=1;points=[];align=right;verticalAlign=top;spacingTop=-4;fontSize=14;fontFamily=Verdana" vertex="1" parent="0-gXcxRjBIyQzrn8WR7A-1">
          <mxGeometry x="270" y="260" width="110" height="20" as="geometry" />
        </mxCell>
        <mxCell id="bUUL3skueEAqUQBAPJLO-4" value="" style="strokeWidth=1;shadow=0;dashed=0;align=center;html=1;shape=mxgraph.mockup.text.textBox;fontColor=#666666;align=left;fontSize=17;spacingLeft=4;spacingTop=-3;whiteSpace=wrap;strokeColor=#666666;mainText=" vertex="1" parent="0-gXcxRjBIyQzrn8WR7A-1">
          <mxGeometry x="390" y="296" width="370" height="30" as="geometry" />
        </mxCell>
        <mxCell id="bUUL3skueEAqUQBAPJLO-5" value="Social Name" style="text;html=1;points=[];align=right;verticalAlign=top;spacingTop=-4;fontSize=14;fontFamily=Verdana" vertex="1" parent="0-gXcxRjBIyQzrn8WR7A-1">
          <mxGeometry x="270" y="306" width="110" height="20" as="geometry" />
        </mxCell>
        <mxCell id="bUUL3skueEAqUQBAPJLO-6" value="" style="strokeWidth=1;shadow=0;dashed=0;align=center;html=1;shape=mxgraph.mockup.text.textBox;fontColor=#666666;align=left;fontSize=17;spacingLeft=4;spacingTop=-3;whiteSpace=wrap;strokeColor=#666666;mainText=" vertex="1" parent="0-gXcxRjBIyQzrn8WR7A-1">
          <mxGeometry x="390" y="350" width="370" height="30" as="geometry" />
        </mxCell>
        <mxCell id="bUUL3skueEAqUQBAPJLO-7" value="E-mail" style="text;html=1;points=[];align=right;verticalAlign=top;spacingTop=-4;fontSize=14;fontFamily=Verdana" vertex="1" parent="0-gXcxRjBIyQzrn8WR7A-1">
          <mxGeometry x="270" y="360" width="110" height="20" as="geometry" />
        </mxCell>
        <mxCell id="bUUL3skueEAqUQBAPJLO-8" value="" style="strokeWidth=1;shadow=0;dashed=0;align=center;html=1;shape=mxgraph.mockup.text.textBox;fontColor=#666666;align=left;fontSize=17;spacingLeft=4;spacingTop=-3;whiteSpace=wrap;strokeColor=#666666;mainText=" vertex="1" parent="0-gXcxRjBIyQzrn8WR7A-1">
          <mxGeometry x="390" y="395" width="370" height="30" as="geometry" />
        </mxCell>
        <mxCell id="bUUL3skueEAqUQBAPJLO-9" value="Mobile Number" style="text;html=1;points=[];align=right;verticalAlign=top;spacingTop=-4;fontSize=14;fontFamily=Verdana" vertex="1" parent="0-gXcxRjBIyQzrn8WR7A-1">
          <mxGeometry x="270" y="405" width="110" height="20" as="geometry" />
        </mxCell>
        <mxCell id="bUUL3skueEAqUQBAPJLO-11" value="Type of User" style="text;html=1;points=[];align=right;verticalAlign=top;spacingTop=-4;fontSize=14;fontFamily=Verdana" vertex="1" parent="0-gXcxRjBIyQzrn8WR7A-1">
          <mxGeometry x="270" y="450" width="110" height="20" as="geometry" />
        </mxCell>
        <mxCell id="bUUL3skueEAqUQBAPJLO-12" value="Interviewer" style="strokeWidth=1;shadow=0;dashed=0;align=center;html=1;shape=mxgraph.mockup.forms.comboBox;strokeColor=#999999;fillColor=#ddeeff;align=left;fillColor2=#aaddff;mainText=;fontColor=#666666;fontSize=17;spacingLeft=3;" vertex="1" parent="0-gXcxRjBIyQzrn8WR7A-1">
          <mxGeometry x="390" y="445" width="370" height="30" as="geometry" />
        </mxCell>
        <mxCell id="g06kdSWjcPRJpSiqd1Oi-0" value="Save" style="strokeWidth=1;shadow=0;dashed=0;align=center;html=1;shape=mxgraph.mockup.buttons.button;strokeColor=#666666;fontColor=#ffffff;mainText=;buttonStyle=round;fontSize=17;fontStyle=1;fillColor=#008cff;whiteSpace=wrap;" vertex="1" parent="0-gXcxRjBIyQzrn8WR7A-1">
          <mxGeometry x="380" y="550" width="150" height="30" as="geometry" />
        </mxCell>
        <mxCell id="g06kdSWjcPRJpSiqd1Oi-2" value="" style="shape=table;html=1;whiteSpace=wrap;startSize=0;container=1;collapsible=0;childLayout=tableLayout;strokeWidth=2;" vertex="1" parent="0-gXcxRjBIyQzrn8WR7A-1">
          <mxGeometry x="310" y="680" width="515" height="81" as="geometry" />
        </mxCell>
        <mxCell id="g06kdSWjcPRJpSiqd1Oi-3" value="" style="shape=tableRow;horizontal=0;startSize=0;swimlaneHead=0;swimlaneBody=0;top=0;left=0;bottom=0;right=0;collapsible=0;dropTarget=0;fillColor=none;points=[[0,0.5],[1,0.5]];portConstraint=eastwest;" vertex="1" parent="g06kdSWjcPRJpSiqd1Oi-2">
          <mxGeometry width="515" height="30" as="geometry" />
        </mxCell>
        <mxCell id="g06kdSWjcPRJpSiqd1Oi-4" value="First Name" style="shape=partialRectangle;html=1;whiteSpace=wrap;connectable=0;fillColor=none;top=0;left=0;bottom=0;right=0;overflow=hidden;fontStyle=1" vertex="1" parent="g06kdSWjcPRJpSiqd1Oi-3">
          <mxGeometry width="258" height="30" as="geometry">
            <mxRectangle width="258" height="30" as="alternateBounds" />
          </mxGeometry>
        </mxCell>
        <mxCell id="g06kdSWjcPRJpSiqd1Oi-5" value="Social Name" style="shape=partialRectangle;html=1;whiteSpace=wrap;connectable=0;fillColor=none;top=0;left=0;bottom=0;right=0;overflow=hidden;fontStyle=1" vertex="1" parent="g06kdSWjcPRJpSiqd1Oi-3">
          <mxGeometry x="258" width="257" height="30" as="geometry">
            <mxRectangle width="257" height="30" as="alternateBounds" />
          </mxGeometry>
        </mxCell>
        <mxCell id="g06kdSWjcPRJpSiqd1Oi-6" value="" style="shape=tableRow;horizontal=0;startSize=0;swimlaneHead=0;swimlaneBody=0;top=0;left=0;bottom=0;right=0;collapsible=0;dropTarget=0;fillColor=none;points=[[0,0.5],[1,0.5]];portConstraint=eastwest;" vertex="1" parent="g06kdSWjcPRJpSiqd1Oi-2">
          <mxGeometry y="30" width="515" height="25" as="geometry" />
        </mxCell>
        <mxCell id="g06kdSWjcPRJpSiqd1Oi-7" value="xcsdfsd" style="shape=partialRectangle;html=1;whiteSpace=wrap;connectable=0;fillColor=none;top=0;left=0;bottom=0;right=0;overflow=hidden;" vertex="1" parent="g06kdSWjcPRJpSiqd1Oi-6">
          <mxGeometry width="258" height="25" as="geometry">
            <mxRectangle width="258" height="25" as="alternateBounds" />
          </mxGeometry>
        </mxCell>
        <mxCell id="g06kdSWjcPRJpSiqd1Oi-8" value="sss" style="shape=partialRectangle;html=1;whiteSpace=wrap;connectable=0;fillColor=none;top=0;left=0;bottom=0;right=0;overflow=hidden;" vertex="1" parent="g06kdSWjcPRJpSiqd1Oi-6">
          <mxGeometry x="258" width="257" height="25" as="geometry">
            <mxRectangle width="257" height="25" as="alternateBounds" />
          </mxGeometry>
        </mxCell>
        <mxCell id="g06kdSWjcPRJpSiqd1Oi-9" value="" style="shape=tableRow;horizontal=0;startSize=0;swimlaneHead=0;swimlaneBody=0;top=0;left=0;bottom=0;right=0;collapsible=0;dropTarget=0;fillColor=none;points=[[0,0.5],[1,0.5]];portConstraint=eastwest;" vertex="1" parent="g06kdSWjcPRJpSiqd1Oi-2">
          <mxGeometry y="55" width="515" height="26" as="geometry" />
        </mxCell>
        <mxCell id="g06kdSWjcPRJpSiqd1Oi-10" value="sdfsdf" style="shape=partialRectangle;html=1;whiteSpace=wrap;connectable=0;fillColor=none;top=0;left=0;bottom=0;right=0;overflow=hidden;" vertex="1" parent="g06kdSWjcPRJpSiqd1Oi-9">
          <mxGeometry width="258" height="26" as="geometry">
            <mxRectangle width="258" height="26" as="alternateBounds" />
          </mxGeometry>
        </mxCell>
        <mxCell id="g06kdSWjcPRJpSiqd1Oi-11" value="sdfsdf" style="shape=partialRectangle;html=1;whiteSpace=wrap;connectable=0;fillColor=none;top=0;left=0;bottom=0;right=0;overflow=hidden;" vertex="1" parent="g06kdSWjcPRJpSiqd1Oi-9">
          <mxGeometry x="258" width="257" height="26" as="geometry">
            <mxRectangle width="257" height="26" as="alternateBounds" />
          </mxGeometry>
        </mxCell>
        <mxCell id="g06kdSWjcPRJpSiqd1Oi-31" value="Cancel" style="strokeWidth=1;shadow=0;dashed=0;align=center;html=1;shape=mxgraph.mockup.buttons.button;strokeColor=#666666;fontColor=#ffffff;mainText=;buttonStyle=round;fontSize=17;fontStyle=1;fillColor=#008cff;whiteSpace=wrap;" vertex="1" parent="0-gXcxRjBIyQzrn8WR7A-1">
          <mxGeometry x="560" y="550" width="150" height="30" as="geometry" />
        </mxCell>
        <mxCell id="g06kdSWjcPRJpSiqd1Oi-32" value="Find" style="strokeWidth=1;shadow=0;dashed=0;align=center;html=1;shape=mxgraph.mockup.buttons.button;strokeColor=#666666;fontColor=#ffffff;mainText=;buttonStyle=round;fontSize=17;fontStyle=1;fillColor=#008cff;whiteSpace=wrap;" vertex="1" parent="0-gXcxRjBIyQzrn8WR7A-1">
          <mxGeometry x="690" y="620" width="150" height="30" as="geometry" />
        </mxCell>
        <mxCell id="g06kdSWjcPRJpSiqd1Oi-34" value="Social Name" style="strokeWidth=1;shadow=0;dashed=0;align=center;html=1;shape=mxgraph.mockup.forms.comboBox;strokeColor=#999999;fillColor=#ddeeff;align=left;fillColor2=#aaddff;mainText=;fontColor=#666666;fontSize=17;spacingLeft=3;" vertex="1" parent="0-gXcxRjBIyQzrn8WR7A-1">
          <mxGeometry x="310" y="620" width="150" height="30" as="geometry" />
        </mxCell>
        <mxCell id="udMgIkUtns2nDGJlElAI-0" value="" style="strokeWidth=1;shadow=0;dashed=0;align=center;html=1;shape=mxgraph.mockup.text.textBox;fontColor=#666666;align=left;fontSize=17;spacingLeft=4;spacingTop=-3;whiteSpace=wrap;strokeColor=#666666;mainText=" vertex="1" parent="0-gXcxRjBIyQzrn8WR7A-1">
          <mxGeometry x="390" y="205" width="370" height="30" as="geometry" />
        </mxCell>
        <mxCell id="F2Ac1OLAJqPbOAj6Rezx-0" value="Active user" style="text;html=1;points=[];align=right;verticalAlign=top;spacingTop=-4;fontSize=14;fontFamily=Verdana" vertex="1" parent="0-gXcxRjBIyQzrn8WR7A-1">
          <mxGeometry x="270" y="505" width="110" height="20" as="geometry" />
        </mxCell>
        <mxCell id="F2Ac1OLAJqPbOAj6Rezx-1" value="Yes" style="strokeWidth=1;shadow=0;dashed=0;align=center;html=1;shape=mxgraph.mockup.forms.comboBox;strokeColor=#999999;fillColor=#ddeeff;align=left;fillColor2=#aaddff;mainText=;fontColor=#666666;fontSize=17;spacingLeft=3;" vertex="1" parent="0-gXcxRjBIyQzrn8WR7A-1">
          <mxGeometry x="390" y="500" width="370" height="30" as="geometry" />
        </mxCell>
        <mxCell id="5HyFyn1TuFsrzjc1s2uv-0" value="Home" style="text;html=1;points=[];align=left;verticalAlign=top;spacingTop=-4;fontSize=14;fontFamily=Verdana;fontStyle=0" vertex="1" parent="0-gXcxRjBIyQzrn8WR7A-1">
          <mxGeometry x="50" y="170" width="170" height="20" as="geometry" />
        </mxCell>
      </root>
    </mxGraphModel>
  </diagram>
  <diagram name="Admin - Report of Users" id="uIvr56WAAODKC4P4Z-6l">
    <mxGraphModel dx="927" dy="457" grid="1" gridSize="10" guides="1" tooltips="1" connect="1" arrows="1" fold="1" page="1" pageScale="1" pageWidth="1100" pageHeight="850" background="none" math="0" shadow="0">
      <root>
        <mxCell id="S1SuYbDBY1MGSK6h3CSN-0" />
        <mxCell id="S1SuYbDBY1MGSK6h3CSN-1" parent="S1SuYbDBY1MGSK6h3CSN-0" />
        <mxCell id="S1SuYbDBY1MGSK6h3CSN-2" value="" style="whiteSpace=wrap;html=1;rounded=0;shadow=0;labelBackgroundColor=none;strokeColor=#000000;strokeWidth=1;fillColor=none;fontFamily=Verdana;fontSize=12;fontColor=#000000;align=center;comic=1;" vertex="1" parent="S1SuYbDBY1MGSK6h3CSN-1">
          <mxGeometry x="20" y="20" width="1060" height="810" as="geometry" />
        </mxCell>
        <mxCell id="S1SuYbDBY1MGSK6h3CSN-3" value="" style="verticalLabelPosition=bottom;shadow=0;dashed=0;align=center;html=1;verticalAlign=top;strokeWidth=1;shape=mxgraph.mockup.graphics.simpleIcon;strokeColor=#999999;rounded=0;labelBackgroundColor=none;fontFamily=Verdana;fontSize=14;fontColor=#000000;comic=1;" vertex="1" parent="S1SuYbDBY1MGSK6h3CSN-1">
          <mxGeometry x="250" y="150" width="790" height="660" as="geometry" />
        </mxCell>
        <mxCell id="S1SuYbDBY1MGSK6h3CSN-4" value="" style="whiteSpace=wrap;html=1;rounded=0;shadow=0;labelBackgroundColor=none;strokeWidth=1;fillColor=none;fontFamily=Verdana;fontSize=12;align=center;comic=1;" vertex="1" parent="S1SuYbDBY1MGSK6h3CSN-1">
          <mxGeometry x="300" y="205" width="583" height="575" as="geometry" />
        </mxCell>
        <mxCell id="S1SuYbDBY1MGSK6h3CSN-5" value="IAT" style="whiteSpace=wrap;html=1;rounded=0;shadow=0;labelBackgroundColor=none;strokeWidth=1;fontFamily=Verdana;fontSize=28;align=center;comic=1;" vertex="1" parent="S1SuYbDBY1MGSK6h3CSN-1">
          <mxGeometry x="30" y="80" width="200" height="50" as="geometry" />
        </mxCell>
        <mxCell id="S1SuYbDBY1MGSK6h3CSN-6" value="" style="whiteSpace=wrap;html=1;rounded=0;shadow=0;labelBackgroundColor=none;strokeWidth=1;fillColor=none;fontFamily=Verdana;fontSize=12;align=center;comic=1;" vertex="1" parent="S1SuYbDBY1MGSK6h3CSN-1">
          <mxGeometry x="30" y="130" width="200" height="680" as="geometry" />
        </mxCell>
        <mxCell id="S1SuYbDBY1MGSK6h3CSN-7" value="" style="whiteSpace=wrap;html=1;rounded=0;shadow=0;labelBackgroundColor=none;strokeWidth=1;fillColor=none;fontFamily=Verdana;fontSize=12;align=center;comic=1;" vertex="1" parent="S1SuYbDBY1MGSK6h3CSN-1">
          <mxGeometry x="230" y="80" width="840" height="50" as="geometry" />
        </mxCell>
        <mxCell id="S1SuYbDBY1MGSK6h3CSN-8" value="About" style="text;html=1;points=[];align=left;verticalAlign=top;spacingTop=-4;fontSize=14;fontFamily=Verdana" vertex="1" parent="S1SuYbDBY1MGSK6h3CSN-1">
          <mxGeometry x="970" y="95" width="60" height="20" as="geometry" />
        </mxCell>
        <mxCell id="S1SuYbDBY1MGSK6h3CSN-9" value="Administrative Module" style="text;html=1;points=[];align=left;verticalAlign=top;spacingTop=-4;fontSize=14;fontFamily=Verdana" vertex="1" parent="S1SuYbDBY1MGSK6h3CSN-1">
          <mxGeometry x="490" width="170" height="20" as="geometry" />
        </mxCell>
        <mxCell id="S1SuYbDBY1MGSK6h3CSN-10" value="Users Type" style="text;html=1;points=[];align=left;verticalAlign=top;spacingTop=-4;fontSize=14;fontFamily=Verdana" vertex="1" parent="S1SuYbDBY1MGSK6h3CSN-1">
          <mxGeometry x="50" y="205" width="170" height="20" as="geometry" />
        </mxCell>
        <mxCell id="S1SuYbDBY1MGSK6h3CSN-11" value="Users Managment" style="text;html=1;points=[];align=left;verticalAlign=top;spacingTop=-4;fontSize=14;fontFamily=Verdana" vertex="1" parent="S1SuYbDBY1MGSK6h3CSN-1">
          <mxGeometry x="50" y="240" width="170" height="20" as="geometry" />
        </mxCell>
        <mxCell id="S1SuYbDBY1MGSK6h3CSN-12" value="Report of Users" style="text;html=1;points=[];align=left;verticalAlign=top;spacingTop=-4;fontSize=14;fontFamily=Verdana;fontStyle=1" vertex="1" parent="S1SuYbDBY1MGSK6h3CSN-1">
          <mxGeometry x="50" y="276" width="170" height="20" as="geometry" />
        </mxCell>
        <mxCell id="S1SuYbDBY1MGSK6h3CSN-13" value="" style="whiteSpace=wrap;html=1;rounded=0;shadow=0;labelBackgroundColor=none;strokeWidth=1;fillColor=none;fontFamily=Verdana;fontSize=12;align=center;comic=1;" vertex="1" parent="S1SuYbDBY1MGSK6h3CSN-1">
          <mxGeometry x="30" y="40" width="1040" height="30" as="geometry" />
        </mxCell>
        <mxCell id="S1SuYbDBY1MGSK6h3CSN-14" value="HTTPS://localhost" style="text;html=1;points=[];align=left;verticalAlign=top;spacingTop=-4;fontSize=14;fontFamily=Verdana" vertex="1" parent="S1SuYbDBY1MGSK6h3CSN-1">
          <mxGeometry x="40" y="45" width="170" height="20" as="geometry" />
        </mxCell>
        <mxCell id="S1SuYbDBY1MGSK6h3CSN-15" value="&lt;b&gt;Report of Users&lt;br&gt;&lt;/b&gt;" style="text;html=1;points=[];align=left;verticalAlign=top;spacingTop=-4;fontSize=14;fontFamily=Verdana" vertex="1" parent="S1SuYbDBY1MGSK6h3CSN-1">
          <mxGeometry x="300" y="170" width="170" height="20" as="geometry" />
        </mxCell>
        <mxCell id="S1SuYbDBY1MGSK6h3CSN-16" value="" style="strokeWidth=1;shadow=0;dashed=0;align=center;html=1;shape=mxgraph.mockup.text.textBox;fontColor=#666666;align=left;fontSize=17;spacingLeft=4;spacingTop=-3;whiteSpace=wrap;strokeColor=#666666;mainText=" vertex="1" parent="S1SuYbDBY1MGSK6h3CSN-1">
          <mxGeometry x="500" y="255" width="210" height="30" as="geometry" />
        </mxCell>
        <mxCell id="S1SuYbDBY1MGSK6h3CSN-29" value="" style="shape=table;html=1;whiteSpace=wrap;startSize=0;container=1;collapsible=0;childLayout=tableLayout;strokeWidth=2;" vertex="1" parent="S1SuYbDBY1MGSK6h3CSN-1">
          <mxGeometry x="340" y="315" width="515" height="81" as="geometry" />
        </mxCell>
        <mxCell id="S1SuYbDBY1MGSK6h3CSN-30" value="" style="shape=tableRow;horizontal=0;startSize=0;swimlaneHead=0;swimlaneBody=0;top=0;left=0;bottom=0;right=0;collapsible=0;dropTarget=0;fillColor=none;points=[[0,0.5],[1,0.5]];portConstraint=eastwest;" vertex="1" parent="S1SuYbDBY1MGSK6h3CSN-29">
          <mxGeometry width="515" height="30" as="geometry" />
        </mxCell>
        <mxCell id="S1SuYbDBY1MGSK6h3CSN-31" value="First Name" style="shape=partialRectangle;html=1;whiteSpace=wrap;connectable=0;fillColor=none;top=0;left=0;bottom=0;right=0;overflow=hidden;fontStyle=1" vertex="1" parent="S1SuYbDBY1MGSK6h3CSN-30">
          <mxGeometry width="258" height="30" as="geometry">
            <mxRectangle width="258" height="30" as="alternateBounds" />
          </mxGeometry>
        </mxCell>
        <mxCell id="S1SuYbDBY1MGSK6h3CSN-32" value="Social Name" style="shape=partialRectangle;html=1;whiteSpace=wrap;connectable=0;fillColor=none;top=0;left=0;bottom=0;right=0;overflow=hidden;fontStyle=1" vertex="1" parent="S1SuYbDBY1MGSK6h3CSN-30">
          <mxGeometry x="258" width="257" height="30" as="geometry">
            <mxRectangle width="257" height="30" as="alternateBounds" />
          </mxGeometry>
        </mxCell>
        <mxCell id="S1SuYbDBY1MGSK6h3CSN-33" value="" style="shape=tableRow;horizontal=0;startSize=0;swimlaneHead=0;swimlaneBody=0;top=0;left=0;bottom=0;right=0;collapsible=0;dropTarget=0;fillColor=none;points=[[0,0.5],[1,0.5]];portConstraint=eastwest;" vertex="1" parent="S1SuYbDBY1MGSK6h3CSN-29">
          <mxGeometry y="30" width="515" height="25" as="geometry" />
        </mxCell>
        <mxCell id="S1SuYbDBY1MGSK6h3CSN-34" value="xcsdfsd" style="shape=partialRectangle;html=1;whiteSpace=wrap;connectable=0;fillColor=none;top=0;left=0;bottom=0;right=0;overflow=hidden;" vertex="1" parent="S1SuYbDBY1MGSK6h3CSN-33">
          <mxGeometry width="258" height="25" as="geometry">
            <mxRectangle width="258" height="25" as="alternateBounds" />
          </mxGeometry>
        </mxCell>
        <mxCell id="S1SuYbDBY1MGSK6h3CSN-35" value="sss" style="shape=partialRectangle;html=1;whiteSpace=wrap;connectable=0;fillColor=none;top=0;left=0;bottom=0;right=0;overflow=hidden;" vertex="1" parent="S1SuYbDBY1MGSK6h3CSN-33">
          <mxGeometry x="258" width="257" height="25" as="geometry">
            <mxRectangle width="257" height="25" as="alternateBounds" />
          </mxGeometry>
        </mxCell>
        <mxCell id="S1SuYbDBY1MGSK6h3CSN-36" value="" style="shape=tableRow;horizontal=0;startSize=0;swimlaneHead=0;swimlaneBody=0;top=0;left=0;bottom=0;right=0;collapsible=0;dropTarget=0;fillColor=none;points=[[0,0.5],[1,0.5]];portConstraint=eastwest;" vertex="1" parent="S1SuYbDBY1MGSK6h3CSN-29">
          <mxGeometry y="55" width="515" height="26" as="geometry" />
        </mxCell>
        <mxCell id="S1SuYbDBY1MGSK6h3CSN-37" value="sdfsdf" style="shape=partialRectangle;html=1;whiteSpace=wrap;connectable=0;fillColor=none;top=0;left=0;bottom=0;right=0;overflow=hidden;" vertex="1" parent="S1SuYbDBY1MGSK6h3CSN-36">
          <mxGeometry width="258" height="26" as="geometry">
            <mxRectangle width="258" height="26" as="alternateBounds" />
          </mxGeometry>
        </mxCell>
        <mxCell id="S1SuYbDBY1MGSK6h3CSN-38" value="sdfsdf" style="shape=partialRectangle;html=1;whiteSpace=wrap;connectable=0;fillColor=none;top=0;left=0;bottom=0;right=0;overflow=hidden;" vertex="1" parent="S1SuYbDBY1MGSK6h3CSN-36">
          <mxGeometry x="258" width="257" height="26" as="geometry">
            <mxRectangle width="257" height="26" as="alternateBounds" />
          </mxGeometry>
        </mxCell>
        <mxCell id="S1SuYbDBY1MGSK6h3CSN-40" value="Find" style="strokeWidth=1;shadow=0;dashed=0;align=center;html=1;shape=mxgraph.mockup.buttons.button;strokeColor=#666666;fontColor=#ffffff;mainText=;buttonStyle=round;fontSize=17;fontStyle=1;fillColor=#008cff;whiteSpace=wrap;" vertex="1" parent="S1SuYbDBY1MGSK6h3CSN-1">
          <mxGeometry x="720" y="255" width="150" height="30" as="geometry" />
        </mxCell>
        <mxCell id="S1SuYbDBY1MGSK6h3CSN-41" value="Social Name" style="strokeWidth=1;shadow=0;dashed=0;align=center;html=1;shape=mxgraph.mockup.forms.comboBox;strokeColor=#999999;fillColor=#ddeeff;align=left;fillColor2=#aaddff;mainText=;fontColor=#666666;fontSize=17;spacingLeft=3;" vertex="1" parent="S1SuYbDBY1MGSK6h3CSN-1">
          <mxGeometry x="340" y="255" width="150" height="30" as="geometry" />
        </mxCell>
        <mxCell id="8Zl17o1GvGH6LdWrB-0i-1" value="Print" style="strokeWidth=1;shadow=0;dashed=0;align=center;html=1;shape=mxgraph.mockup.buttons.button;strokeColor=#666666;fontColor=#ffffff;mainText=;buttonStyle=round;fontSize=17;fontStyle=1;fillColor=#008cff;whiteSpace=wrap;" vertex="1" parent="S1SuYbDBY1MGSK6h3CSN-1">
          <mxGeometry x="720" y="210" width="150" height="30" as="geometry" />
        </mxCell>
        <mxCell id="8Zl17o1GvGH6LdWrB-0i-3" value="" style="strokeWidth=1;shadow=0;dashed=0;align=center;html=1;shape=mxgraph.mockup.forms.rrect;rSize=0;strokeColor=#999999;fillColor=#ffffff;recursiveResize=0;" vertex="1" parent="S1SuYbDBY1MGSK6h3CSN-1">
          <mxGeometry x="530" y="210" width="180" height="40" as="geometry" />
        </mxCell>
        <mxCell id="8Zl17o1GvGH6LdWrB-0i-4" value="All" style="shape=ellipse;rSize=0;fillColor=#eeeeee;strokeColor=#999999;gradientColor=#cccccc;html=1;align=left;spacingLeft=4;fontSize=17;fontColor=#666666;labelPosition=right;" vertex="1" parent="8Zl17o1GvGH6LdWrB-0i-3">
          <mxGeometry x="20" y="12.5" width="15" height="15" as="geometry" />
        </mxCell>
        <mxCell id="8Zl17o1GvGH6LdWrB-0i-5" value="founded" style="shape=ellipse;rSize=0;fillColor=#eeeeee;strokeColor=#999999;gradientColor=#cccccc;html=1;align=left;spacingLeft=4;fontSize=17;fontColor=#666666;labelPosition=right;" vertex="1" parent="8Zl17o1GvGH6LdWrB-0i-3">
          <mxGeometry x="82.5" y="12.5" width="15" height="15" as="geometry" />
        </mxCell>
        <mxCell id="8Zl17o1GvGH6LdWrB-0i-13" value="" style="strokeWidth=1;shadow=0;dashed=0;align=center;html=1;shape=mxgraph.mockup.forms.rrect;rSize=0;strokeColor=#999999;fillColor=#ffffff;recursiveResize=0;" vertex="1" parent="S1SuYbDBY1MGSK6h3CSN-1">
          <mxGeometry x="340" y="210" width="180" height="40" as="geometry" />
        </mxCell>
        <mxCell id="8Zl17o1GvGH6LdWrB-0i-14" value="Active" style="shape=ellipse;rSize=0;fillColor=#eeeeee;strokeColor=#999999;gradientColor=#cccccc;html=1;align=left;spacingLeft=4;fontSize=17;fontColor=#666666;labelPosition=right;" vertex="1" parent="8Zl17o1GvGH6LdWrB-0i-13">
          <mxGeometry x="8" y="12.5" width="15" height="15" as="geometry" />
        </mxCell>
        <mxCell id="8Zl17o1GvGH6LdWrB-0i-15" value="Inactive" style="shape=ellipse;rSize=0;fillColor=#eeeeee;strokeColor=#999999;gradientColor=#cccccc;html=1;align=left;spacingLeft=4;fontSize=17;fontColor=#666666;labelPosition=right;" vertex="1" parent="8Zl17o1GvGH6LdWrB-0i-13">
          <mxGeometry x="90" y="12.5" width="15" height="15" as="geometry" />
        </mxCell>
        <mxCell id="2KopBpaNeXpnAastFOLZ-0" value="Home" style="text;html=1;points=[];align=left;verticalAlign=top;spacingTop=-4;fontSize=14;fontFamily=Verdana;fontStyle=0" vertex="1" parent="S1SuYbDBY1MGSK6h3CSN-1">
          <mxGeometry x="50" y="170" width="170" height="20" as="geometry" />
        </mxCell>
      </root>
    </mxGraphModel>
  </diagram>
  <diagram name="Interview Module - Home" id="Rflx5mqulEJ0HyBhRW5D">
    <mxGraphModel dx="1468" dy="723" grid="1" gridSize="10" guides="1" tooltips="1" connect="1" arrows="1" fold="1" page="1" pageScale="1" pageWidth="1100" pageHeight="850" background="none" math="0" shadow="0">
      <root>
        <mxCell id="rtLZWN6nPbmhi-jXKKOJ-0" />
        <mxCell id="rtLZWN6nPbmhi-jXKKOJ-1" parent="rtLZWN6nPbmhi-jXKKOJ-0" />
        <mxCell id="rtLZWN6nPbmhi-jXKKOJ-2" value="" style="whiteSpace=wrap;html=1;rounded=0;shadow=0;labelBackgroundColor=none;strokeColor=#000000;strokeWidth=1;fillColor=none;fontFamily=Verdana;fontSize=12;fontColor=#000000;align=center;comic=1;" vertex="1" parent="rtLZWN6nPbmhi-jXKKOJ-1">
          <mxGeometry x="20" y="20" width="1060" height="810" as="geometry" />
        </mxCell>
        <mxCell id="rtLZWN6nPbmhi-jXKKOJ-3" value="" style="verticalLabelPosition=bottom;shadow=0;dashed=0;align=center;html=1;verticalAlign=top;strokeWidth=1;shape=mxgraph.mockup.graphics.simpleIcon;strokeColor=#999999;rounded=0;labelBackgroundColor=none;fontFamily=Verdana;fontSize=14;fontColor=#000000;comic=1;" vertex="1" parent="rtLZWN6nPbmhi-jXKKOJ-1">
          <mxGeometry x="250" y="150" width="790" height="660" as="geometry" />
        </mxCell>
        <mxCell id="rtLZWN6nPbmhi-jXKKOJ-5" value="IAT" style="whiteSpace=wrap;html=1;rounded=0;shadow=0;labelBackgroundColor=none;strokeWidth=1;fontFamily=Verdana;fontSize=28;align=center;comic=1;" vertex="1" parent="rtLZWN6nPbmhi-jXKKOJ-1">
          <mxGeometry x="30" y="80" width="200" height="50" as="geometry" />
        </mxCell>
        <mxCell id="rtLZWN6nPbmhi-jXKKOJ-6" value="" style="whiteSpace=wrap;html=1;rounded=0;shadow=0;labelBackgroundColor=none;strokeWidth=1;fillColor=none;fontFamily=Verdana;fontSize=12;align=center;comic=1;" vertex="1" parent="rtLZWN6nPbmhi-jXKKOJ-1">
          <mxGeometry x="30" y="130" width="200" height="680" as="geometry" />
        </mxCell>
        <mxCell id="rtLZWN6nPbmhi-jXKKOJ-7" value="" style="whiteSpace=wrap;html=1;rounded=0;shadow=0;labelBackgroundColor=none;strokeWidth=1;fillColor=none;fontFamily=Verdana;fontSize=12;align=center;comic=1;" vertex="1" parent="rtLZWN6nPbmhi-jXKKOJ-1">
          <mxGeometry x="230" y="80" width="840" height="50" as="geometry" />
        </mxCell>
        <mxCell id="rtLZWN6nPbmhi-jXKKOJ-8" value="About" style="text;html=1;points=[];align=left;verticalAlign=top;spacingTop=-4;fontSize=14;fontFamily=Verdana" vertex="1" parent="rtLZWN6nPbmhi-jXKKOJ-1">
          <mxGeometry x="970" y="95" width="60" height="20" as="geometry" />
        </mxCell>
        <mxCell id="rtLZWN6nPbmhi-jXKKOJ-9" value="Interview Module" style="text;html=1;points=[];align=left;verticalAlign=top;spacingTop=-4;fontSize=14;fontFamily=Verdana" vertex="1" parent="rtLZWN6nPbmhi-jXKKOJ-1">
          <mxGeometry x="490" width="170" height="20" as="geometry" />
        </mxCell>
        <mxCell id="rtLZWN6nPbmhi-jXKKOJ-10" value="Home" style="text;html=1;points=[];align=left;verticalAlign=top;spacingTop=-4;fontSize=14;fontFamily=Verdana;fontStyle=1" vertex="1" parent="rtLZWN6nPbmhi-jXKKOJ-1">
          <mxGeometry x="50" y="205" width="170" height="20" as="geometry" />
        </mxCell>
        <mxCell id="rtLZWN6nPbmhi-jXKKOJ-11" value="Mgmt of Interviewees" style="text;html=1;points=[];align=left;verticalAlign=top;spacingTop=-4;fontSize=14;fontFamily=Verdana" vertex="1" parent="rtLZWN6nPbmhi-jXKKOJ-1">
          <mxGeometry x="50" y="240" width="170" height="20" as="geometry" />
        </mxCell>
        <mxCell id="rtLZWN6nPbmhi-jXKKOJ-12" value="Interview Scheduling" style="text;html=1;points=[];align=left;verticalAlign=top;spacingTop=-4;fontSize=14;fontFamily=Verdana" vertex="1" parent="rtLZWN6nPbmhi-jXKKOJ-1">
          <mxGeometry x="50" y="276" width="170" height="20" as="geometry" />
        </mxCell>
        <mxCell id="rtLZWN6nPbmhi-jXKKOJ-13" value="" style="whiteSpace=wrap;html=1;rounded=0;shadow=0;labelBackgroundColor=none;strokeWidth=1;fillColor=none;fontFamily=Verdana;fontSize=12;align=center;comic=1;" vertex="1" parent="rtLZWN6nPbmhi-jXKKOJ-1">
          <mxGeometry x="30" y="40" width="1040" height="30" as="geometry" />
        </mxCell>
        <mxCell id="rtLZWN6nPbmhi-jXKKOJ-14" value="HTTPS://localhost" style="text;html=1;points=[];align=left;verticalAlign=top;spacingTop=-4;fontSize=14;fontFamily=Verdana" vertex="1" parent="rtLZWN6nPbmhi-jXKKOJ-1">
          <mxGeometry x="40" y="45" width="170" height="20" as="geometry" />
        </mxCell>
        <mxCell id="rtLZWN6nPbmhi-jXKKOJ-15" value="&lt;b&gt;Home&lt;br&gt;&lt;/b&gt;" style="text;html=1;points=[];align=left;verticalAlign=top;spacingTop=-4;fontSize=14;fontFamily=Verdana" vertex="1" parent="rtLZWN6nPbmhi-jXKKOJ-1">
          <mxGeometry x="300" y="170" width="170" height="20" as="geometry" />
        </mxCell>
        <mxCell id="PxrdTo_UrvsFAnyea-zu-0" value="Mgmt of Calendar" style="text;html=1;points=[];align=left;verticalAlign=top;spacingTop=-4;fontSize=14;fontFamily=Verdana" vertex="1" parent="rtLZWN6nPbmhi-jXKKOJ-1">
          <mxGeometry x="50" y="310" width="170" height="20" as="geometry" />
        </mxCell>
        <mxCell id="PxrdTo_UrvsFAnyea-zu-1" value="Management of Audio" style="text;html=1;points=[];align=left;verticalAlign=top;spacingTop=-4;fontSize=14;fontFamily=Verdana" vertex="1" parent="rtLZWN6nPbmhi-jXKKOJ-1">
          <mxGeometry x="50" y="350" width="170" height="20" as="geometry" />
        </mxCell>
        <mxCell id="PxrdTo_UrvsFAnyea-zu-2" value="Audio Transcription" style="text;html=1;points=[];align=left;verticalAlign=top;spacingTop=-4;fontSize=14;fontFamily=Verdana" vertex="1" parent="rtLZWN6nPbmhi-jXKKOJ-1">
          <mxGeometry x="50" y="390" width="170" height="20" as="geometry" />
        </mxCell>
      </root>
    </mxGraphModel>
  </diagram>
  <diagram name="Interview Module - Management of Interviewees" id="CvB18LIYqZwLnnCsYECN">
    <mxGraphModel dx="1468" dy="723" grid="1" gridSize="10" guides="1" tooltips="1" connect="1" arrows="1" fold="1" page="1" pageScale="1" pageWidth="1100" pageHeight="850" background="none" math="0" shadow="0">
      <root>
        <mxCell id="A3QuiD0QlyfGWGZbePQw-0" />
        <mxCell id="A3QuiD0QlyfGWGZbePQw-1" parent="A3QuiD0QlyfGWGZbePQw-0" />
        <mxCell id="A3QuiD0QlyfGWGZbePQw-2" value="" style="whiteSpace=wrap;html=1;rounded=0;shadow=0;labelBackgroundColor=none;strokeColor=#000000;strokeWidth=1;fillColor=none;fontFamily=Verdana;fontSize=12;fontColor=#000000;align=center;comic=1;" vertex="1" parent="A3QuiD0QlyfGWGZbePQw-1">
          <mxGeometry x="20" y="20" width="1060" height="810" as="geometry" />
        </mxCell>
        <mxCell id="A3QuiD0QlyfGWGZbePQw-4" value="IAT" style="whiteSpace=wrap;html=1;rounded=0;shadow=0;labelBackgroundColor=none;strokeWidth=1;fontFamily=Verdana;fontSize=28;align=center;comic=1;" vertex="1" parent="A3QuiD0QlyfGWGZbePQw-1">
          <mxGeometry x="30" y="80" width="200" height="50" as="geometry" />
        </mxCell>
        <mxCell id="A3QuiD0QlyfGWGZbePQw-5" value="" style="whiteSpace=wrap;html=1;rounded=0;shadow=0;labelBackgroundColor=none;strokeWidth=1;fillColor=none;fontFamily=Verdana;fontSize=12;align=center;comic=1;" vertex="1" parent="A3QuiD0QlyfGWGZbePQw-1">
          <mxGeometry x="30" y="130" width="200" height="680" as="geometry" />
        </mxCell>
        <mxCell id="A3QuiD0QlyfGWGZbePQw-6" value="" style="whiteSpace=wrap;html=1;rounded=0;shadow=0;labelBackgroundColor=none;strokeWidth=1;fillColor=none;fontFamily=Verdana;fontSize=12;align=center;comic=1;" vertex="1" parent="A3QuiD0QlyfGWGZbePQw-1">
          <mxGeometry x="230" y="80" width="840" height="50" as="geometry" />
        </mxCell>
        <mxCell id="A3QuiD0QlyfGWGZbePQw-7" value="About" style="text;html=1;points=[];align=left;verticalAlign=top;spacingTop=-4;fontSize=14;fontFamily=Verdana" vertex="1" parent="A3QuiD0QlyfGWGZbePQw-1">
          <mxGeometry x="970" y="95" width="60" height="20" as="geometry" />
        </mxCell>
        <mxCell id="A3QuiD0QlyfGWGZbePQw-8" value="Interview Module" style="text;html=1;points=[];align=left;verticalAlign=top;spacingTop=-4;fontSize=14;fontFamily=Verdana" vertex="1" parent="A3QuiD0QlyfGWGZbePQw-1">
          <mxGeometry x="490" width="170" height="20" as="geometry" />
        </mxCell>
        <mxCell id="A3QuiD0QlyfGWGZbePQw-9" value="Home" style="text;html=1;points=[];align=left;verticalAlign=top;spacingTop=-4;fontSize=14;fontFamily=Verdana" vertex="1" parent="A3QuiD0QlyfGWGZbePQw-1">
          <mxGeometry x="50" y="205" width="170" height="20" as="geometry" />
        </mxCell>
        <mxCell id="A3QuiD0QlyfGWGZbePQw-10" value="Mgmt of Interviewees" style="text;html=1;points=[];align=left;verticalAlign=top;spacingTop=-4;fontSize=14;fontFamily=Verdana;fontStyle=1" vertex="1" parent="A3QuiD0QlyfGWGZbePQw-1">
          <mxGeometry x="50" y="240" width="170" height="20" as="geometry" />
        </mxCell>
        <mxCell id="A3QuiD0QlyfGWGZbePQw-11" value="Interview Scheduling" style="text;html=1;points=[];align=left;verticalAlign=top;spacingTop=-4;fontSize=14;fontFamily=Verdana" vertex="1" parent="A3QuiD0QlyfGWGZbePQw-1">
          <mxGeometry x="50" y="276" width="170" height="20" as="geometry" />
        </mxCell>
        <mxCell id="A3QuiD0QlyfGWGZbePQw-12" value="" style="whiteSpace=wrap;html=1;rounded=0;shadow=0;labelBackgroundColor=none;strokeWidth=1;fillColor=none;fontFamily=Verdana;fontSize=12;align=center;comic=1;" vertex="1" parent="A3QuiD0QlyfGWGZbePQw-1">
          <mxGeometry x="30" y="40" width="1040" height="30" as="geometry" />
        </mxCell>
        <mxCell id="A3QuiD0QlyfGWGZbePQw-13" value="HTTPS://localhost" style="text;html=1;points=[];align=left;verticalAlign=top;spacingTop=-4;fontSize=14;fontFamily=Verdana" vertex="1" parent="A3QuiD0QlyfGWGZbePQw-1">
          <mxGeometry x="40" y="45" width="170" height="20" as="geometry" />
        </mxCell>
        <mxCell id="A3QuiD0QlyfGWGZbePQw-14" value="&lt;b&gt;Management of Interviewees&lt;/b&gt;" style="text;html=1;points=[];align=left;verticalAlign=top;spacingTop=-4;fontSize=14;fontFamily=Verdana" vertex="1" parent="A3QuiD0QlyfGWGZbePQw-1">
          <mxGeometry x="300" y="170" width="170" height="20" as="geometry" />
        </mxCell>
        <mxCell id="A3QuiD0QlyfGWGZbePQw-15" value="Mgmt of Calendar" style="text;html=1;points=[];align=left;verticalAlign=top;spacingTop=-4;fontSize=14;fontFamily=Verdana" vertex="1" parent="A3QuiD0QlyfGWGZbePQw-1">
          <mxGeometry x="50" y="310" width="170" height="20" as="geometry" />
        </mxCell>
        <mxCell id="A3QuiD0QlyfGWGZbePQw-16" value="Management of Audio" style="text;html=1;points=[];align=left;verticalAlign=top;spacingTop=-4;fontSize=14;fontFamily=Verdana" vertex="1" parent="A3QuiD0QlyfGWGZbePQw-1">
          <mxGeometry x="50" y="350" width="170" height="20" as="geometry" />
        </mxCell>
        <mxCell id="A3QuiD0QlyfGWGZbePQw-17" value="Audio Transcription" style="text;html=1;points=[];align=left;verticalAlign=top;spacingTop=-4;fontSize=14;fontFamily=Verdana" vertex="1" parent="A3QuiD0QlyfGWGZbePQw-1">
          <mxGeometry x="50" y="390" width="170" height="20" as="geometry" />
        </mxCell>
        <mxCell id="uYn2vARg8Lsxyviq5lug-0" value="" style="verticalLabelPosition=bottom;shadow=0;dashed=0;align=center;html=1;verticalAlign=top;strokeWidth=1;shape=mxgraph.mockup.graphics.simpleIcon;strokeColor=#999999;rounded=0;labelBackgroundColor=none;fontFamily=Verdana;fontSize=14;fontColor=#000000;comic=1;" vertex="1" parent="A3QuiD0QlyfGWGZbePQw-1">
          <mxGeometry x="250" y="150" width="790" height="660" as="geometry" />
        </mxCell>
        <mxCell id="uYn2vARg8Lsxyviq5lug-1" value="" style="whiteSpace=wrap;html=1;rounded=0;shadow=0;labelBackgroundColor=none;strokeWidth=1;fillColor=none;fontFamily=Verdana;fontSize=12;align=center;comic=1;" vertex="1" parent="A3QuiD0QlyfGWGZbePQw-1">
          <mxGeometry x="270" y="630" width="583" height="160" as="geometry" />
        </mxCell>
        <mxCell id="uYn2vARg8Lsxyviq5lug-2" value="&lt;b&gt;Management of Interviewees&lt;br&gt;&lt;/b&gt;" style="text;html=1;points=[];align=left;verticalAlign=top;spacingTop=-4;fontSize=14;fontFamily=Verdana" vertex="1" parent="A3QuiD0QlyfGWGZbePQw-1">
          <mxGeometry x="300" y="170" width="170" height="20" as="geometry" />
        </mxCell>
        <mxCell id="uYn2vARg8Lsxyviq5lug-3" value="" style="strokeWidth=1;shadow=0;dashed=0;align=center;html=1;shape=mxgraph.mockup.text.textBox;fontColor=#666666;align=left;fontSize=17;spacingLeft=4;spacingTop=-3;whiteSpace=wrap;strokeColor=#666666;mainText=" vertex="1" parent="A3QuiD0QlyfGWGZbePQw-1">
          <mxGeometry x="477.5" y="640" width="180" height="30" as="geometry" />
        </mxCell>
        <mxCell id="uYn2vARg8Lsxyviq5lug-4" value="First Name" style="text;html=1;points=[];align=right;verticalAlign=top;spacingTop=-4;fontSize=14;fontFamily=Verdana" vertex="1" parent="A3QuiD0QlyfGWGZbePQw-1">
          <mxGeometry x="300" y="210" width="110" height="20" as="geometry" />
        </mxCell>
        <mxCell id="uYn2vARg8Lsxyviq5lug-5" value="" style="strokeWidth=1;shadow=0;dashed=0;align=center;html=1;shape=mxgraph.mockup.text.textBox;fontColor=#666666;align=left;fontSize=17;spacingLeft=4;spacingTop=-3;whiteSpace=wrap;strokeColor=#666666;mainText=" vertex="1" parent="A3QuiD0QlyfGWGZbePQw-1">
          <mxGeometry x="420" y="250" width="370" height="30" as="geometry" />
        </mxCell>
        <mxCell id="uYn2vARg8Lsxyviq5lug-6" value="Last Name" style="text;html=1;points=[];align=right;verticalAlign=top;spacingTop=-4;fontSize=14;fontFamily=Verdana" vertex="1" parent="A3QuiD0QlyfGWGZbePQw-1">
          <mxGeometry x="300" y="260" width="110" height="20" as="geometry" />
        </mxCell>
        <mxCell id="uYn2vARg8Lsxyviq5lug-7" value="" style="strokeWidth=1;shadow=0;dashed=0;align=center;html=1;shape=mxgraph.mockup.text.textBox;fontColor=#666666;align=left;fontSize=17;spacingLeft=4;spacingTop=-3;whiteSpace=wrap;strokeColor=#666666;mainText=" vertex="1" parent="A3QuiD0QlyfGWGZbePQw-1">
          <mxGeometry x="420" y="296" width="370" height="30" as="geometry" />
        </mxCell>
        <mxCell id="uYn2vARg8Lsxyviq5lug-8" value="Social Name" style="text;html=1;points=[];align=right;verticalAlign=top;spacingTop=-4;fontSize=14;fontFamily=Verdana" vertex="1" parent="A3QuiD0QlyfGWGZbePQw-1">
          <mxGeometry x="300" y="306" width="110" height="20" as="geometry" />
        </mxCell>
        <mxCell id="uYn2vARg8Lsxyviq5lug-9" value="" style="strokeWidth=1;shadow=0;dashed=0;align=center;html=1;shape=mxgraph.mockup.text.textBox;fontColor=#666666;align=left;fontSize=17;spacingLeft=4;spacingTop=-3;whiteSpace=wrap;strokeColor=#666666;mainText=" vertex="1" parent="A3QuiD0QlyfGWGZbePQw-1">
          <mxGeometry x="420" y="350" width="370" height="30" as="geometry" />
        </mxCell>
        <mxCell id="uYn2vARg8Lsxyviq5lug-10" value="E-mail" style="text;html=1;points=[];align=right;verticalAlign=top;spacingTop=-4;fontSize=14;fontFamily=Verdana" vertex="1" parent="A3QuiD0QlyfGWGZbePQw-1">
          <mxGeometry x="300" y="360" width="110" height="20" as="geometry" />
        </mxCell>
        <mxCell id="uYn2vARg8Lsxyviq5lug-11" value="" style="strokeWidth=1;shadow=0;dashed=0;align=center;html=1;shape=mxgraph.mockup.text.textBox;fontColor=#666666;align=left;fontSize=17;spacingLeft=4;spacingTop=-3;whiteSpace=wrap;strokeColor=#666666;mainText=" vertex="1" parent="A3QuiD0QlyfGWGZbePQw-1">
          <mxGeometry x="420" y="395" width="370" height="30" as="geometry" />
        </mxCell>
        <mxCell id="uYn2vARg8Lsxyviq5lug-12" value="Mobile Number" style="text;html=1;points=[];align=right;verticalAlign=top;spacingTop=-4;fontSize=14;fontFamily=Verdana" vertex="1" parent="A3QuiD0QlyfGWGZbePQw-1">
          <mxGeometry x="300" y="405" width="110" height="20" as="geometry" />
        </mxCell>
        <mxCell id="uYn2vARg8Lsxyviq5lug-15" value="Save" style="strokeWidth=1;shadow=0;dashed=0;align=center;html=1;shape=mxgraph.mockup.buttons.button;strokeColor=#666666;fontColor=#ffffff;mainText=;buttonStyle=round;fontSize=17;fontStyle=1;fillColor=#008cff;whiteSpace=wrap;" vertex="1" parent="A3QuiD0QlyfGWGZbePQw-1">
          <mxGeometry x="640" y="585" width="150" height="30" as="geometry" />
        </mxCell>
        <mxCell id="uYn2vARg8Lsxyviq5lug-16" value="" style="shape=table;html=1;whiteSpace=wrap;startSize=0;container=1;collapsible=0;childLayout=tableLayout;strokeWidth=2;" vertex="1" parent="A3QuiD0QlyfGWGZbePQw-1">
          <mxGeometry x="310" y="680" width="515" height="81" as="geometry" />
        </mxCell>
        <mxCell id="uYn2vARg8Lsxyviq5lug-17" value="" style="shape=tableRow;horizontal=0;startSize=0;swimlaneHead=0;swimlaneBody=0;top=0;left=0;bottom=0;right=0;collapsible=0;dropTarget=0;fillColor=none;points=[[0,0.5],[1,0.5]];portConstraint=eastwest;" vertex="1" parent="uYn2vARg8Lsxyviq5lug-16">
          <mxGeometry width="515" height="30" as="geometry" />
        </mxCell>
        <mxCell id="uYn2vARg8Lsxyviq5lug-18" value="First Name" style="shape=partialRectangle;html=1;whiteSpace=wrap;connectable=0;fillColor=none;top=0;left=0;bottom=0;right=0;overflow=hidden;fontStyle=1" vertex="1" parent="uYn2vARg8Lsxyviq5lug-17">
          <mxGeometry width="258" height="30" as="geometry">
            <mxRectangle width="258" height="30" as="alternateBounds" />
          </mxGeometry>
        </mxCell>
        <mxCell id="uYn2vARg8Lsxyviq5lug-19" value="Social Name" style="shape=partialRectangle;html=1;whiteSpace=wrap;connectable=0;fillColor=none;top=0;left=0;bottom=0;right=0;overflow=hidden;fontStyle=1" vertex="1" parent="uYn2vARg8Lsxyviq5lug-17">
          <mxGeometry x="258" width="257" height="30" as="geometry">
            <mxRectangle width="257" height="30" as="alternateBounds" />
          </mxGeometry>
        </mxCell>
        <mxCell id="uYn2vARg8Lsxyviq5lug-20" value="" style="shape=tableRow;horizontal=0;startSize=0;swimlaneHead=0;swimlaneBody=0;top=0;left=0;bottom=0;right=0;collapsible=0;dropTarget=0;fillColor=none;points=[[0,0.5],[1,0.5]];portConstraint=eastwest;" vertex="1" parent="uYn2vARg8Lsxyviq5lug-16">
          <mxGeometry y="30" width="515" height="25" as="geometry" />
        </mxCell>
        <mxCell id="uYn2vARg8Lsxyviq5lug-21" value="xcsdfsd" style="shape=partialRectangle;html=1;whiteSpace=wrap;connectable=0;fillColor=none;top=0;left=0;bottom=0;right=0;overflow=hidden;" vertex="1" parent="uYn2vARg8Lsxyviq5lug-20">
          <mxGeometry width="258" height="25" as="geometry">
            <mxRectangle width="258" height="25" as="alternateBounds" />
          </mxGeometry>
        </mxCell>
        <mxCell id="uYn2vARg8Lsxyviq5lug-22" value="sss" style="shape=partialRectangle;html=1;whiteSpace=wrap;connectable=0;fillColor=none;top=0;left=0;bottom=0;right=0;overflow=hidden;" vertex="1" parent="uYn2vARg8Lsxyviq5lug-20">
          <mxGeometry x="258" width="257" height="25" as="geometry">
            <mxRectangle width="257" height="25" as="alternateBounds" />
          </mxGeometry>
        </mxCell>
        <mxCell id="uYn2vARg8Lsxyviq5lug-23" value="" style="shape=tableRow;horizontal=0;startSize=0;swimlaneHead=0;swimlaneBody=0;top=0;left=0;bottom=0;right=0;collapsible=0;dropTarget=0;fillColor=none;points=[[0,0.5],[1,0.5]];portConstraint=eastwest;" vertex="1" parent="uYn2vARg8Lsxyviq5lug-16">
          <mxGeometry y="55" width="515" height="26" as="geometry" />
        </mxCell>
        <mxCell id="uYn2vARg8Lsxyviq5lug-24" value="sdfsdf" style="shape=partialRectangle;html=1;whiteSpace=wrap;connectable=0;fillColor=none;top=0;left=0;bottom=0;right=0;overflow=hidden;" vertex="1" parent="uYn2vARg8Lsxyviq5lug-23">
          <mxGeometry width="258" height="26" as="geometry">
            <mxRectangle width="258" height="26" as="alternateBounds" />
          </mxGeometry>
        </mxCell>
        <mxCell id="uYn2vARg8Lsxyviq5lug-25" value="sdfsdf" style="shape=partialRectangle;html=1;whiteSpace=wrap;connectable=0;fillColor=none;top=0;left=0;bottom=0;right=0;overflow=hidden;" vertex="1" parent="uYn2vARg8Lsxyviq5lug-23">
          <mxGeometry x="258" width="257" height="26" as="geometry">
            <mxRectangle width="257" height="26" as="alternateBounds" />
          </mxGeometry>
        </mxCell>
        <mxCell id="uYn2vARg8Lsxyviq5lug-26" value="Cancel" style="strokeWidth=1;shadow=0;dashed=0;align=center;html=1;shape=mxgraph.mockup.buttons.button;strokeColor=#666666;fontColor=#ffffff;mainText=;buttonStyle=round;fontSize=17;fontStyle=1;fillColor=#008cff;whiteSpace=wrap;" vertex="1" parent="A3QuiD0QlyfGWGZbePQw-1">
          <mxGeometry x="420" y="585" width="150" height="30" as="geometry" />
        </mxCell>
        <mxCell id="uYn2vARg8Lsxyviq5lug-27" value="Find" style="strokeWidth=1;shadow=0;dashed=0;align=center;html=1;shape=mxgraph.mockup.buttons.button;strokeColor=#666666;fontColor=#ffffff;mainText=;buttonStyle=round;fontSize=17;fontStyle=1;fillColor=#008cff;whiteSpace=wrap;" vertex="1" parent="A3QuiD0QlyfGWGZbePQw-1">
          <mxGeometry x="690" y="640" width="150" height="30" as="geometry" />
        </mxCell>
        <mxCell id="uYn2vARg8Lsxyviq5lug-28" value="Social Name" style="strokeWidth=1;shadow=0;dashed=0;align=center;html=1;shape=mxgraph.mockup.forms.comboBox;strokeColor=#999999;fillColor=#ddeeff;align=left;fillColor2=#aaddff;mainText=;fontColor=#666666;fontSize=17;spacingLeft=3;" vertex="1" parent="A3QuiD0QlyfGWGZbePQw-1">
          <mxGeometry x="310" y="640" width="150" height="30" as="geometry" />
        </mxCell>
        <mxCell id="uYn2vARg8Lsxyviq5lug-29" value="" style="strokeWidth=1;shadow=0;dashed=0;align=center;html=1;shape=mxgraph.mockup.text.textBox;fontColor=#666666;align=left;fontSize=17;spacingLeft=4;spacingTop=-3;whiteSpace=wrap;strokeColor=#666666;mainText=" vertex="1" parent="A3QuiD0QlyfGWGZbePQw-1">
          <mxGeometry x="420" y="205" width="370" height="30" as="geometry" />
        </mxCell>
        <mxCell id="uYn2vARg8Lsxyviq5lug-30" value="Active user" style="text;html=1;points=[];align=right;verticalAlign=top;spacingTop=-4;fontSize=14;fontFamily=Verdana" vertex="1" parent="A3QuiD0QlyfGWGZbePQw-1">
          <mxGeometry x="300" y="540" width="110" height="20" as="geometry" />
        </mxCell>
        <mxCell id="uYn2vARg8Lsxyviq5lug-31" value="Yes" style="strokeWidth=1;shadow=0;dashed=0;align=center;html=1;shape=mxgraph.mockup.forms.comboBox;strokeColor=#999999;fillColor=#ddeeff;align=left;fillColor2=#aaddff;mainText=;fontColor=#666666;fontSize=17;spacingLeft=3;" vertex="1" parent="A3QuiD0QlyfGWGZbePQw-1">
          <mxGeometry x="420" y="535" width="370" height="30" as="geometry" />
        </mxCell>
        <mxCell id="uYn2vARg8Lsxyviq5lug-32" value="Gender" style="text;html=1;points=[];align=right;verticalAlign=top;spacingTop=-4;fontSize=14;fontFamily=Verdana" vertex="1" parent="A3QuiD0QlyfGWGZbePQw-1">
          <mxGeometry x="300" y="455" width="110" height="20" as="geometry" />
        </mxCell>
        <mxCell id="uYn2vARg8Lsxyviq5lug-33" value="Female" style="strokeWidth=1;shadow=0;dashed=0;align=center;html=1;shape=mxgraph.mockup.forms.comboBox;strokeColor=#999999;fillColor=#ddeeff;align=left;fillColor2=#aaddff;mainText=;fontColor=#666666;fontSize=17;spacingLeft=3;" vertex="1" parent="A3QuiD0QlyfGWGZbePQw-1">
          <mxGeometry x="420" y="450" width="370" height="30" as="geometry" />
        </mxCell>
        <mxCell id="uYn2vARg8Lsxyviq5lug-34" value="Sexual Orientation" style="text;html=1;points=[];align=right;verticalAlign=top;spacingTop=-4;fontSize=14;fontFamily=Verdana" vertex="1" parent="A3QuiD0QlyfGWGZbePQw-1">
          <mxGeometry x="300" y="495" width="110" height="20" as="geometry" />
        </mxCell>
        <mxCell id="uYn2vARg8Lsxyviq5lug-35" value="Homo" style="strokeWidth=1;shadow=0;dashed=0;align=center;html=1;shape=mxgraph.mockup.forms.comboBox;strokeColor=#999999;fillColor=#ddeeff;align=left;fillColor2=#aaddff;mainText=;fontColor=#666666;fontSize=17;spacingLeft=3;" vertex="1" parent="A3QuiD0QlyfGWGZbePQw-1">
          <mxGeometry x="420" y="490" width="370" height="30" as="geometry" />
        </mxCell>
      </root>
    </mxGraphModel>
  </diagram>
  <diagram name="Inverview Module - Interview Scheduling" id="bRZndFxtGsBL4ehuszCe">
    <mxGraphModel dx="1259" dy="620" grid="1" gridSize="10" guides="1" tooltips="1" connect="1" arrows="1" fold="1" page="1" pageScale="1" pageWidth="1100" pageHeight="850" background="none" math="0" shadow="0">
      <root>
        <mxCell id="0wDjSmzweCJpXKAddIcg-0" />
        <mxCell id="0wDjSmzweCJpXKAddIcg-1" parent="0wDjSmzweCJpXKAddIcg-0" />
        <mxCell id="0wDjSmzweCJpXKAddIcg-2" value="" style="whiteSpace=wrap;html=1;rounded=0;shadow=0;labelBackgroundColor=none;strokeColor=#000000;strokeWidth=1;fillColor=none;fontFamily=Verdana;fontSize=12;fontColor=#000000;align=center;comic=1;" vertex="1" parent="0wDjSmzweCJpXKAddIcg-1">
          <mxGeometry x="20" y="20" width="1060" height="810" as="geometry" />
        </mxCell>
        <mxCell id="0wDjSmzweCJpXKAddIcg-3" value="IAT" style="whiteSpace=wrap;html=1;rounded=0;shadow=0;labelBackgroundColor=none;strokeWidth=1;fontFamily=Verdana;fontSize=28;align=center;comic=1;" vertex="1" parent="0wDjSmzweCJpXKAddIcg-1">
          <mxGeometry x="30" y="80" width="200" height="50" as="geometry" />
        </mxCell>
        <mxCell id="0wDjSmzweCJpXKAddIcg-4" value="" style="whiteSpace=wrap;html=1;rounded=0;shadow=0;labelBackgroundColor=none;strokeWidth=1;fillColor=none;fontFamily=Verdana;fontSize=12;align=center;comic=1;" vertex="1" parent="0wDjSmzweCJpXKAddIcg-1">
          <mxGeometry x="30" y="130" width="200" height="680" as="geometry" />
        </mxCell>
        <mxCell id="0wDjSmzweCJpXKAddIcg-5" value="" style="whiteSpace=wrap;html=1;rounded=0;shadow=0;labelBackgroundColor=none;strokeWidth=1;fillColor=none;fontFamily=Verdana;fontSize=12;align=center;comic=1;" vertex="1" parent="0wDjSmzweCJpXKAddIcg-1">
          <mxGeometry x="230" y="80" width="840" height="50" as="geometry" />
        </mxCell>
        <mxCell id="0wDjSmzweCJpXKAddIcg-6" value="About" style="text;html=1;points=[];align=left;verticalAlign=top;spacingTop=-4;fontSize=14;fontFamily=Verdana" vertex="1" parent="0wDjSmzweCJpXKAddIcg-1">
          <mxGeometry x="970" y="95" width="60" height="20" as="geometry" />
        </mxCell>
        <mxCell id="0wDjSmzweCJpXKAddIcg-7" value="Interview Module" style="text;html=1;points=[];align=left;verticalAlign=top;spacingTop=-4;fontSize=14;fontFamily=Verdana" vertex="1" parent="0wDjSmzweCJpXKAddIcg-1">
          <mxGeometry x="490" width="170" height="20" as="geometry" />
        </mxCell>
        <mxCell id="0wDjSmzweCJpXKAddIcg-8" value="Home" style="text;html=1;points=[];align=left;verticalAlign=top;spacingTop=-4;fontSize=14;fontFamily=Verdana" vertex="1" parent="0wDjSmzweCJpXKAddIcg-1">
          <mxGeometry x="50" y="205" width="170" height="20" as="geometry" />
        </mxCell>
        <mxCell id="0wDjSmzweCJpXKAddIcg-9" value="Mgmt of Interviewees" style="text;html=1;points=[];align=left;verticalAlign=top;spacingTop=-4;fontSize=14;fontFamily=Verdana" vertex="1" parent="0wDjSmzweCJpXKAddIcg-1">
          <mxGeometry x="50" y="240" width="170" height="20" as="geometry" />
        </mxCell>
        <mxCell id="0wDjSmzweCJpXKAddIcg-10" value="Interview Scheduling" style="text;html=1;points=[];align=left;verticalAlign=top;spacingTop=-4;fontSize=14;fontFamily=Verdana;fontStyle=1" vertex="1" parent="0wDjSmzweCJpXKAddIcg-1">
          <mxGeometry x="50" y="276" width="170" height="20" as="geometry" />
        </mxCell>
        <mxCell id="0wDjSmzweCJpXKAddIcg-11" value="" style="whiteSpace=wrap;html=1;rounded=0;shadow=0;labelBackgroundColor=none;strokeWidth=1;fillColor=none;fontFamily=Verdana;fontSize=12;align=center;comic=1;" vertex="1" parent="0wDjSmzweCJpXKAddIcg-1">
          <mxGeometry x="30" y="40" width="1040" height="30" as="geometry" />
        </mxCell>
        <mxCell id="0wDjSmzweCJpXKAddIcg-12" value="HTTPS://localhost" style="text;html=1;points=[];align=left;verticalAlign=top;spacingTop=-4;fontSize=14;fontFamily=Verdana" vertex="1" parent="0wDjSmzweCJpXKAddIcg-1">
          <mxGeometry x="40" y="45" width="170" height="20" as="geometry" />
        </mxCell>
        <mxCell id="0wDjSmzweCJpXKAddIcg-13" value="&lt;b&gt;Management of Interviewees&lt;/b&gt;" style="text;html=1;points=[];align=left;verticalAlign=top;spacingTop=-4;fontSize=14;fontFamily=Verdana" vertex="1" parent="0wDjSmzweCJpXKAddIcg-1">
          <mxGeometry x="300" y="170" width="170" height="20" as="geometry" />
        </mxCell>
        <mxCell id="0wDjSmzweCJpXKAddIcg-14" value="Mgmt of Calendar" style="text;html=1;points=[];align=left;verticalAlign=top;spacingTop=-4;fontSize=14;fontFamily=Verdana" vertex="1" parent="0wDjSmzweCJpXKAddIcg-1">
          <mxGeometry x="50" y="310" width="170" height="20" as="geometry" />
        </mxCell>
        <mxCell id="0wDjSmzweCJpXKAddIcg-15" value="Management of Audio" style="text;html=1;points=[];align=left;verticalAlign=top;spacingTop=-4;fontSize=14;fontFamily=Verdana" vertex="1" parent="0wDjSmzweCJpXKAddIcg-1">
          <mxGeometry x="50" y="350" width="170" height="20" as="geometry" />
        </mxCell>
        <mxCell id="0wDjSmzweCJpXKAddIcg-16" value="Audio Transcription" style="text;html=1;points=[];align=left;verticalAlign=top;spacingTop=-4;fontSize=14;fontFamily=Verdana" vertex="1" parent="0wDjSmzweCJpXKAddIcg-1">
          <mxGeometry x="50" y="390" width="170" height="20" as="geometry" />
        </mxCell>
        <mxCell id="0wDjSmzweCJpXKAddIcg-17" value="" style="verticalLabelPosition=bottom;shadow=0;dashed=0;align=center;html=1;verticalAlign=top;strokeWidth=1;shape=mxgraph.mockup.graphics.simpleIcon;strokeColor=#999999;rounded=0;labelBackgroundColor=none;fontFamily=Verdana;fontSize=14;fontColor=#000000;comic=1;" vertex="1" parent="0wDjSmzweCJpXKAddIcg-1">
          <mxGeometry x="250" y="150" width="790" height="660" as="geometry" />
        </mxCell>
        <mxCell id="0wDjSmzweCJpXKAddIcg-18" value="" style="whiteSpace=wrap;html=1;rounded=0;shadow=0;labelBackgroundColor=none;strokeWidth=1;fillColor=none;fontFamily=Verdana;fontSize=12;align=center;comic=1;" vertex="1" parent="0wDjSmzweCJpXKAddIcg-1">
          <mxGeometry x="270" y="630" width="583" height="160" as="geometry" />
        </mxCell>
        <mxCell id="0wDjSmzweCJpXKAddIcg-19" value="&lt;b&gt;Interview Scheduling - Appointments&lt;br&gt;&lt;/b&gt;" style="text;html=1;points=[];align=left;verticalAlign=top;spacingTop=-4;fontSize=14;fontFamily=Verdana" vertex="1" parent="0wDjSmzweCJpXKAddIcg-1">
          <mxGeometry x="300" y="170" width="170" height="20" as="geometry" />
        </mxCell>
        <mxCell id="0wDjSmzweCJpXKAddIcg-20" value="" style="strokeWidth=1;shadow=0;dashed=0;align=center;html=1;shape=mxgraph.mockup.text.textBox;fontColor=#666666;align=left;fontSize=17;spacingLeft=4;spacingTop=-3;whiteSpace=wrap;strokeColor=#666666;mainText=" vertex="1" parent="0wDjSmzweCJpXKAddIcg-1">
          <mxGeometry x="477.5" y="640" width="180" height="30" as="geometry" />
        </mxCell>
        <mxCell id="0wDjSmzweCJpXKAddIcg-21" value="First Name" style="text;html=1;points=[];align=right;verticalAlign=top;spacingTop=-4;fontSize=14;fontFamily=Verdana;fontColor=#9d9d9d;" vertex="1" parent="0wDjSmzweCJpXKAddIcg-1">
          <mxGeometry x="300" y="210" width="110" height="20" as="geometry" />
        </mxCell>
        <mxCell id="0wDjSmzweCJpXKAddIcg-22" value="" style="strokeWidth=1;shadow=0;dashed=0;align=center;html=1;shape=mxgraph.mockup.text.textBox;fontColor=#000000;align=left;fontSize=17;spacingLeft=4;spacingTop=-3;whiteSpace=wrap;strokeColor=#666666;mainText=" vertex="1" parent="0wDjSmzweCJpXKAddIcg-1">
          <mxGeometry x="420" y="440" width="370" height="30" as="geometry" />
        </mxCell>
        <mxCell id="0wDjSmzweCJpXKAddIcg-23" value="Place" style="text;html=1;points=[];align=right;verticalAlign=top;spacingTop=-4;fontSize=14;fontFamily=Verdana;fontColor=#0D0D0D;" vertex="1" parent="0wDjSmzweCJpXKAddIcg-1">
          <mxGeometry x="300" y="450" width="110" height="20" as="geometry" />
        </mxCell>
        <mxCell id="0wDjSmzweCJpXKAddIcg-24" value="" style="strokeWidth=1;shadow=0;dashed=0;align=center;html=1;shape=mxgraph.mockup.text.textBox;fontColor=#666666;align=left;fontSize=17;spacingLeft=4;spacingTop=-3;whiteSpace=wrap;strokeColor=#666666;mainText=" vertex="1" parent="0wDjSmzweCJpXKAddIcg-1">
          <mxGeometry x="420" y="250" width="370" height="30" as="geometry" />
        </mxCell>
        <mxCell id="0wDjSmzweCJpXKAddIcg-25" value="Social Name" style="text;html=1;points=[];align=right;verticalAlign=top;spacingTop=-4;fontSize=14;fontFamily=Verdana;fontColor=#9d9d9d;" vertex="1" parent="0wDjSmzweCJpXKAddIcg-1">
          <mxGeometry x="300" y="260" width="110" height="20" as="geometry" />
        </mxCell>
        <mxCell id="0wDjSmzweCJpXKAddIcg-26" value="" style="strokeWidth=1;shadow=0;dashed=0;align=center;html=1;shape=mxgraph.mockup.text.textBox;fontColor=#666666;align=left;fontSize=17;spacingLeft=4;spacingTop=-3;whiteSpace=wrap;strokeColor=#666666;mainText=" vertex="1" parent="0wDjSmzweCJpXKAddIcg-1">
          <mxGeometry x="420" y="296" width="370" height="30" as="geometry" />
        </mxCell>
        <mxCell id="0wDjSmzweCJpXKAddIcg-27" value="E-mail" style="text;html=1;points=[];align=right;verticalAlign=top;spacingTop=-4;fontSize=14;fontFamily=Verdana;fontColor=#9d9d9d;" vertex="1" parent="0wDjSmzweCJpXKAddIcg-1">
          <mxGeometry x="300" y="306" width="110" height="20" as="geometry" />
        </mxCell>
        <mxCell id="0wDjSmzweCJpXKAddIcg-28" value="" style="strokeWidth=1;shadow=0;dashed=0;align=center;html=1;shape=mxgraph.mockup.text.textBox;fontColor=#666666;align=left;fontSize=17;spacingLeft=4;spacingTop=-3;whiteSpace=wrap;strokeColor=#666666;mainText=" vertex="1" parent="0wDjSmzweCJpXKAddIcg-1">
          <mxGeometry x="420" y="340" width="370" height="30" as="geometry" />
        </mxCell>
        <mxCell id="0wDjSmzweCJpXKAddIcg-29" value="Mobile Number" style="text;html=1;points=[];align=right;verticalAlign=top;spacingTop=-4;fontSize=14;fontFamily=Verdana;fontColor=#9d9d9d;" vertex="1" parent="0wDjSmzweCJpXKAddIcg-1">
          <mxGeometry x="300" y="350" width="110" height="20" as="geometry" />
        </mxCell>
        <mxCell id="0wDjSmzweCJpXKAddIcg-30" value="Save" style="strokeWidth=1;shadow=0;dashed=0;align=center;html=1;shape=mxgraph.mockup.buttons.button;strokeColor=#666666;fontColor=#ffffff;mainText=;buttonStyle=round;fontSize=17;fontStyle=1;fillColor=#008cff;whiteSpace=wrap;" vertex="1" parent="0wDjSmzweCJpXKAddIcg-1">
          <mxGeometry x="640" y="570" width="150" height="30" as="geometry" />
        </mxCell>
        <mxCell id="0wDjSmzweCJpXKAddIcg-31" value="" style="shape=table;html=1;whiteSpace=wrap;startSize=0;container=1;collapsible=0;childLayout=tableLayout;strokeWidth=2;" vertex="1" parent="0wDjSmzweCJpXKAddIcg-1">
          <mxGeometry x="310" y="680" width="515" height="81" as="geometry" />
        </mxCell>
        <mxCell id="0wDjSmzweCJpXKAddIcg-32" value="" style="shape=tableRow;horizontal=0;startSize=0;swimlaneHead=0;swimlaneBody=0;top=0;left=0;bottom=0;right=0;collapsible=0;dropTarget=0;fillColor=none;points=[[0,0.5],[1,0.5]];portConstraint=eastwest;" vertex="1" parent="0wDjSmzweCJpXKAddIcg-31">
          <mxGeometry width="515" height="30" as="geometry" />
        </mxCell>
        <mxCell id="0wDjSmzweCJpXKAddIcg-33" value="First Name" style="shape=partialRectangle;html=1;whiteSpace=wrap;connectable=0;fillColor=none;top=0;left=0;bottom=0;right=0;overflow=hidden;fontStyle=1" vertex="1" parent="0wDjSmzweCJpXKAddIcg-32">
          <mxGeometry width="258" height="30" as="geometry">
            <mxRectangle width="258" height="30" as="alternateBounds" />
          </mxGeometry>
        </mxCell>
        <mxCell id="0wDjSmzweCJpXKAddIcg-34" value="Social Name" style="shape=partialRectangle;html=1;whiteSpace=wrap;connectable=0;fillColor=none;top=0;left=0;bottom=0;right=0;overflow=hidden;fontStyle=1" vertex="1" parent="0wDjSmzweCJpXKAddIcg-32">
          <mxGeometry x="258" width="257" height="30" as="geometry">
            <mxRectangle width="257" height="30" as="alternateBounds" />
          </mxGeometry>
        </mxCell>
        <mxCell id="0wDjSmzweCJpXKAddIcg-35" value="" style="shape=tableRow;horizontal=0;startSize=0;swimlaneHead=0;swimlaneBody=0;top=0;left=0;bottom=0;right=0;collapsible=0;dropTarget=0;fillColor=none;points=[[0,0.5],[1,0.5]];portConstraint=eastwest;" vertex="1" parent="0wDjSmzweCJpXKAddIcg-31">
          <mxGeometry y="30" width="515" height="25" as="geometry" />
        </mxCell>
        <mxCell id="0wDjSmzweCJpXKAddIcg-36" value="xcsdfsd" style="shape=partialRectangle;html=1;whiteSpace=wrap;connectable=0;fillColor=none;top=0;left=0;bottom=0;right=0;overflow=hidden;" vertex="1" parent="0wDjSmzweCJpXKAddIcg-35">
          <mxGeometry width="258" height="25" as="geometry">
            <mxRectangle width="258" height="25" as="alternateBounds" />
          </mxGeometry>
        </mxCell>
        <mxCell id="0wDjSmzweCJpXKAddIcg-37" value="sss" style="shape=partialRectangle;html=1;whiteSpace=wrap;connectable=0;fillColor=none;top=0;left=0;bottom=0;right=0;overflow=hidden;" vertex="1" parent="0wDjSmzweCJpXKAddIcg-35">
          <mxGeometry x="258" width="257" height="25" as="geometry">
            <mxRectangle width="257" height="25" as="alternateBounds" />
          </mxGeometry>
        </mxCell>
        <mxCell id="0wDjSmzweCJpXKAddIcg-38" value="" style="shape=tableRow;horizontal=0;startSize=0;swimlaneHead=0;swimlaneBody=0;top=0;left=0;bottom=0;right=0;collapsible=0;dropTarget=0;fillColor=none;points=[[0,0.5],[1,0.5]];portConstraint=eastwest;" vertex="1" parent="0wDjSmzweCJpXKAddIcg-31">
          <mxGeometry y="55" width="515" height="26" as="geometry" />
        </mxCell>
        <mxCell id="0wDjSmzweCJpXKAddIcg-39" value="sdfsdf" style="shape=partialRectangle;html=1;whiteSpace=wrap;connectable=0;fillColor=none;top=0;left=0;bottom=0;right=0;overflow=hidden;" vertex="1" parent="0wDjSmzweCJpXKAddIcg-38">
          <mxGeometry width="258" height="26" as="geometry">
            <mxRectangle width="258" height="26" as="alternateBounds" />
          </mxGeometry>
        </mxCell>
        <mxCell id="0wDjSmzweCJpXKAddIcg-40" value="sdfsdf" style="shape=partialRectangle;html=1;whiteSpace=wrap;connectable=0;fillColor=none;top=0;left=0;bottom=0;right=0;overflow=hidden;" vertex="1" parent="0wDjSmzweCJpXKAddIcg-38">
          <mxGeometry x="258" width="257" height="26" as="geometry">
            <mxRectangle width="257" height="26" as="alternateBounds" />
          </mxGeometry>
        </mxCell>
        <mxCell id="0wDjSmzweCJpXKAddIcg-41" value="Cancel" style="strokeWidth=1;shadow=0;dashed=0;align=center;html=1;shape=mxgraph.mockup.buttons.button;strokeColor=#666666;fontColor=#ffffff;mainText=;buttonStyle=round;fontSize=17;fontStyle=1;fillColor=#008cff;whiteSpace=wrap;" vertex="1" parent="0wDjSmzweCJpXKAddIcg-1">
          <mxGeometry x="420" y="570" width="150" height="30" as="geometry" />
        </mxCell>
        <mxCell id="0wDjSmzweCJpXKAddIcg-42" value="Find" style="strokeWidth=1;shadow=0;dashed=0;align=center;html=1;shape=mxgraph.mockup.buttons.button;strokeColor=#666666;fontColor=#ffffff;mainText=;buttonStyle=round;fontSize=17;fontStyle=1;fillColor=#008cff;whiteSpace=wrap;" vertex="1" parent="0wDjSmzweCJpXKAddIcg-1">
          <mxGeometry x="690" y="640" width="150" height="30" as="geometry" />
        </mxCell>
        <mxCell id="0wDjSmzweCJpXKAddIcg-43" value="Social Name" style="strokeWidth=1;shadow=0;dashed=0;align=center;html=1;shape=mxgraph.mockup.forms.comboBox;strokeColor=#999999;fillColor=#ddeeff;align=left;fillColor2=#aaddff;mainText=;fontColor=#666666;fontSize=17;spacingLeft=3;" vertex="1" parent="0wDjSmzweCJpXKAddIcg-1">
          <mxGeometry x="310" y="640" width="150" height="30" as="geometry" />
        </mxCell>
        <mxCell id="0wDjSmzweCJpXKAddIcg-44" value="" style="strokeWidth=1;shadow=0;dashed=0;align=center;html=1;shape=mxgraph.mockup.text.textBox;fontColor=#666666;align=left;fontSize=17;spacingLeft=4;spacingTop=-3;whiteSpace=wrap;strokeColor=#666666;mainText=" vertex="1" parent="0wDjSmzweCJpXKAddIcg-1">
          <mxGeometry x="420" y="205" width="370" height="30" as="geometry" />
        </mxCell>
        <mxCell id="0wDjSmzweCJpXKAddIcg-47" value="Gender" style="text;html=1;points=[];align=right;verticalAlign=top;spacingTop=-4;fontSize=14;fontFamily=Verdana;fontColor=#9d9d9d;" vertex="1" parent="0wDjSmzweCJpXKAddIcg-1">
          <mxGeometry x="300" y="395" width="110" height="20" as="geometry" />
        </mxCell>
        <mxCell id="0wDjSmzweCJpXKAddIcg-48" value="Female" style="strokeWidth=1;shadow=0;dashed=0;align=center;html=1;shape=mxgraph.mockup.forms.comboBox;strokeColor=#999999;fillColor=#ddeeff;align=left;fillColor2=#aaddff;mainText=;fontColor=#808080;fontSize=17;spacingLeft=3;" vertex="1" parent="0wDjSmzweCJpXKAddIcg-1">
          <mxGeometry x="420" y="390" width="370" height="30" as="geometry" />
        </mxCell>
        <mxCell id="Gp6astyjEnpC78g46QJ2-1" value="Date" style="text;html=1;points=[];align=right;verticalAlign=top;spacingTop=-4;fontSize=14;fontFamily=Verdana" vertex="1" parent="0wDjSmzweCJpXKAddIcg-1">
          <mxGeometry x="300" y="485" width="110" height="20" as="geometry" />
        </mxCell>
        <mxCell id="Gp6astyjEnpC78g46QJ2-2" value="00/00/0000" style="strokeWidth=1;shadow=0;dashed=0;align=center;html=1;shape=mxgraph.mockup.text.textBox;fontColor=#000000;align=left;fontSize=17;spacingLeft=4;spacingTop=-3;whiteSpace=wrap;strokeColor=#666666;mainText=" vertex="1" parent="0wDjSmzweCJpXKAddIcg-1">
          <mxGeometry x="420" y="480" width="100" height="30" as="geometry" />
        </mxCell>
        <mxCell id="Gp6astyjEnpC78g46QJ2-3" value="Hour" style="text;html=1;points=[];align=right;verticalAlign=top;spacingTop=-4;fontSize=14;fontFamily=Verdana" vertex="1" parent="0wDjSmzweCJpXKAddIcg-1">
          <mxGeometry x="580" y="490" width="110" height="20" as="geometry" />
        </mxCell>
        <mxCell id="Gp6astyjEnpC78g46QJ2-4" value="18:30 hs" style="strokeWidth=1;shadow=0;dashed=0;align=center;html=1;shape=mxgraph.mockup.text.textBox;fontColor=#0D0D0D;align=left;fontSize=17;spacingLeft=4;spacingTop=-3;whiteSpace=wrap;strokeColor=#666666;mainText=" vertex="1" parent="0wDjSmzweCJpXKAddIcg-1">
          <mxGeometry x="700" y="480" width="100" height="30" as="geometry" />
        </mxCell>
        <mxCell id="92iTGOnUh91EPNe_qUFn-1" value="Canceled" style="strokeWidth=1;shadow=0;dashed=0;align=center;html=1;shape=mxgraph.mockup.forms.comboBox;strokeColor=#999999;fillColor=#ddeeff;align=left;fillColor2=#aaddff;mainText=;fontColor=#0D0D0D;fontSize=17;spacingLeft=3;" vertex="1" parent="0wDjSmzweCJpXKAddIcg-1">
          <mxGeometry x="420" y="525" width="370" height="30" as="geometry" />
        </mxCell>
        <mxCell id="92iTGOnUh91EPNe_qUFn-2" value="Status" style="text;html=1;points=[];align=right;verticalAlign=top;spacingTop=-4;fontSize=14;fontFamily=Verdana" vertex="1" parent="0wDjSmzweCJpXKAddIcg-1">
          <mxGeometry x="300" y="530" width="110" height="20" as="geometry" />
        </mxCell>
      </root>
    </mxGraphModel>
  </diagram>
  <diagram name="Inverview Module - Management of Calendar" id="MabMYo7L0o6GMIImsb9q">
    <mxGraphModel dx="1355" dy="668" grid="1" gridSize="10" guides="1" tooltips="1" connect="1" arrows="1" fold="1" page="1" pageScale="1" pageWidth="1100" pageHeight="850" background="none" math="0" shadow="0">
      <root>
        <mxCell id="LYRZQWKn97uzAMpDcZIB-0" />
        <mxCell id="LYRZQWKn97uzAMpDcZIB-1" parent="LYRZQWKn97uzAMpDcZIB-0" />
        <mxCell id="LYRZQWKn97uzAMpDcZIB-2" value="" style="whiteSpace=wrap;html=1;rounded=0;shadow=0;labelBackgroundColor=none;strokeColor=#000000;strokeWidth=1;fillColor=none;fontFamily=Verdana;fontSize=12;fontColor=#000000;align=center;comic=1;" vertex="1" parent="LYRZQWKn97uzAMpDcZIB-1">
          <mxGeometry x="20" y="20" width="1060" height="810" as="geometry" />
        </mxCell>
        <mxCell id="LYRZQWKn97uzAMpDcZIB-3" value="IAT" style="whiteSpace=wrap;html=1;rounded=0;shadow=0;labelBackgroundColor=none;strokeWidth=1;fontFamily=Verdana;fontSize=28;align=center;comic=1;" vertex="1" parent="LYRZQWKn97uzAMpDcZIB-1">
          <mxGeometry x="30" y="80" width="200" height="50" as="geometry" />
        </mxCell>
        <mxCell id="LYRZQWKn97uzAMpDcZIB-4" value="" style="whiteSpace=wrap;html=1;rounded=0;shadow=0;labelBackgroundColor=none;strokeWidth=1;fillColor=none;fontFamily=Verdana;fontSize=12;align=center;comic=1;" vertex="1" parent="LYRZQWKn97uzAMpDcZIB-1">
          <mxGeometry x="30" y="130" width="200" height="680" as="geometry" />
        </mxCell>
        <mxCell id="LYRZQWKn97uzAMpDcZIB-5" value="" style="whiteSpace=wrap;html=1;rounded=0;shadow=0;labelBackgroundColor=none;strokeWidth=1;fillColor=none;fontFamily=Verdana;fontSize=12;align=center;comic=1;" vertex="1" parent="LYRZQWKn97uzAMpDcZIB-1">
          <mxGeometry x="230" y="80" width="840" height="50" as="geometry" />
        </mxCell>
        <mxCell id="LYRZQWKn97uzAMpDcZIB-6" value="About" style="text;html=1;points=[];align=left;verticalAlign=top;spacingTop=-4;fontSize=14;fontFamily=Verdana" vertex="1" parent="LYRZQWKn97uzAMpDcZIB-1">
          <mxGeometry x="970" y="95" width="60" height="20" as="geometry" />
        </mxCell>
        <mxCell id="LYRZQWKn97uzAMpDcZIB-7" value="Interview Module" style="text;html=1;points=[];align=left;verticalAlign=top;spacingTop=-4;fontSize=14;fontFamily=Verdana" vertex="1" parent="LYRZQWKn97uzAMpDcZIB-1">
          <mxGeometry x="490" width="170" height="20" as="geometry" />
        </mxCell>
        <mxCell id="LYRZQWKn97uzAMpDcZIB-8" value="Home" style="text;html=1;points=[];align=left;verticalAlign=top;spacingTop=-4;fontSize=14;fontFamily=Verdana" vertex="1" parent="LYRZQWKn97uzAMpDcZIB-1">
          <mxGeometry x="50" y="205" width="170" height="20" as="geometry" />
        </mxCell>
        <mxCell id="LYRZQWKn97uzAMpDcZIB-9" value="Mgmt of Interviewees" style="text;html=1;points=[];align=left;verticalAlign=top;spacingTop=-4;fontSize=14;fontFamily=Verdana" vertex="1" parent="LYRZQWKn97uzAMpDcZIB-1">
          <mxGeometry x="50" y="240" width="170" height="20" as="geometry" />
        </mxCell>
        <mxCell id="LYRZQWKn97uzAMpDcZIB-10" value="Interview Scheduling" style="text;html=1;points=[];align=left;verticalAlign=top;spacingTop=-4;fontSize=14;fontFamily=Verdana" vertex="1" parent="LYRZQWKn97uzAMpDcZIB-1">
          <mxGeometry x="50" y="276" width="170" height="20" as="geometry" />
        </mxCell>
        <mxCell id="LYRZQWKn97uzAMpDcZIB-11" value="" style="whiteSpace=wrap;html=1;rounded=0;shadow=0;labelBackgroundColor=none;strokeWidth=1;fillColor=none;fontFamily=Verdana;fontSize=12;align=center;comic=1;" vertex="1" parent="LYRZQWKn97uzAMpDcZIB-1">
          <mxGeometry x="30" y="40" width="1040" height="30" as="geometry" />
        </mxCell>
        <mxCell id="LYRZQWKn97uzAMpDcZIB-12" value="HTTPS://localhost" style="text;html=1;points=[];align=left;verticalAlign=top;spacingTop=-4;fontSize=14;fontFamily=Verdana" vertex="1" parent="LYRZQWKn97uzAMpDcZIB-1">
          <mxGeometry x="40" y="45" width="170" height="20" as="geometry" />
        </mxCell>
        <mxCell id="LYRZQWKn97uzAMpDcZIB-13" value="&lt;b&gt;Management of Interviewees&lt;/b&gt;" style="text;html=1;points=[];align=left;verticalAlign=top;spacingTop=-4;fontSize=14;fontFamily=Verdana" vertex="1" parent="LYRZQWKn97uzAMpDcZIB-1">
          <mxGeometry x="300" y="170" width="170" height="20" as="geometry" />
        </mxCell>
        <mxCell id="LYRZQWKn97uzAMpDcZIB-14" value="Mgmt of Calendar" style="text;html=1;points=[];align=left;verticalAlign=top;spacingTop=-4;fontSize=14;fontFamily=Verdana;fontStyle=1" vertex="1" parent="LYRZQWKn97uzAMpDcZIB-1">
          <mxGeometry x="50" y="310" width="170" height="20" as="geometry" />
        </mxCell>
        <mxCell id="LYRZQWKn97uzAMpDcZIB-15" value="Management of Audio" style="text;html=1;points=[];align=left;verticalAlign=top;spacingTop=-4;fontSize=14;fontFamily=Verdana" vertex="1" parent="LYRZQWKn97uzAMpDcZIB-1">
          <mxGeometry x="50" y="350" width="170" height="20" as="geometry" />
        </mxCell>
        <mxCell id="LYRZQWKn97uzAMpDcZIB-16" value="Audio Transcription" style="text;html=1;points=[];align=left;verticalAlign=top;spacingTop=-4;fontSize=14;fontFamily=Verdana" vertex="1" parent="LYRZQWKn97uzAMpDcZIB-1">
          <mxGeometry x="50" y="390" width="170" height="20" as="geometry" />
        </mxCell>
        <mxCell id="LYRZQWKn97uzAMpDcZIB-17" value="" style="verticalLabelPosition=bottom;shadow=0;dashed=0;align=center;html=1;verticalAlign=top;strokeWidth=1;shape=mxgraph.mockup.graphics.simpleIcon;strokeColor=#999999;rounded=0;labelBackgroundColor=none;fontFamily=Verdana;fontSize=14;fontColor=#000000;comic=1;" vertex="1" parent="LYRZQWKn97uzAMpDcZIB-1">
          <mxGeometry x="250" y="150" width="810" height="660" as="geometry" />
        </mxCell>
        <mxCell id="LYRZQWKn97uzAMpDcZIB-18" value="" style="whiteSpace=wrap;html=1;rounded=0;shadow=0;labelBackgroundColor=none;strokeWidth=1;fillColor=none;fontFamily=Verdana;fontSize=12;align=center;comic=1;" vertex="1" parent="LYRZQWKn97uzAMpDcZIB-1">
          <mxGeometry x="300" y="220" width="750" height="570" as="geometry" />
        </mxCell>
        <mxCell id="LYRZQWKn97uzAMpDcZIB-19" value="&lt;b&gt;Management of Calendar - Appointment&lt;br&gt;&lt;/b&gt;" style="text;html=1;points=[];align=left;verticalAlign=top;spacingTop=-4;fontSize=14;fontFamily=Verdana" vertex="1" parent="LYRZQWKn97uzAMpDcZIB-1">
          <mxGeometry x="300" y="170" width="170" height="20" as="geometry" />
        </mxCell>
        <mxCell id="LYRZQWKn97uzAMpDcZIB-20" value="" style="strokeWidth=1;shadow=0;dashed=0;align=center;html=1;shape=mxgraph.mockup.text.textBox;fontColor=#666666;align=left;fontSize=17;spacingLeft=4;spacingTop=-3;whiteSpace=wrap;strokeColor=#666666;mainText=" vertex="1" parent="LYRZQWKn97uzAMpDcZIB-1">
          <mxGeometry x="507.5" y="230" width="352.5" height="30" as="geometry" />
        </mxCell>
        <mxCell id="LYRZQWKn97uzAMpDcZIB-31" value="" style="shape=table;html=1;whiteSpace=wrap;startSize=0;container=1;collapsible=0;childLayout=tableLayout;strokeWidth=2;" vertex="1" parent="LYRZQWKn97uzAMpDcZIB-1">
          <mxGeometry x="320" y="279.75" width="240" height="81" as="geometry" />
        </mxCell>
        <mxCell id="LYRZQWKn97uzAMpDcZIB-32" value="" style="shape=tableRow;horizontal=0;startSize=0;swimlaneHead=0;swimlaneBody=0;top=0;left=0;bottom=0;right=0;collapsible=0;dropTarget=0;fillColor=none;points=[[0,0.5],[1,0.5]];portConstraint=eastwest;" vertex="1" parent="LYRZQWKn97uzAMpDcZIB-31">
          <mxGeometry width="240" height="30" as="geometry" />
        </mxCell>
        <mxCell id="LYRZQWKn97uzAMpDcZIB-33" value="First Name" style="shape=partialRectangle;html=1;whiteSpace=wrap;connectable=0;fillColor=none;top=0;left=0;bottom=0;right=0;overflow=hidden;fontStyle=1" vertex="1" parent="LYRZQWKn97uzAMpDcZIB-32">
          <mxGeometry width="120" height="30" as="geometry">
            <mxRectangle width="120" height="30" as="alternateBounds" />
          </mxGeometry>
        </mxCell>
        <mxCell id="LYRZQWKn97uzAMpDcZIB-34" value="Social Name" style="shape=partialRectangle;html=1;whiteSpace=wrap;connectable=0;fillColor=none;top=0;left=0;bottom=0;right=0;overflow=hidden;fontStyle=1" vertex="1" parent="LYRZQWKn97uzAMpDcZIB-32">
          <mxGeometry x="120" width="120" height="30" as="geometry">
            <mxRectangle width="120" height="30" as="alternateBounds" />
          </mxGeometry>
        </mxCell>
        <mxCell id="LYRZQWKn97uzAMpDcZIB-35" value="" style="shape=tableRow;horizontal=0;startSize=0;swimlaneHead=0;swimlaneBody=0;top=0;left=0;bottom=0;right=0;collapsible=0;dropTarget=0;fillColor=none;points=[[0,0.5],[1,0.5]];portConstraint=eastwest;" vertex="1" parent="LYRZQWKn97uzAMpDcZIB-31">
          <mxGeometry y="30" width="240" height="25" as="geometry" />
        </mxCell>
        <mxCell id="LYRZQWKn97uzAMpDcZIB-36" value="xcsdfsd" style="shape=partialRectangle;html=1;whiteSpace=wrap;connectable=0;fillColor=none;top=0;left=0;bottom=0;right=0;overflow=hidden;" vertex="1" parent="LYRZQWKn97uzAMpDcZIB-35">
          <mxGeometry width="120" height="25" as="geometry">
            <mxRectangle width="120" height="25" as="alternateBounds" />
          </mxGeometry>
        </mxCell>
        <mxCell id="LYRZQWKn97uzAMpDcZIB-37" value="sss" style="shape=partialRectangle;html=1;whiteSpace=wrap;connectable=0;fillColor=none;top=0;left=0;bottom=0;right=0;overflow=hidden;" vertex="1" parent="LYRZQWKn97uzAMpDcZIB-35">
          <mxGeometry x="120" width="120" height="25" as="geometry">
            <mxRectangle width="120" height="25" as="alternateBounds" />
          </mxGeometry>
        </mxCell>
        <mxCell id="LYRZQWKn97uzAMpDcZIB-38" value="" style="shape=tableRow;horizontal=0;startSize=0;swimlaneHead=0;swimlaneBody=0;top=0;left=0;bottom=0;right=0;collapsible=0;dropTarget=0;fillColor=none;points=[[0,0.5],[1,0.5]];portConstraint=eastwest;" vertex="1" parent="LYRZQWKn97uzAMpDcZIB-31">
          <mxGeometry y="55" width="240" height="26" as="geometry" />
        </mxCell>
        <mxCell id="LYRZQWKn97uzAMpDcZIB-39" value="sdfsdf" style="shape=partialRectangle;html=1;whiteSpace=wrap;connectable=0;fillColor=none;top=0;left=0;bottom=0;right=0;overflow=hidden;" vertex="1" parent="LYRZQWKn97uzAMpDcZIB-38">
          <mxGeometry width="120" height="26" as="geometry">
            <mxRectangle width="120" height="26" as="alternateBounds" />
          </mxGeometry>
        </mxCell>
        <mxCell id="LYRZQWKn97uzAMpDcZIB-40" value="sdfsdf" style="shape=partialRectangle;html=1;whiteSpace=wrap;connectable=0;fillColor=none;top=0;left=0;bottom=0;right=0;overflow=hidden;" vertex="1" parent="LYRZQWKn97uzAMpDcZIB-38">
          <mxGeometry x="120" width="120" height="26" as="geometry">
            <mxRectangle width="120" height="26" as="alternateBounds" />
          </mxGeometry>
        </mxCell>
        <mxCell id="LYRZQWKn97uzAMpDcZIB-42" value="Find" style="strokeWidth=1;shadow=0;dashed=0;align=center;html=1;shape=mxgraph.mockup.buttons.button;strokeColor=#666666;fontColor=#ffffff;mainText=;buttonStyle=round;fontSize=17;fontStyle=1;fillColor=#008cff;whiteSpace=wrap;" vertex="1" parent="LYRZQWKn97uzAMpDcZIB-1">
          <mxGeometry x="880" y="230" width="150" height="30" as="geometry" />
        </mxCell>
        <mxCell id="LYRZQWKn97uzAMpDcZIB-43" value="Social Name" style="strokeWidth=1;shadow=0;dashed=0;align=center;html=1;shape=mxgraph.mockup.forms.comboBox;strokeColor=#999999;fillColor=#ddeeff;align=left;fillColor2=#aaddff;mainText=;fontColor=#666666;fontSize=17;spacingLeft=3;" vertex="1" parent="LYRZQWKn97uzAMpDcZIB-1">
          <mxGeometry x="330" y="230" width="160" height="30" as="geometry" />
        </mxCell>
        <mxCell id="EYg1m6LRQGOCb6P1jtj9-0" value="" style="shape=table;html=1;whiteSpace=wrap;startSize=0;container=1;collapsible=0;childLayout=tableLayout;strokeWidth=2;" vertex="1" parent="LYRZQWKn97uzAMpDcZIB-1">
          <mxGeometry x="700" y="279.25" width="150" height="81.5" as="geometry" />
        </mxCell>
        <mxCell id="EYg1m6LRQGOCb6P1jtj9-1" value="" style="shape=tableRow;horizontal=0;startSize=0;swimlaneHead=0;swimlaneBody=0;top=0;left=0;bottom=0;right=0;collapsible=0;dropTarget=0;fillColor=none;points=[[0,0.5],[1,0.5]];portConstraint=eastwest;" vertex="1" parent="EYg1m6LRQGOCb6P1jtj9-0">
          <mxGeometry width="150" height="31" as="geometry" />
        </mxCell>
        <mxCell id="EYg1m6LRQGOCb6P1jtj9-2" value="Status" style="shape=partialRectangle;html=1;whiteSpace=wrap;connectable=0;fillColor=none;top=0;left=0;bottom=0;right=0;overflow=hidden;fontStyle=1" vertex="1" parent="EYg1m6LRQGOCb6P1jtj9-1">
          <mxGeometry width="75" height="31" as="geometry">
            <mxRectangle width="75" height="31" as="alternateBounds" />
          </mxGeometry>
        </mxCell>
        <mxCell id="EYg1m6LRQGOCb6P1jtj9-3" value="Confirmation" style="shape=partialRectangle;html=1;whiteSpace=wrap;connectable=0;fillColor=none;top=0;left=0;bottom=0;right=0;overflow=hidden;fontStyle=1" vertex="1" parent="EYg1m6LRQGOCb6P1jtj9-1">
          <mxGeometry x="75" width="75" height="31" as="geometry">
            <mxRectangle width="75" height="31" as="alternateBounds" />
          </mxGeometry>
        </mxCell>
        <mxCell id="EYg1m6LRQGOCb6P1jtj9-4" value="" style="shape=tableRow;horizontal=0;startSize=0;swimlaneHead=0;swimlaneBody=0;top=0;left=0;bottom=0;right=0;collapsible=0;dropTarget=0;fillColor=none;points=[[0,0.5],[1,0.5]];portConstraint=eastwest;" vertex="1" parent="EYg1m6LRQGOCb6P1jtj9-0">
          <mxGeometry y="31" width="150" height="25" as="geometry" />
        </mxCell>
        <mxCell id="EYg1m6LRQGOCb6P1jtj9-5" value="Canceled" style="shape=partialRectangle;html=1;whiteSpace=wrap;connectable=0;fillColor=none;top=0;left=0;bottom=0;right=0;overflow=hidden;" vertex="1" parent="EYg1m6LRQGOCb6P1jtj9-4">
          <mxGeometry width="75" height="25" as="geometry">
            <mxRectangle width="75" height="25" as="alternateBounds" />
          </mxGeometry>
        </mxCell>
        <mxCell id="EYg1m6LRQGOCb6P1jtj9-6" value="Confirm" style="shape=partialRectangle;html=1;whiteSpace=wrap;connectable=0;fillColor=none;top=0;left=0;bottom=0;right=0;overflow=hidden;" vertex="1" parent="EYg1m6LRQGOCb6P1jtj9-4">
          <mxGeometry x="75" width="75" height="25" as="geometry">
            <mxRectangle width="75" height="25" as="alternateBounds" />
          </mxGeometry>
        </mxCell>
        <mxCell id="EYg1m6LRQGOCb6P1jtj9-7" value="" style="shape=tableRow;horizontal=0;startSize=0;swimlaneHead=0;swimlaneBody=0;top=0;left=0;bottom=0;right=0;collapsible=0;dropTarget=0;fillColor=none;points=[[0,0.5],[1,0.5]];portConstraint=eastwest;" vertex="1" parent="EYg1m6LRQGOCb6P1jtj9-0">
          <mxGeometry y="56" width="150" height="26" as="geometry" />
        </mxCell>
        <mxCell id="EYg1m6LRQGOCb6P1jtj9-8" value="New" style="shape=partialRectangle;html=1;whiteSpace=wrap;connectable=0;fillColor=none;top=0;left=0;bottom=0;right=0;overflow=hidden;" vertex="1" parent="EYg1m6LRQGOCb6P1jtj9-7">
          <mxGeometry width="75" height="26" as="geometry">
            <mxRectangle width="75" height="26" as="alternateBounds" />
          </mxGeometry>
        </mxCell>
        <mxCell id="EYg1m6LRQGOCb6P1jtj9-9" value="Confirm" style="shape=partialRectangle;html=1;whiteSpace=wrap;connectable=0;fillColor=none;top=0;left=0;bottom=0;right=0;overflow=hidden;" vertex="1" parent="EYg1m6LRQGOCb6P1jtj9-7">
          <mxGeometry x="75" width="75" height="26" as="geometry">
            <mxRectangle width="75" height="26" as="alternateBounds" />
          </mxGeometry>
        </mxCell>
        <mxCell id="EYg1m6LRQGOCb6P1jtj9-20" value="" style="shape=table;html=1;whiteSpace=wrap;startSize=0;container=1;collapsible=0;childLayout=tableLayout;strokeWidth=2;" vertex="1" parent="LYRZQWKn97uzAMpDcZIB-1">
          <mxGeometry x="850" y="279.25" width="190" height="81" as="geometry" />
        </mxCell>
        <mxCell id="EYg1m6LRQGOCb6P1jtj9-21" value="" style="shape=tableRow;horizontal=0;startSize=0;swimlaneHead=0;swimlaneBody=0;top=0;left=0;bottom=0;right=0;collapsible=0;dropTarget=0;fillColor=none;points=[[0,0.5],[1,0.5]];portConstraint=eastwest;" vertex="1" parent="EYg1m6LRQGOCb6P1jtj9-20">
          <mxGeometry width="190" height="30" as="geometry" />
        </mxCell>
        <mxCell id="EYg1m6LRQGOCb6P1jtj9-22" value="Cancel" style="shape=partialRectangle;html=1;whiteSpace=wrap;connectable=0;fillColor=none;top=0;left=0;bottom=0;right=0;overflow=hidden;fontStyle=1" vertex="1" parent="EYg1m6LRQGOCb6P1jtj9-21">
          <mxGeometry width="95" height="30" as="geometry">
            <mxRectangle width="95" height="30" as="alternateBounds" />
          </mxGeometry>
        </mxCell>
        <mxCell id="EYg1m6LRQGOCb6P1jtj9-23" value="Ask Confirmation" style="shape=partialRectangle;html=1;whiteSpace=wrap;connectable=0;fillColor=none;top=0;left=0;bottom=0;right=0;overflow=hidden;fontStyle=1" vertex="1" parent="EYg1m6LRQGOCb6P1jtj9-21">
          <mxGeometry x="95" width="95" height="30" as="geometry">
            <mxRectangle width="95" height="30" as="alternateBounds" />
          </mxGeometry>
        </mxCell>
        <mxCell id="EYg1m6LRQGOCb6P1jtj9-24" value="" style="shape=tableRow;horizontal=0;startSize=0;swimlaneHead=0;swimlaneBody=0;top=0;left=0;bottom=0;right=0;collapsible=0;dropTarget=0;fillColor=none;points=[[0,0.5],[1,0.5]];portConstraint=eastwest;" vertex="1" parent="EYg1m6LRQGOCb6P1jtj9-20">
          <mxGeometry y="30" width="190" height="25" as="geometry" />
        </mxCell>
        <mxCell id="EYg1m6LRQGOCb6P1jtj9-25" value="Cancel" style="shape=partialRectangle;html=1;whiteSpace=wrap;connectable=0;fillColor=none;top=0;left=0;bottom=0;right=0;overflow=hidden;" vertex="1" parent="EYg1m6LRQGOCb6P1jtj9-24">
          <mxGeometry width="95" height="25" as="geometry">
            <mxRectangle width="95" height="25" as="alternateBounds" />
          </mxGeometry>
        </mxCell>
        <mxCell id="EYg1m6LRQGOCb6P1jtj9-26" value="Send Email" style="shape=partialRectangle;html=1;whiteSpace=wrap;connectable=0;fillColor=none;top=0;left=0;bottom=0;right=0;overflow=hidden;" vertex="1" parent="EYg1m6LRQGOCb6P1jtj9-24">
          <mxGeometry x="95" width="95" height="25" as="geometry">
            <mxRectangle width="95" height="25" as="alternateBounds" />
          </mxGeometry>
        </mxCell>
        <mxCell id="EYg1m6LRQGOCb6P1jtj9-27" value="" style="shape=tableRow;horizontal=0;startSize=0;swimlaneHead=0;swimlaneBody=0;top=0;left=0;bottom=0;right=0;collapsible=0;dropTarget=0;fillColor=none;points=[[0,0.5],[1,0.5]];portConstraint=eastwest;" vertex="1" parent="EYg1m6LRQGOCb6P1jtj9-20">
          <mxGeometry y="55" width="190" height="26" as="geometry" />
        </mxCell>
        <mxCell id="EYg1m6LRQGOCb6P1jtj9-28" value="Concel" style="shape=partialRectangle;html=1;whiteSpace=wrap;connectable=0;fillColor=none;top=0;left=0;bottom=0;right=0;overflow=hidden;" vertex="1" parent="EYg1m6LRQGOCb6P1jtj9-27">
          <mxGeometry width="95" height="26" as="geometry">
            <mxRectangle width="95" height="26" as="alternateBounds" />
          </mxGeometry>
        </mxCell>
        <mxCell id="EYg1m6LRQGOCb6P1jtj9-29" value="Send Email" style="shape=partialRectangle;html=1;whiteSpace=wrap;connectable=0;fillColor=none;top=0;left=0;bottom=0;right=0;overflow=hidden;" vertex="1" parent="EYg1m6LRQGOCb6P1jtj9-27">
          <mxGeometry x="95" width="95" height="26" as="geometry">
            <mxRectangle width="95" height="26" as="alternateBounds" />
          </mxGeometry>
        </mxCell>
        <mxCell id="EYg1m6LRQGOCb6P1jtj9-30" value="" style="shape=table;html=1;whiteSpace=wrap;startSize=0;container=1;collapsible=0;childLayout=tableLayout;strokeWidth=2;" vertex="1" parent="LYRZQWKn97uzAMpDcZIB-1">
          <mxGeometry x="560" y="279.25" width="150" height="81.5" as="geometry" />
        </mxCell>
        <mxCell id="EYg1m6LRQGOCb6P1jtj9-31" value="" style="shape=tableRow;horizontal=0;startSize=0;swimlaneHead=0;swimlaneBody=0;top=0;left=0;bottom=0;right=0;collapsible=0;dropTarget=0;fillColor=none;points=[[0,0.5],[1,0.5]];portConstraint=eastwest;" vertex="1" parent="EYg1m6LRQGOCb6P1jtj9-30">
          <mxGeometry width="150" height="31" as="geometry" />
        </mxCell>
        <mxCell id="EYg1m6LRQGOCb6P1jtj9-32" value="Date" style="shape=partialRectangle;html=1;whiteSpace=wrap;connectable=0;fillColor=none;top=0;left=0;bottom=0;right=0;overflow=hidden;fontStyle=1" vertex="1" parent="EYg1m6LRQGOCb6P1jtj9-31">
          <mxGeometry width="75" height="31" as="geometry">
            <mxRectangle width="75" height="31" as="alternateBounds" />
          </mxGeometry>
        </mxCell>
        <mxCell id="EYg1m6LRQGOCb6P1jtj9-33" value="Hour" style="shape=partialRectangle;html=1;whiteSpace=wrap;connectable=0;fillColor=none;top=0;left=0;bottom=0;right=0;overflow=hidden;fontStyle=1" vertex="1" parent="EYg1m6LRQGOCb6P1jtj9-31">
          <mxGeometry x="75" width="75" height="31" as="geometry">
            <mxRectangle width="75" height="31" as="alternateBounds" />
          </mxGeometry>
        </mxCell>
        <mxCell id="EYg1m6LRQGOCb6P1jtj9-34" value="" style="shape=tableRow;horizontal=0;startSize=0;swimlaneHead=0;swimlaneBody=0;top=0;left=0;bottom=0;right=0;collapsible=0;dropTarget=0;fillColor=none;points=[[0,0.5],[1,0.5]];portConstraint=eastwest;" vertex="1" parent="EYg1m6LRQGOCb6P1jtj9-30">
          <mxGeometry y="31" width="150" height="25" as="geometry" />
        </mxCell>
        <mxCell id="EYg1m6LRQGOCb6P1jtj9-35" value="00/00/0000" style="shape=partialRectangle;html=1;whiteSpace=wrap;connectable=0;fillColor=none;top=0;left=0;bottom=0;right=0;overflow=hidden;" vertex="1" parent="EYg1m6LRQGOCb6P1jtj9-34">
          <mxGeometry width="75" height="25" as="geometry">
            <mxRectangle width="75" height="25" as="alternateBounds" />
          </mxGeometry>
        </mxCell>
        <mxCell id="EYg1m6LRQGOCb6P1jtj9-36" value="15:00" style="shape=partialRectangle;html=1;whiteSpace=wrap;connectable=0;fillColor=none;top=0;left=0;bottom=0;right=0;overflow=hidden;" vertex="1" parent="EYg1m6LRQGOCb6P1jtj9-34">
          <mxGeometry x="75" width="75" height="25" as="geometry">
            <mxRectangle width="75" height="25" as="alternateBounds" />
          </mxGeometry>
        </mxCell>
        <mxCell id="EYg1m6LRQGOCb6P1jtj9-37" value="" style="shape=tableRow;horizontal=0;startSize=0;swimlaneHead=0;swimlaneBody=0;top=0;left=0;bottom=0;right=0;collapsible=0;dropTarget=0;fillColor=none;points=[[0,0.5],[1,0.5]];portConstraint=eastwest;" vertex="1" parent="EYg1m6LRQGOCb6P1jtj9-30">
          <mxGeometry y="56" width="150" height="26" as="geometry" />
        </mxCell>
        <mxCell id="EYg1m6LRQGOCb6P1jtj9-38" value="00/00/0000" style="shape=partialRectangle;html=1;whiteSpace=wrap;connectable=0;fillColor=none;top=0;left=0;bottom=0;right=0;overflow=hidden;" vertex="1" parent="EYg1m6LRQGOCb6P1jtj9-37">
          <mxGeometry width="75" height="26" as="geometry">
            <mxRectangle width="75" height="26" as="alternateBounds" />
          </mxGeometry>
        </mxCell>
        <mxCell id="EYg1m6LRQGOCb6P1jtj9-39" value="10:00" style="shape=partialRectangle;html=1;whiteSpace=wrap;connectable=0;fillColor=none;top=0;left=0;bottom=0;right=0;overflow=hidden;" vertex="1" parent="EYg1m6LRQGOCb6P1jtj9-37">
          <mxGeometry x="75" width="75" height="26" as="geometry">
            <mxRectangle width="75" height="26" as="alternateBounds" />
          </mxGeometry>
        </mxCell>
      </root>
    </mxGraphModel>
  </diagram>
  <diagram name="Inverview Module - Management of Audio" id="NKSUdiONRyr1NUNj8eQD">
    <mxGraphModel dx="1355" dy="668" grid="1" gridSize="10" guides="1" tooltips="1" connect="1" arrows="1" fold="1" page="1" pageScale="1" pageWidth="1100" pageHeight="850" background="none" math="0" shadow="0">
      <root>
        <mxCell id="RdEcL9kmq7SiB6EYFqsD-0" />
        <mxCell id="RdEcL9kmq7SiB6EYFqsD-1" parent="RdEcL9kmq7SiB6EYFqsD-0" />
        <mxCell id="RdEcL9kmq7SiB6EYFqsD-2" value="" style="whiteSpace=wrap;html=1;rounded=0;shadow=0;labelBackgroundColor=none;strokeColor=#000000;strokeWidth=1;fillColor=none;fontFamily=Verdana;fontSize=12;fontColor=#000000;align=center;comic=1;" vertex="1" parent="RdEcL9kmq7SiB6EYFqsD-1">
          <mxGeometry x="20" y="20" width="1060" height="810" as="geometry" />
        </mxCell>
        <mxCell id="RdEcL9kmq7SiB6EYFqsD-3" value="IAT" style="whiteSpace=wrap;html=1;rounded=0;shadow=0;labelBackgroundColor=none;strokeWidth=1;fontFamily=Verdana;fontSize=28;align=center;comic=1;" vertex="1" parent="RdEcL9kmq7SiB6EYFqsD-1">
          <mxGeometry x="30" y="80" width="200" height="50" as="geometry" />
        </mxCell>
        <mxCell id="RdEcL9kmq7SiB6EYFqsD-4" value="" style="whiteSpace=wrap;html=1;rounded=0;shadow=0;labelBackgroundColor=none;strokeWidth=1;fillColor=none;fontFamily=Verdana;fontSize=12;align=center;comic=1;" vertex="1" parent="RdEcL9kmq7SiB6EYFqsD-1">
          <mxGeometry x="30" y="130" width="200" height="680" as="geometry" />
        </mxCell>
        <mxCell id="RdEcL9kmq7SiB6EYFqsD-5" value="" style="whiteSpace=wrap;html=1;rounded=0;shadow=0;labelBackgroundColor=none;strokeWidth=1;fillColor=none;fontFamily=Verdana;fontSize=12;align=center;comic=1;" vertex="1" parent="RdEcL9kmq7SiB6EYFqsD-1">
          <mxGeometry x="230" y="80" width="840" height="50" as="geometry" />
        </mxCell>
        <mxCell id="RdEcL9kmq7SiB6EYFqsD-6" value="About" style="text;html=1;points=[];align=left;verticalAlign=top;spacingTop=-4;fontSize=14;fontFamily=Verdana" vertex="1" parent="RdEcL9kmq7SiB6EYFqsD-1">
          <mxGeometry x="970" y="95" width="60" height="20" as="geometry" />
        </mxCell>
        <mxCell id="RdEcL9kmq7SiB6EYFqsD-7" value="Interview Module" style="text;html=1;points=[];align=left;verticalAlign=top;spacingTop=-4;fontSize=14;fontFamily=Verdana" vertex="1" parent="RdEcL9kmq7SiB6EYFqsD-1">
          <mxGeometry x="490" width="170" height="20" as="geometry" />
        </mxCell>
        <mxCell id="RdEcL9kmq7SiB6EYFqsD-8" value="Home" style="text;html=1;points=[];align=left;verticalAlign=top;spacingTop=-4;fontSize=14;fontFamily=Verdana" vertex="1" parent="RdEcL9kmq7SiB6EYFqsD-1">
          <mxGeometry x="50" y="205" width="170" height="20" as="geometry" />
        </mxCell>
        <mxCell id="RdEcL9kmq7SiB6EYFqsD-9" value="Mgmt of Interviewees" style="text;html=1;points=[];align=left;verticalAlign=top;spacingTop=-4;fontSize=14;fontFamily=Verdana" vertex="1" parent="RdEcL9kmq7SiB6EYFqsD-1">
          <mxGeometry x="50" y="240" width="170" height="20" as="geometry" />
        </mxCell>
        <mxCell id="RdEcL9kmq7SiB6EYFqsD-10" value="Interview Scheduling" style="text;html=1;points=[];align=left;verticalAlign=top;spacingTop=-4;fontSize=14;fontFamily=Verdana" vertex="1" parent="RdEcL9kmq7SiB6EYFqsD-1">
          <mxGeometry x="50" y="276" width="170" height="20" as="geometry" />
        </mxCell>
        <mxCell id="RdEcL9kmq7SiB6EYFqsD-11" value="" style="whiteSpace=wrap;html=1;rounded=0;shadow=0;labelBackgroundColor=none;strokeWidth=1;fillColor=none;fontFamily=Verdana;fontSize=12;align=center;comic=1;" vertex="1" parent="RdEcL9kmq7SiB6EYFqsD-1">
          <mxGeometry x="30" y="40" width="1040" height="30" as="geometry" />
        </mxCell>
        <mxCell id="RdEcL9kmq7SiB6EYFqsD-12" value="HTTPS://localhost" style="text;html=1;points=[];align=left;verticalAlign=top;spacingTop=-4;fontSize=14;fontFamily=Verdana" vertex="1" parent="RdEcL9kmq7SiB6EYFqsD-1">
          <mxGeometry x="40" y="45" width="170" height="20" as="geometry" />
        </mxCell>
        <mxCell id="RdEcL9kmq7SiB6EYFqsD-13" value="&lt;b&gt;Management of Audio&lt;br&gt;&lt;/b&gt;" style="text;html=1;points=[];align=left;verticalAlign=top;spacingTop=-4;fontSize=14;fontFamily=Verdana" vertex="1" parent="RdEcL9kmq7SiB6EYFqsD-1">
          <mxGeometry x="300" y="170" width="170" height="20" as="geometry" />
        </mxCell>
        <mxCell id="RdEcL9kmq7SiB6EYFqsD-14" value="Mgmt of Calendar" style="text;html=1;points=[];align=left;verticalAlign=top;spacingTop=-4;fontSize=14;fontFamily=Verdana" vertex="1" parent="RdEcL9kmq7SiB6EYFqsD-1">
          <mxGeometry x="50" y="310" width="170" height="20" as="geometry" />
        </mxCell>
        <mxCell id="RdEcL9kmq7SiB6EYFqsD-15" value="Management of Audio" style="text;html=1;points=[];align=left;verticalAlign=top;spacingTop=-4;fontSize=14;fontFamily=Verdana;fontStyle=1" vertex="1" parent="RdEcL9kmq7SiB6EYFqsD-1">
          <mxGeometry x="50" y="350" width="170" height="20" as="geometry" />
        </mxCell>
        <mxCell id="RdEcL9kmq7SiB6EYFqsD-16" value="Audio Transcription" style="text;html=1;points=[];align=left;verticalAlign=top;spacingTop=-4;fontSize=14;fontFamily=Verdana" vertex="1" parent="RdEcL9kmq7SiB6EYFqsD-1">
          <mxGeometry x="50" y="390" width="170" height="20" as="geometry" />
        </mxCell>
        <mxCell id="RdEcL9kmq7SiB6EYFqsD-21" value="First Name" style="text;html=1;points=[];align=right;verticalAlign=top;spacingTop=-4;fontSize=14;fontFamily=Verdana;fontColor=#9d9d9d;" vertex="1" parent="RdEcL9kmq7SiB6EYFqsD-1">
          <mxGeometry x="385" y="430" width="110" height="20" as="geometry" />
        </mxCell>
        <mxCell id="RdEcL9kmq7SiB6EYFqsD-22" value="" style="strokeWidth=1;shadow=0;dashed=0;align=center;html=1;shape=mxgraph.mockup.text.textBox;fontColor=#808080;align=left;fontSize=17;spacingLeft=4;spacingTop=-3;whiteSpace=wrap;strokeColor=#666666;mainText=" vertex="1" parent="RdEcL9kmq7SiB6EYFqsD-1">
          <mxGeometry x="505" y="562.5" width="370" height="30" as="geometry" />
        </mxCell>
        <mxCell id="RdEcL9kmq7SiB6EYFqsD-23" value="Place" style="text;html=1;points=[];align=right;verticalAlign=top;spacingTop=-4;fontSize=14;fontFamily=Verdana;fontColor=#808080;" vertex="1" parent="RdEcL9kmq7SiB6EYFqsD-1">
          <mxGeometry x="385" y="572.5" width="110" height="20" as="geometry" />
        </mxCell>
        <mxCell id="RdEcL9kmq7SiB6EYFqsD-24" value="" style="strokeWidth=1;shadow=0;dashed=0;align=center;html=1;shape=mxgraph.mockup.text.textBox;fontColor=#666666;align=left;fontSize=17;spacingLeft=4;spacingTop=-3;whiteSpace=wrap;strokeColor=#666666;mainText=" vertex="1" parent="RdEcL9kmq7SiB6EYFqsD-1">
          <mxGeometry x="505" y="470" width="370" height="30" as="geometry" />
        </mxCell>
        <mxCell id="RdEcL9kmq7SiB6EYFqsD-25" value="Social Name" style="text;html=1;points=[];align=right;verticalAlign=top;spacingTop=-4;fontSize=14;fontFamily=Verdana;fontColor=#9d9d9d;" vertex="1" parent="RdEcL9kmq7SiB6EYFqsD-1">
          <mxGeometry x="385" y="480" width="110" height="20" as="geometry" />
        </mxCell>
        <mxCell id="RdEcL9kmq7SiB6EYFqsD-26" value="" style="strokeWidth=1;shadow=0;dashed=0;align=center;html=1;shape=mxgraph.mockup.text.textBox;fontColor=#666666;align=left;fontSize=17;spacingLeft=4;spacingTop=-3;whiteSpace=wrap;strokeColor=#666666;mainText=" vertex="1" parent="RdEcL9kmq7SiB6EYFqsD-1">
          <mxGeometry x="505" y="516" width="370" height="30" as="geometry" />
        </mxCell>
        <mxCell id="RdEcL9kmq7SiB6EYFqsD-27" value="E-mail" style="text;html=1;points=[];align=right;verticalAlign=top;spacingTop=-4;fontSize=14;fontFamily=Verdana;fontColor=#9d9d9d;" vertex="1" parent="RdEcL9kmq7SiB6EYFqsD-1">
          <mxGeometry x="385" y="526" width="110" height="20" as="geometry" />
        </mxCell>
        <mxCell id="RdEcL9kmq7SiB6EYFqsD-30" value="Upload" style="strokeWidth=1;shadow=0;dashed=0;align=center;html=1;shape=mxgraph.mockup.buttons.button;strokeColor=#666666;fontColor=#ffffff;mainText=;buttonStyle=round;fontSize=17;fontStyle=1;fillColor=#008cff;whiteSpace=wrap;" vertex="1" parent="RdEcL9kmq7SiB6EYFqsD-1">
          <mxGeometry x="695" y="760" width="150" height="30" as="geometry" />
        </mxCell>
        <mxCell id="RdEcL9kmq7SiB6EYFqsD-41" value="Cancel" style="strokeWidth=1;shadow=0;dashed=0;align=center;html=1;shape=mxgraph.mockup.buttons.button;strokeColor=#666666;fontColor=#ffffff;mainText=;buttonStyle=round;fontSize=17;fontStyle=1;fillColor=#008cff;whiteSpace=wrap;" vertex="1" parent="RdEcL9kmq7SiB6EYFqsD-1">
          <mxGeometry x="505" y="760" width="150" height="30" as="geometry" />
        </mxCell>
        <mxCell id="RdEcL9kmq7SiB6EYFqsD-44" value="" style="strokeWidth=1;shadow=0;dashed=0;align=center;html=1;shape=mxgraph.mockup.text.textBox;fontColor=#666666;align=left;fontSize=17;spacingLeft=4;spacingTop=-3;whiteSpace=wrap;strokeColor=#666666;mainText=" vertex="1" parent="RdEcL9kmq7SiB6EYFqsD-1">
          <mxGeometry x="505" y="425" width="370" height="30" as="geometry" />
        </mxCell>
        <mxCell id="RdEcL9kmq7SiB6EYFqsD-47" value="Date" style="text;html=1;points=[];align=right;verticalAlign=top;spacingTop=-4;fontSize=14;fontFamily=Verdana;fontColor=#808080;" vertex="1" parent="RdEcL9kmq7SiB6EYFqsD-1">
          <mxGeometry x="385" y="607.5" width="110" height="20" as="geometry" />
        </mxCell>
        <mxCell id="RdEcL9kmq7SiB6EYFqsD-48" value="00/00/0000" style="strokeWidth=1;shadow=0;dashed=0;align=center;html=1;shape=mxgraph.mockup.text.textBox;fontColor=#808080;align=left;fontSize=17;spacingLeft=4;spacingTop=-3;whiteSpace=wrap;strokeColor=#666666;mainText=" vertex="1" parent="RdEcL9kmq7SiB6EYFqsD-1">
          <mxGeometry x="505" y="602.5" width="100" height="30" as="geometry" />
        </mxCell>
        <mxCell id="RdEcL9kmq7SiB6EYFqsD-49" value="Hour" style="text;html=1;points=[];align=right;verticalAlign=top;spacingTop=-4;fontSize=14;fontFamily=Verdana;fontColor=#808080;" vertex="1" parent="RdEcL9kmq7SiB6EYFqsD-1">
          <mxGeometry x="665" y="612.5" width="110" height="20" as="geometry" />
        </mxCell>
        <mxCell id="RdEcL9kmq7SiB6EYFqsD-50" value="18:30 hs" style="strokeWidth=1;shadow=0;dashed=0;align=center;html=1;shape=mxgraph.mockup.text.textBox;fontColor=#808080;align=left;fontSize=17;spacingLeft=4;spacingTop=-3;whiteSpace=wrap;strokeColor=#666666;mainText=" vertex="1" parent="RdEcL9kmq7SiB6EYFqsD-1">
          <mxGeometry x="785" y="602.5" width="100" height="30" as="geometry" />
        </mxCell>
        <mxCell id="RdEcL9kmq7SiB6EYFqsD-51" value="Done" style="strokeWidth=1;shadow=0;dashed=0;align=center;html=1;shape=mxgraph.mockup.forms.comboBox;strokeColor=#999999;fillColor=#ddeeff;align=left;fillColor2=#aaddff;mainText=;fontColor=#808080;fontSize=17;spacingLeft=3;" vertex="1" parent="RdEcL9kmq7SiB6EYFqsD-1">
          <mxGeometry x="505" y="647.5" width="370" height="30" as="geometry" />
        </mxCell>
        <mxCell id="RdEcL9kmq7SiB6EYFqsD-52" value="Status" style="text;html=1;points=[];align=right;verticalAlign=top;spacingTop=-4;fontSize=14;fontFamily=Verdana;fontColor=#808080;" vertex="1" parent="RdEcL9kmq7SiB6EYFqsD-1">
          <mxGeometry x="385" y="652.5" width="110" height="20" as="geometry" />
        </mxCell>
        <mxCell id="0Gim6JNDESCZIHy6hzC1-0" value="file:\\" style="strokeWidth=1;shadow=0;dashed=0;align=center;html=1;shape=mxgraph.mockup.text.textBox;fontColor=#000000;align=left;fontSize=17;spacingLeft=4;spacingTop=-3;whiteSpace=wrap;strokeColor=#666666;mainText=" vertex="1" parent="RdEcL9kmq7SiB6EYFqsD-1">
          <mxGeometry x="505" y="700" width="370" height="30" as="geometry" />
        </mxCell>
        <mxCell id="0Gim6JNDESCZIHy6hzC1-1" value="Upload Audio file" style="text;html=1;points=[];align=right;verticalAlign=top;spacingTop=-4;fontSize=14;fontFamily=Verdana;fontColor=#0D0D0D;" vertex="1" parent="RdEcL9kmq7SiB6EYFqsD-1">
          <mxGeometry x="385" y="710" width="110" height="20" as="geometry" />
        </mxCell>
        <mxCell id="iaE7u_JaU0JD-Ada3KiX-0" value="" style="strokeWidth=1;shadow=0;dashed=0;align=center;html=1;shape=mxgraph.mockup.text.textBox;fontColor=#666666;align=left;fontSize=17;spacingLeft=4;spacingTop=-3;whiteSpace=wrap;strokeColor=#666666;mainText=" vertex="1" parent="RdEcL9kmq7SiB6EYFqsD-1">
          <mxGeometry x="507.5" y="230" width="352.5" height="30" as="geometry" />
        </mxCell>
        <mxCell id="fvi474iKMWPZ-Lgob74u-0" value="" style="whiteSpace=wrap;html=1;rounded=0;shadow=0;labelBackgroundColor=none;strokeWidth=1;fillColor=none;fontFamily=Verdana;fontSize=12;align=center;comic=1;" vertex="1" parent="RdEcL9kmq7SiB6EYFqsD-1">
          <mxGeometry x="300" y="220" width="750" height="190" as="geometry" />
        </mxCell>
        <mxCell id="iaE7u_JaU0JD-Ada3KiX-1" value="" style="shape=table;html=1;whiteSpace=wrap;startSize=0;container=1;collapsible=0;childLayout=tableLayout;strokeWidth=2;" vertex="1" parent="RdEcL9kmq7SiB6EYFqsD-1">
          <mxGeometry x="320" y="279.75" width="240" height="81" as="geometry" />
        </mxCell>
        <mxCell id="iaE7u_JaU0JD-Ada3KiX-2" value="" style="shape=tableRow;horizontal=0;startSize=0;swimlaneHead=0;swimlaneBody=0;top=0;left=0;bottom=0;right=0;collapsible=0;dropTarget=0;fillColor=none;points=[[0,0.5],[1,0.5]];portConstraint=eastwest;" vertex="1" parent="iaE7u_JaU0JD-Ada3KiX-1">
          <mxGeometry width="240" height="30" as="geometry" />
        </mxCell>
        <mxCell id="iaE7u_JaU0JD-Ada3KiX-3" value="First Name" style="shape=partialRectangle;html=1;whiteSpace=wrap;connectable=0;fillColor=none;top=0;left=0;bottom=0;right=0;overflow=hidden;fontStyle=1" vertex="1" parent="iaE7u_JaU0JD-Ada3KiX-2">
          <mxGeometry width="120" height="30" as="geometry">
            <mxRectangle width="120" height="30" as="alternateBounds" />
          </mxGeometry>
        </mxCell>
        <mxCell id="iaE7u_JaU0JD-Ada3KiX-4" value="Social Name" style="shape=partialRectangle;html=1;whiteSpace=wrap;connectable=0;fillColor=none;top=0;left=0;bottom=0;right=0;overflow=hidden;fontStyle=1" vertex="1" parent="iaE7u_JaU0JD-Ada3KiX-2">
          <mxGeometry x="120" width="120" height="30" as="geometry">
            <mxRectangle width="120" height="30" as="alternateBounds" />
          </mxGeometry>
        </mxCell>
        <mxCell id="iaE7u_JaU0JD-Ada3KiX-5" value="" style="shape=tableRow;horizontal=0;startSize=0;swimlaneHead=0;swimlaneBody=0;top=0;left=0;bottom=0;right=0;collapsible=0;dropTarget=0;fillColor=none;points=[[0,0.5],[1,0.5]];portConstraint=eastwest;" vertex="1" parent="iaE7u_JaU0JD-Ada3KiX-1">
          <mxGeometry y="30" width="240" height="25" as="geometry" />
        </mxCell>
        <mxCell id="iaE7u_JaU0JD-Ada3KiX-6" value="aaa" style="shape=partialRectangle;html=1;whiteSpace=wrap;connectable=0;fillColor=none;top=0;left=0;bottom=0;right=0;overflow=hidden;" vertex="1" parent="iaE7u_JaU0JD-Ada3KiX-5">
          <mxGeometry width="120" height="25" as="geometry">
            <mxRectangle width="120" height="25" as="alternateBounds" />
          </mxGeometry>
        </mxCell>
        <mxCell id="iaE7u_JaU0JD-Ada3KiX-7" value="xxx" style="shape=partialRectangle;html=1;whiteSpace=wrap;connectable=0;fillColor=none;top=0;left=0;bottom=0;right=0;overflow=hidden;" vertex="1" parent="iaE7u_JaU0JD-Ada3KiX-5">
          <mxGeometry x="120" width="120" height="25" as="geometry">
            <mxRectangle width="120" height="25" as="alternateBounds" />
          </mxGeometry>
        </mxCell>
        <mxCell id="iaE7u_JaU0JD-Ada3KiX-8" value="" style="shape=tableRow;horizontal=0;startSize=0;swimlaneHead=0;swimlaneBody=0;top=0;left=0;bottom=0;right=0;collapsible=0;dropTarget=0;fillColor=none;points=[[0,0.5],[1,0.5]];portConstraint=eastwest;" vertex="1" parent="iaE7u_JaU0JD-Ada3KiX-1">
          <mxGeometry y="55" width="240" height="26" as="geometry" />
        </mxCell>
        <mxCell id="iaE7u_JaU0JD-Ada3KiX-9" value="bbb" style="shape=partialRectangle;html=1;whiteSpace=wrap;connectable=0;fillColor=none;top=0;left=0;bottom=0;right=0;overflow=hidden;" vertex="1" parent="iaE7u_JaU0JD-Ada3KiX-8">
          <mxGeometry width="120" height="26" as="geometry">
            <mxRectangle width="120" height="26" as="alternateBounds" />
          </mxGeometry>
        </mxCell>
        <mxCell id="iaE7u_JaU0JD-Ada3KiX-10" value="yyyy" style="shape=partialRectangle;html=1;whiteSpace=wrap;connectable=0;fillColor=none;top=0;left=0;bottom=0;right=0;overflow=hidden;" vertex="1" parent="iaE7u_JaU0JD-Ada3KiX-8">
          <mxGeometry x="120" width="120" height="26" as="geometry">
            <mxRectangle width="120" height="26" as="alternateBounds" />
          </mxGeometry>
        </mxCell>
        <mxCell id="iaE7u_JaU0JD-Ada3KiX-11" value="Find" style="strokeWidth=1;shadow=0;dashed=0;align=center;html=1;shape=mxgraph.mockup.buttons.button;strokeColor=#666666;fontColor=#ffffff;mainText=;buttonStyle=round;fontSize=17;fontStyle=1;fillColor=#008cff;whiteSpace=wrap;" vertex="1" parent="RdEcL9kmq7SiB6EYFqsD-1">
          <mxGeometry x="880" y="230" width="150" height="30" as="geometry" />
        </mxCell>
        <mxCell id="iaE7u_JaU0JD-Ada3KiX-12" value="Social Name" style="strokeWidth=1;shadow=0;dashed=0;align=center;html=1;shape=mxgraph.mockup.forms.comboBox;strokeColor=#999999;fillColor=#ddeeff;align=left;fillColor2=#aaddff;mainText=;fontColor=#666666;fontSize=17;spacingLeft=3;" vertex="1" parent="RdEcL9kmq7SiB6EYFqsD-1">
          <mxGeometry x="330" y="230" width="160" height="30" as="geometry" />
        </mxCell>
        <mxCell id="iaE7u_JaU0JD-Ada3KiX-13" value="" style="shape=table;html=1;whiteSpace=wrap;startSize=0;container=1;collapsible=0;childLayout=tableLayout;strokeWidth=2;" vertex="1" parent="RdEcL9kmq7SiB6EYFqsD-1">
          <mxGeometry x="700" y="279.25" width="150" height="81.5" as="geometry" />
        </mxCell>
        <mxCell id="iaE7u_JaU0JD-Ada3KiX-14" value="" style="shape=tableRow;horizontal=0;startSize=0;swimlaneHead=0;swimlaneBody=0;top=0;left=0;bottom=0;right=0;collapsible=0;dropTarget=0;fillColor=none;points=[[0,0.5],[1,0.5]];portConstraint=eastwest;" vertex="1" parent="iaE7u_JaU0JD-Ada3KiX-13">
          <mxGeometry width="150" height="31" as="geometry" />
        </mxCell>
        <mxCell id="iaE7u_JaU0JD-Ada3KiX-15" value="Status" style="shape=partialRectangle;html=1;whiteSpace=wrap;connectable=0;fillColor=none;top=0;left=0;bottom=0;right=0;overflow=hidden;fontStyle=1" vertex="1" parent="iaE7u_JaU0JD-Ada3KiX-14">
          <mxGeometry width="75" height="31" as="geometry">
            <mxRectangle width="75" height="31" as="alternateBounds" />
          </mxGeometry>
        </mxCell>
        <mxCell id="iaE7u_JaU0JD-Ada3KiX-16" value="Upload" style="shape=partialRectangle;html=1;whiteSpace=wrap;connectable=0;fillColor=none;top=0;left=0;bottom=0;right=0;overflow=hidden;fontStyle=1" vertex="1" parent="iaE7u_JaU0JD-Ada3KiX-14">
          <mxGeometry x="75" width="75" height="31" as="geometry">
            <mxRectangle width="75" height="31" as="alternateBounds" />
          </mxGeometry>
        </mxCell>
        <mxCell id="iaE7u_JaU0JD-Ada3KiX-17" value="" style="shape=tableRow;horizontal=0;startSize=0;swimlaneHead=0;swimlaneBody=0;top=0;left=0;bottom=0;right=0;collapsible=0;dropTarget=0;fillColor=none;points=[[0,0.5],[1,0.5]];portConstraint=eastwest;" vertex="1" parent="iaE7u_JaU0JD-Ada3KiX-13">
          <mxGeometry y="31" width="150" height="25" as="geometry" />
        </mxCell>
        <mxCell id="iaE7u_JaU0JD-Ada3KiX-18" value="Done" style="shape=partialRectangle;html=1;whiteSpace=wrap;connectable=0;fillColor=none;top=0;left=0;bottom=0;right=0;overflow=hidden;" vertex="1" parent="iaE7u_JaU0JD-Ada3KiX-17">
          <mxGeometry width="75" height="25" as="geometry">
            <mxRectangle width="75" height="25" as="alternateBounds" />
          </mxGeometry>
        </mxCell>
        <mxCell id="iaE7u_JaU0JD-Ada3KiX-19" value="Done" style="shape=partialRectangle;html=1;whiteSpace=wrap;connectable=0;fillColor=none;top=0;left=0;bottom=0;right=0;overflow=hidden;" vertex="1" parent="iaE7u_JaU0JD-Ada3KiX-17">
          <mxGeometry x="75" width="75" height="25" as="geometry">
            <mxRectangle width="75" height="25" as="alternateBounds" />
          </mxGeometry>
        </mxCell>
        <mxCell id="iaE7u_JaU0JD-Ada3KiX-20" value="" style="shape=tableRow;horizontal=0;startSize=0;swimlaneHead=0;swimlaneBody=0;top=0;left=0;bottom=0;right=0;collapsible=0;dropTarget=0;fillColor=none;points=[[0,0.5],[1,0.5]];portConstraint=eastwest;" vertex="1" parent="iaE7u_JaU0JD-Ada3KiX-13">
          <mxGeometry y="56" width="150" height="26" as="geometry" />
        </mxCell>
        <mxCell id="iaE7u_JaU0JD-Ada3KiX-21" value="Done" style="shape=partialRectangle;html=1;whiteSpace=wrap;connectable=0;fillColor=none;top=0;left=0;bottom=0;right=0;overflow=hidden;" vertex="1" parent="iaE7u_JaU0JD-Ada3KiX-20">
          <mxGeometry width="75" height="26" as="geometry">
            <mxRectangle width="75" height="26" as="alternateBounds" />
          </mxGeometry>
        </mxCell>
        <mxCell id="iaE7u_JaU0JD-Ada3KiX-22" value="Processing" style="shape=partialRectangle;html=1;whiteSpace=wrap;connectable=0;fillColor=none;top=0;left=0;bottom=0;right=0;overflow=hidden;" vertex="1" parent="iaE7u_JaU0JD-Ada3KiX-20">
          <mxGeometry x="75" width="75" height="26" as="geometry">
            <mxRectangle width="75" height="26" as="alternateBounds" />
          </mxGeometry>
        </mxCell>
        <mxCell id="iaE7u_JaU0JD-Ada3KiX-33" value="" style="shape=table;html=1;whiteSpace=wrap;startSize=0;container=1;collapsible=0;childLayout=tableLayout;strokeWidth=2;" vertex="1" parent="RdEcL9kmq7SiB6EYFqsD-1">
          <mxGeometry x="560" y="279.25" width="150" height="81.5" as="geometry" />
        </mxCell>
        <mxCell id="iaE7u_JaU0JD-Ada3KiX-34" value="" style="shape=tableRow;horizontal=0;startSize=0;swimlaneHead=0;swimlaneBody=0;top=0;left=0;bottom=0;right=0;collapsible=0;dropTarget=0;fillColor=none;points=[[0,0.5],[1,0.5]];portConstraint=eastwest;" vertex="1" parent="iaE7u_JaU0JD-Ada3KiX-33">
          <mxGeometry width="150" height="31" as="geometry" />
        </mxCell>
        <mxCell id="iaE7u_JaU0JD-Ada3KiX-35" value="Date" style="shape=partialRectangle;html=1;whiteSpace=wrap;connectable=0;fillColor=none;top=0;left=0;bottom=0;right=0;overflow=hidden;fontStyle=1" vertex="1" parent="iaE7u_JaU0JD-Ada3KiX-34">
          <mxGeometry width="75" height="31" as="geometry">
            <mxRectangle width="75" height="31" as="alternateBounds" />
          </mxGeometry>
        </mxCell>
        <mxCell id="iaE7u_JaU0JD-Ada3KiX-36" value="Hour" style="shape=partialRectangle;html=1;whiteSpace=wrap;connectable=0;fillColor=none;top=0;left=0;bottom=0;right=0;overflow=hidden;fontStyle=1" vertex="1" parent="iaE7u_JaU0JD-Ada3KiX-34">
          <mxGeometry x="75" width="75" height="31" as="geometry">
            <mxRectangle width="75" height="31" as="alternateBounds" />
          </mxGeometry>
        </mxCell>
        <mxCell id="iaE7u_JaU0JD-Ada3KiX-37" value="" style="shape=tableRow;horizontal=0;startSize=0;swimlaneHead=0;swimlaneBody=0;top=0;left=0;bottom=0;right=0;collapsible=0;dropTarget=0;fillColor=none;points=[[0,0.5],[1,0.5]];portConstraint=eastwest;" vertex="1" parent="iaE7u_JaU0JD-Ada3KiX-33">
          <mxGeometry y="31" width="150" height="25" as="geometry" />
        </mxCell>
        <mxCell id="iaE7u_JaU0JD-Ada3KiX-38" value="00/00/0000" style="shape=partialRectangle;html=1;whiteSpace=wrap;connectable=0;fillColor=none;top=0;left=0;bottom=0;right=0;overflow=hidden;" vertex="1" parent="iaE7u_JaU0JD-Ada3KiX-37">
          <mxGeometry width="75" height="25" as="geometry">
            <mxRectangle width="75" height="25" as="alternateBounds" />
          </mxGeometry>
        </mxCell>
        <mxCell id="iaE7u_JaU0JD-Ada3KiX-39" value="15:00" style="shape=partialRectangle;html=1;whiteSpace=wrap;connectable=0;fillColor=none;top=0;left=0;bottom=0;right=0;overflow=hidden;" vertex="1" parent="iaE7u_JaU0JD-Ada3KiX-37">
          <mxGeometry x="75" width="75" height="25" as="geometry">
            <mxRectangle width="75" height="25" as="alternateBounds" />
          </mxGeometry>
        </mxCell>
        <mxCell id="iaE7u_JaU0JD-Ada3KiX-40" value="" style="shape=tableRow;horizontal=0;startSize=0;swimlaneHead=0;swimlaneBody=0;top=0;left=0;bottom=0;right=0;collapsible=0;dropTarget=0;fillColor=none;points=[[0,0.5],[1,0.5]];portConstraint=eastwest;" vertex="1" parent="iaE7u_JaU0JD-Ada3KiX-33">
          <mxGeometry y="56" width="150" height="26" as="geometry" />
        </mxCell>
        <mxCell id="iaE7u_JaU0JD-Ada3KiX-41" value="00/00/0000" style="shape=partialRectangle;html=1;whiteSpace=wrap;connectable=0;fillColor=none;top=0;left=0;bottom=0;right=0;overflow=hidden;" vertex="1" parent="iaE7u_JaU0JD-Ada3KiX-40">
          <mxGeometry width="75" height="26" as="geometry">
            <mxRectangle width="75" height="26" as="alternateBounds" />
          </mxGeometry>
        </mxCell>
        <mxCell id="iaE7u_JaU0JD-Ada3KiX-42" value="10:00" style="shape=partialRectangle;html=1;whiteSpace=wrap;connectable=0;fillColor=none;top=0;left=0;bottom=0;right=0;overflow=hidden;" vertex="1" parent="iaE7u_JaU0JD-Ada3KiX-40">
          <mxGeometry x="75" width="75" height="26" as="geometry">
            <mxRectangle width="75" height="26" as="alternateBounds" />
          </mxGeometry>
        </mxCell>
        <mxCell id="fvi474iKMWPZ-Lgob74u-1" value="" style="whiteSpace=wrap;html=1;rounded=0;shadow=0;labelBackgroundColor=none;strokeWidth=1;fillColor=none;fontFamily=Verdana;fontSize=12;align=center;comic=1;" vertex="1" parent="RdEcL9kmq7SiB6EYFqsD-1">
          <mxGeometry x="300" y="420" width="750" height="400" as="geometry" />
        </mxCell>
      </root>
    </mxGraphModel>
  </diagram>
  <diagram name="Inverview Module - Audio Transcription" id="20Gp4fiUxzZ9A1kFz465">
    <mxGraphModel dx="1468" dy="723" grid="1" gridSize="10" guides="1" tooltips="1" connect="1" arrows="1" fold="1" page="1" pageScale="1" pageWidth="1100" pageHeight="850" background="none" math="0" shadow="0">
      <root>
        <mxCell id="3dD48Li0RrHzxx_4RiOe-0" />
        <mxCell id="3dD48Li0RrHzxx_4RiOe-1" parent="3dD48Li0RrHzxx_4RiOe-0" />
        <mxCell id="3dD48Li0RrHzxx_4RiOe-69" value="" style="whiteSpace=wrap;html=1;rounded=0;shadow=0;labelBackgroundColor=none;strokeWidth=1;fillColor=none;fontFamily=Verdana;fontSize=12;align=center;comic=1;" vertex="1" parent="3dD48Li0RrHzxx_4RiOe-1">
          <mxGeometry x="300" y="420" width="750" height="400" as="geometry" />
        </mxCell>
        <mxCell id="3dD48Li0RrHzxx_4RiOe-2" value="" style="whiteSpace=wrap;html=1;rounded=0;shadow=0;labelBackgroundColor=none;strokeColor=#000000;strokeWidth=1;fillColor=none;fontFamily=Verdana;fontSize=12;fontColor=#000000;align=center;comic=1;" vertex="1" parent="3dD48Li0RrHzxx_4RiOe-1">
          <mxGeometry x="20" y="20" width="1060" height="810" as="geometry" />
        </mxCell>
        <mxCell id="3dD48Li0RrHzxx_4RiOe-3" value="IAT" style="whiteSpace=wrap;html=1;rounded=0;shadow=0;labelBackgroundColor=none;strokeWidth=1;fontFamily=Verdana;fontSize=28;align=center;comic=1;" vertex="1" parent="3dD48Li0RrHzxx_4RiOe-1">
          <mxGeometry x="30" y="80" width="200" height="50" as="geometry" />
        </mxCell>
        <mxCell id="3dD48Li0RrHzxx_4RiOe-4" value="" style="whiteSpace=wrap;html=1;rounded=0;shadow=0;labelBackgroundColor=none;strokeWidth=1;fillColor=none;fontFamily=Verdana;fontSize=12;align=center;comic=1;" vertex="1" parent="3dD48Li0RrHzxx_4RiOe-1">
          <mxGeometry x="30" y="130" width="200" height="680" as="geometry" />
        </mxCell>
        <mxCell id="3dD48Li0RrHzxx_4RiOe-5" value="" style="whiteSpace=wrap;html=1;rounded=0;shadow=0;labelBackgroundColor=none;strokeWidth=1;fillColor=none;fontFamily=Verdana;fontSize=12;align=center;comic=1;" vertex="1" parent="3dD48Li0RrHzxx_4RiOe-1">
          <mxGeometry x="230" y="80" width="840" height="50" as="geometry" />
        </mxCell>
        <mxCell id="3dD48Li0RrHzxx_4RiOe-6" value="About" style="text;html=1;points=[];align=left;verticalAlign=top;spacingTop=-4;fontSize=14;fontFamily=Verdana" vertex="1" parent="3dD48Li0RrHzxx_4RiOe-1">
          <mxGeometry x="970" y="95" width="60" height="20" as="geometry" />
        </mxCell>
        <mxCell id="3dD48Li0RrHzxx_4RiOe-7" value="Interview Module" style="text;html=1;points=[];align=left;verticalAlign=top;spacingTop=-4;fontSize=14;fontFamily=Verdana" vertex="1" parent="3dD48Li0RrHzxx_4RiOe-1">
          <mxGeometry x="490" width="170" height="20" as="geometry" />
        </mxCell>
        <mxCell id="3dD48Li0RrHzxx_4RiOe-8" value="Home" style="text;html=1;points=[];align=left;verticalAlign=top;spacingTop=-4;fontSize=14;fontFamily=Verdana" vertex="1" parent="3dD48Li0RrHzxx_4RiOe-1">
          <mxGeometry x="50" y="205" width="170" height="20" as="geometry" />
        </mxCell>
        <mxCell id="3dD48Li0RrHzxx_4RiOe-9" value="Mgmt of Interviewees" style="text;html=1;points=[];align=left;verticalAlign=top;spacingTop=-4;fontSize=14;fontFamily=Verdana" vertex="1" parent="3dD48Li0RrHzxx_4RiOe-1">
          <mxGeometry x="50" y="240" width="170" height="20" as="geometry" />
        </mxCell>
        <mxCell id="3dD48Li0RrHzxx_4RiOe-10" value="Interview Scheduling" style="text;html=1;points=[];align=left;verticalAlign=top;spacingTop=-4;fontSize=14;fontFamily=Verdana" vertex="1" parent="3dD48Li0RrHzxx_4RiOe-1">
          <mxGeometry x="50" y="276" width="170" height="20" as="geometry" />
        </mxCell>
        <mxCell id="3dD48Li0RrHzxx_4RiOe-11" value="" style="whiteSpace=wrap;html=1;rounded=0;shadow=0;labelBackgroundColor=none;strokeWidth=1;fillColor=none;fontFamily=Verdana;fontSize=12;align=center;comic=1;" vertex="1" parent="3dD48Li0RrHzxx_4RiOe-1">
          <mxGeometry x="30" y="40" width="1040" height="30" as="geometry" />
        </mxCell>
        <mxCell id="3dD48Li0RrHzxx_4RiOe-12" value="HTTPS://localhost" style="text;html=1;points=[];align=left;verticalAlign=top;spacingTop=-4;fontSize=14;fontFamily=Verdana" vertex="1" parent="3dD48Li0RrHzxx_4RiOe-1">
          <mxGeometry x="40" y="45" width="170" height="20" as="geometry" />
        </mxCell>
        <mxCell id="3dD48Li0RrHzxx_4RiOe-13" value="&lt;b&gt;Audio Transcription&lt;br&gt;&lt;/b&gt;" style="text;html=1;points=[];align=left;verticalAlign=top;spacingTop=-4;fontSize=14;fontFamily=Verdana" vertex="1" parent="3dD48Li0RrHzxx_4RiOe-1">
          <mxGeometry x="300" y="170" width="170" height="20" as="geometry" />
        </mxCell>
        <mxCell id="3dD48Li0RrHzxx_4RiOe-14" value="Mgmt of Calendar" style="text;html=1;points=[];align=left;verticalAlign=top;spacingTop=-4;fontSize=14;fontFamily=Verdana" vertex="1" parent="3dD48Li0RrHzxx_4RiOe-1">
          <mxGeometry x="50" y="310" width="170" height="20" as="geometry" />
        </mxCell>
        <mxCell id="3dD48Li0RrHzxx_4RiOe-15" value="Management of Audio" style="text;html=1;points=[];align=left;verticalAlign=top;spacingTop=-4;fontSize=14;fontFamily=Verdana;fontStyle=0" vertex="1" parent="3dD48Li0RrHzxx_4RiOe-1">
          <mxGeometry x="50" y="350" width="170" height="20" as="geometry" />
        </mxCell>
        <mxCell id="3dD48Li0RrHzxx_4RiOe-16" value="Audio Transcription" style="text;html=1;points=[];align=left;verticalAlign=top;spacingTop=-4;fontSize=14;fontFamily=Verdana;fontStyle=1" vertex="1" parent="3dD48Li0RrHzxx_4RiOe-1">
          <mxGeometry x="50" y="390" width="170" height="20" as="geometry" />
        </mxCell>
        <mxCell id="3dD48Li0RrHzxx_4RiOe-17" value="Audio Transcription" style="text;html=1;points=[];align=right;verticalAlign=top;spacingTop=-4;fontSize=14;fontFamily=Verdana;fontColor=#000000;" vertex="1" parent="3dD48Li0RrHzxx_4RiOe-1">
          <mxGeometry x="385" y="430" width="110" height="20" as="geometry" />
        </mxCell>
        <mxCell id="3dD48Li0RrHzxx_4RiOe-24" value="Export" style="strokeWidth=1;shadow=0;dashed=0;align=center;html=1;shape=mxgraph.mockup.buttons.button;strokeColor=#666666;fontColor=#ffffff;mainText=;buttonStyle=round;fontSize=17;fontStyle=1;fillColor=#008cff;whiteSpace=wrap;" vertex="1" parent="3dD48Li0RrHzxx_4RiOe-1">
          <mxGeometry x="695" y="760" width="150" height="30" as="geometry" />
        </mxCell>
        <mxCell id="3dD48Li0RrHzxx_4RiOe-26" value="&lt;p&gt;Lorem ipsum dolor sit amet, consecteturadipisicing elit, sed do eiusmod tempor incididunt ut labore et dolore magnaaliqua. &lt;span lang=&quot;PT-BR&quot;&gt;Ut enim ad minimveniam, quis nostrud exercitation ullamco laboris nisi ut aliquip ex ea commodoconsequat. &lt;/span&gt;&lt;span&gt;Duis aute i&lt;/span&gt;&lt;/p&gt;&lt;p&gt;&lt;span lang=&quot;PT-BR&quot;&gt;Sed ut perspiciatisunde omnis iste natus error sit voluptatem accusantium doloremque laudantium,totam rem aperiam, eaque ipsa quae ab illo inventore veritatis et quasiarchitecto beatae vitae dicta sunt explicabo. Nemo enim ipsam voluptatem quiavoluptas sit aspernatur aut odit aut fugit, sed quia consequuntur magni doloreseos qui ratione voluptatem sequi nesciunt.&amp;nbsp;&lt;/span&gt;&lt;/p&gt;" style="strokeWidth=1;shadow=0;dashed=0;align=center;html=1;shape=mxgraph.mockup.text.textBox;fontColor=#000000;align=left;fontSize=17;spacingLeft=4;spacingTop=-3;whiteSpace=wrap;strokeColor=#666666;mainText=" vertex="1" parent="3dD48Li0RrHzxx_4RiOe-1">
          <mxGeometry x="505" y="425" width="375" height="325" as="geometry" />
        </mxCell>
        <mxCell id="3dD48Li0RrHzxx_4RiOe-35" value="" style="strokeWidth=1;shadow=0;dashed=0;align=center;html=1;shape=mxgraph.mockup.text.textBox;fontColor=#666666;align=left;fontSize=17;spacingLeft=4;spacingTop=-3;whiteSpace=wrap;strokeColor=#666666;mainText=" vertex="1" parent="3dD48Li0RrHzxx_4RiOe-1">
          <mxGeometry x="507.5" y="230" width="352.5" height="30" as="geometry" />
        </mxCell>
        <mxCell id="3dD48Li0RrHzxx_4RiOe-36" value="" style="whiteSpace=wrap;html=1;rounded=0;shadow=0;labelBackgroundColor=none;strokeWidth=1;fillColor=none;fontFamily=Verdana;fontSize=12;align=center;comic=1;" vertex="1" parent="3dD48Li0RrHzxx_4RiOe-1">
          <mxGeometry x="300" y="220" width="750" height="190" as="geometry" />
        </mxCell>
        <mxCell id="3dD48Li0RrHzxx_4RiOe-37" value="" style="shape=table;html=1;whiteSpace=wrap;startSize=0;container=1;collapsible=0;childLayout=tableLayout;strokeWidth=2;" vertex="1" parent="3dD48Li0RrHzxx_4RiOe-1">
          <mxGeometry x="320" y="279.75" width="240" height="81" as="geometry" />
        </mxCell>
        <mxCell id="3dD48Li0RrHzxx_4RiOe-38" value="" style="shape=tableRow;horizontal=0;startSize=0;swimlaneHead=0;swimlaneBody=0;top=0;left=0;bottom=0;right=0;collapsible=0;dropTarget=0;fillColor=none;points=[[0,0.5],[1,0.5]];portConstraint=eastwest;" vertex="1" parent="3dD48Li0RrHzxx_4RiOe-37">
          <mxGeometry width="240" height="30" as="geometry" />
        </mxCell>
        <mxCell id="3dD48Li0RrHzxx_4RiOe-39" value="First Name" style="shape=partialRectangle;html=1;whiteSpace=wrap;connectable=0;fillColor=none;top=0;left=0;bottom=0;right=0;overflow=hidden;fontStyle=1" vertex="1" parent="3dD48Li0RrHzxx_4RiOe-38">
          <mxGeometry width="120" height="30" as="geometry">
            <mxRectangle width="120" height="30" as="alternateBounds" />
          </mxGeometry>
        </mxCell>
        <mxCell id="3dD48Li0RrHzxx_4RiOe-40" value="Social Name" style="shape=partialRectangle;html=1;whiteSpace=wrap;connectable=0;fillColor=none;top=0;left=0;bottom=0;right=0;overflow=hidden;fontStyle=1" vertex="1" parent="3dD48Li0RrHzxx_4RiOe-38">
          <mxGeometry x="120" width="120" height="30" as="geometry">
            <mxRectangle width="120" height="30" as="alternateBounds" />
          </mxGeometry>
        </mxCell>
        <mxCell id="3dD48Li0RrHzxx_4RiOe-41" value="" style="shape=tableRow;horizontal=0;startSize=0;swimlaneHead=0;swimlaneBody=0;top=0;left=0;bottom=0;right=0;collapsible=0;dropTarget=0;fillColor=none;points=[[0,0.5],[1,0.5]];portConstraint=eastwest;" vertex="1" parent="3dD48Li0RrHzxx_4RiOe-37">
          <mxGeometry y="30" width="240" height="25" as="geometry" />
        </mxCell>
        <mxCell id="3dD48Li0RrHzxx_4RiOe-42" value="aaa" style="shape=partialRectangle;html=1;whiteSpace=wrap;connectable=0;fillColor=none;top=0;left=0;bottom=0;right=0;overflow=hidden;" vertex="1" parent="3dD48Li0RrHzxx_4RiOe-41">
          <mxGeometry width="120" height="25" as="geometry">
            <mxRectangle width="120" height="25" as="alternateBounds" />
          </mxGeometry>
        </mxCell>
        <mxCell id="3dD48Li0RrHzxx_4RiOe-43" value="xxx" style="shape=partialRectangle;html=1;whiteSpace=wrap;connectable=0;fillColor=none;top=0;left=0;bottom=0;right=0;overflow=hidden;" vertex="1" parent="3dD48Li0RrHzxx_4RiOe-41">
          <mxGeometry x="120" width="120" height="25" as="geometry">
            <mxRectangle width="120" height="25" as="alternateBounds" />
          </mxGeometry>
        </mxCell>
        <mxCell id="3dD48Li0RrHzxx_4RiOe-44" value="" style="shape=tableRow;horizontal=0;startSize=0;swimlaneHead=0;swimlaneBody=0;top=0;left=0;bottom=0;right=0;collapsible=0;dropTarget=0;fillColor=none;points=[[0,0.5],[1,0.5]];portConstraint=eastwest;" vertex="1" parent="3dD48Li0RrHzxx_4RiOe-37">
          <mxGeometry y="55" width="240" height="26" as="geometry" />
        </mxCell>
        <mxCell id="3dD48Li0RrHzxx_4RiOe-45" value="bbb" style="shape=partialRectangle;html=1;whiteSpace=wrap;connectable=0;fillColor=none;top=0;left=0;bottom=0;right=0;overflow=hidden;" vertex="1" parent="3dD48Li0RrHzxx_4RiOe-44">
          <mxGeometry width="120" height="26" as="geometry">
            <mxRectangle width="120" height="26" as="alternateBounds" />
          </mxGeometry>
        </mxCell>
        <mxCell id="3dD48Li0RrHzxx_4RiOe-46" value="yyyy" style="shape=partialRectangle;html=1;whiteSpace=wrap;connectable=0;fillColor=none;top=0;left=0;bottom=0;right=0;overflow=hidden;" vertex="1" parent="3dD48Li0RrHzxx_4RiOe-44">
          <mxGeometry x="120" width="120" height="26" as="geometry">
            <mxRectangle width="120" height="26" as="alternateBounds" />
          </mxGeometry>
        </mxCell>
        <mxCell id="3dD48Li0RrHzxx_4RiOe-47" value="Find" style="strokeWidth=1;shadow=0;dashed=0;align=center;html=1;shape=mxgraph.mockup.buttons.button;strokeColor=#666666;fontColor=#ffffff;mainText=;buttonStyle=round;fontSize=17;fontStyle=1;fillColor=#008cff;whiteSpace=wrap;" vertex="1" parent="3dD48Li0RrHzxx_4RiOe-1">
          <mxGeometry x="880" y="230" width="150" height="30" as="geometry" />
        </mxCell>
        <mxCell id="3dD48Li0RrHzxx_4RiOe-48" value="Social Name" style="strokeWidth=1;shadow=0;dashed=0;align=center;html=1;shape=mxgraph.mockup.forms.comboBox;strokeColor=#999999;fillColor=#ddeeff;align=left;fillColor2=#aaddff;mainText=;fontColor=#666666;fontSize=17;spacingLeft=3;" vertex="1" parent="3dD48Li0RrHzxx_4RiOe-1">
          <mxGeometry x="330" y="230" width="160" height="30" as="geometry" />
        </mxCell>
        <mxCell id="3dD48Li0RrHzxx_4RiOe-49" value="" style="shape=table;html=1;whiteSpace=wrap;startSize=0;container=1;collapsible=0;childLayout=tableLayout;strokeWidth=2;" vertex="1" parent="3dD48Li0RrHzxx_4RiOe-1">
          <mxGeometry x="700" y="279.25" width="150" height="81.5" as="geometry" />
        </mxCell>
        <mxCell id="3dD48Li0RrHzxx_4RiOe-50" value="" style="shape=tableRow;horizontal=0;startSize=0;swimlaneHead=0;swimlaneBody=0;top=0;left=0;bottom=0;right=0;collapsible=0;dropTarget=0;fillColor=none;points=[[0,0.5],[1,0.5]];portConstraint=eastwest;" vertex="1" parent="3dD48Li0RrHzxx_4RiOe-49">
          <mxGeometry width="150" height="31" as="geometry" />
        </mxCell>
        <mxCell id="3dD48Li0RrHzxx_4RiOe-51" value="Status" style="shape=partialRectangle;html=1;whiteSpace=wrap;connectable=0;fillColor=none;top=0;left=0;bottom=0;right=0;overflow=hidden;fontStyle=1" vertex="1" parent="3dD48Li0RrHzxx_4RiOe-50">
          <mxGeometry width="75" height="31" as="geometry">
            <mxRectangle width="75" height="31" as="alternateBounds" />
          </mxGeometry>
        </mxCell>
        <mxCell id="3dD48Li0RrHzxx_4RiOe-52" value="Upload" style="shape=partialRectangle;html=1;whiteSpace=wrap;connectable=0;fillColor=none;top=0;left=0;bottom=0;right=0;overflow=hidden;fontStyle=1" vertex="1" parent="3dD48Li0RrHzxx_4RiOe-50">
          <mxGeometry x="75" width="75" height="31" as="geometry">
            <mxRectangle width="75" height="31" as="alternateBounds" />
          </mxGeometry>
        </mxCell>
        <mxCell id="3dD48Li0RrHzxx_4RiOe-53" value="" style="shape=tableRow;horizontal=0;startSize=0;swimlaneHead=0;swimlaneBody=0;top=0;left=0;bottom=0;right=0;collapsible=0;dropTarget=0;fillColor=none;points=[[0,0.5],[1,0.5]];portConstraint=eastwest;" vertex="1" parent="3dD48Li0RrHzxx_4RiOe-49">
          <mxGeometry y="31" width="150" height="25" as="geometry" />
        </mxCell>
        <mxCell id="3dD48Li0RrHzxx_4RiOe-54" value="Done" style="shape=partialRectangle;html=1;whiteSpace=wrap;connectable=0;fillColor=none;top=0;left=0;bottom=0;right=0;overflow=hidden;" vertex="1" parent="3dD48Li0RrHzxx_4RiOe-53">
          <mxGeometry width="75" height="25" as="geometry">
            <mxRectangle width="75" height="25" as="alternateBounds" />
          </mxGeometry>
        </mxCell>
        <mxCell id="3dD48Li0RrHzxx_4RiOe-55" value="Done" style="shape=partialRectangle;html=1;whiteSpace=wrap;connectable=0;fillColor=none;top=0;left=0;bottom=0;right=0;overflow=hidden;" vertex="1" parent="3dD48Li0RrHzxx_4RiOe-53">
          <mxGeometry x="75" width="75" height="25" as="geometry">
            <mxRectangle width="75" height="25" as="alternateBounds" />
          </mxGeometry>
        </mxCell>
        <mxCell id="3dD48Li0RrHzxx_4RiOe-56" value="" style="shape=tableRow;horizontal=0;startSize=0;swimlaneHead=0;swimlaneBody=0;top=0;left=0;bottom=0;right=0;collapsible=0;dropTarget=0;fillColor=none;points=[[0,0.5],[1,0.5]];portConstraint=eastwest;" vertex="1" parent="3dD48Li0RrHzxx_4RiOe-49">
          <mxGeometry y="56" width="150" height="26" as="geometry" />
        </mxCell>
        <mxCell id="3dD48Li0RrHzxx_4RiOe-57" value="Done" style="shape=partialRectangle;html=1;whiteSpace=wrap;connectable=0;fillColor=none;top=0;left=0;bottom=0;right=0;overflow=hidden;" vertex="1" parent="3dD48Li0RrHzxx_4RiOe-56">
          <mxGeometry width="75" height="26" as="geometry">
            <mxRectangle width="75" height="26" as="alternateBounds" />
          </mxGeometry>
        </mxCell>
        <mxCell id="3dD48Li0RrHzxx_4RiOe-58" value="Done" style="shape=partialRectangle;html=1;whiteSpace=wrap;connectable=0;fillColor=none;top=0;left=0;bottom=0;right=0;overflow=hidden;" vertex="1" parent="3dD48Li0RrHzxx_4RiOe-56">
          <mxGeometry x="75" width="75" height="26" as="geometry">
            <mxRectangle width="75" height="26" as="alternateBounds" />
          </mxGeometry>
        </mxCell>
        <mxCell id="3dD48Li0RrHzxx_4RiOe-59" value="" style="shape=table;html=1;whiteSpace=wrap;startSize=0;container=1;collapsible=0;childLayout=tableLayout;strokeWidth=2;" vertex="1" parent="3dD48Li0RrHzxx_4RiOe-1">
          <mxGeometry x="560" y="279.25" width="150" height="81.5" as="geometry" />
        </mxCell>
        <mxCell id="3dD48Li0RrHzxx_4RiOe-60" value="" style="shape=tableRow;horizontal=0;startSize=0;swimlaneHead=0;swimlaneBody=0;top=0;left=0;bottom=0;right=0;collapsible=0;dropTarget=0;fillColor=none;points=[[0,0.5],[1,0.5]];portConstraint=eastwest;" vertex="1" parent="3dD48Li0RrHzxx_4RiOe-59">
          <mxGeometry width="150" height="31" as="geometry" />
        </mxCell>
        <mxCell id="3dD48Li0RrHzxx_4RiOe-61" value="Date" style="shape=partialRectangle;html=1;whiteSpace=wrap;connectable=0;fillColor=none;top=0;left=0;bottom=0;right=0;overflow=hidden;fontStyle=1" vertex="1" parent="3dD48Li0RrHzxx_4RiOe-60">
          <mxGeometry width="75" height="31" as="geometry">
            <mxRectangle width="75" height="31" as="alternateBounds" />
          </mxGeometry>
        </mxCell>
        <mxCell id="3dD48Li0RrHzxx_4RiOe-62" value="Hour" style="shape=partialRectangle;html=1;whiteSpace=wrap;connectable=0;fillColor=none;top=0;left=0;bottom=0;right=0;overflow=hidden;fontStyle=1" vertex="1" parent="3dD48Li0RrHzxx_4RiOe-60">
          <mxGeometry x="75" width="75" height="31" as="geometry">
            <mxRectangle width="75" height="31" as="alternateBounds" />
          </mxGeometry>
        </mxCell>
        <mxCell id="3dD48Li0RrHzxx_4RiOe-63" value="" style="shape=tableRow;horizontal=0;startSize=0;swimlaneHead=0;swimlaneBody=0;top=0;left=0;bottom=0;right=0;collapsible=0;dropTarget=0;fillColor=none;points=[[0,0.5],[1,0.5]];portConstraint=eastwest;" vertex="1" parent="3dD48Li0RrHzxx_4RiOe-59">
          <mxGeometry y="31" width="150" height="25" as="geometry" />
        </mxCell>
        <mxCell id="3dD48Li0RrHzxx_4RiOe-64" value="00/00/0000" style="shape=partialRectangle;html=1;whiteSpace=wrap;connectable=0;fillColor=none;top=0;left=0;bottom=0;right=0;overflow=hidden;" vertex="1" parent="3dD48Li0RrHzxx_4RiOe-63">
          <mxGeometry width="75" height="25" as="geometry">
            <mxRectangle width="75" height="25" as="alternateBounds" />
          </mxGeometry>
        </mxCell>
        <mxCell id="3dD48Li0RrHzxx_4RiOe-65" value="15:00" style="shape=partialRectangle;html=1;whiteSpace=wrap;connectable=0;fillColor=none;top=0;left=0;bottom=0;right=0;overflow=hidden;" vertex="1" parent="3dD48Li0RrHzxx_4RiOe-63">
          <mxGeometry x="75" width="75" height="25" as="geometry">
            <mxRectangle width="75" height="25" as="alternateBounds" />
          </mxGeometry>
        </mxCell>
        <mxCell id="3dD48Li0RrHzxx_4RiOe-66" value="" style="shape=tableRow;horizontal=0;startSize=0;swimlaneHead=0;swimlaneBody=0;top=0;left=0;bottom=0;right=0;collapsible=0;dropTarget=0;fillColor=none;points=[[0,0.5],[1,0.5]];portConstraint=eastwest;" vertex="1" parent="3dD48Li0RrHzxx_4RiOe-59">
          <mxGeometry y="56" width="150" height="26" as="geometry" />
        </mxCell>
        <mxCell id="3dD48Li0RrHzxx_4RiOe-67" value="00/00/0000" style="shape=partialRectangle;html=1;whiteSpace=wrap;connectable=0;fillColor=none;top=0;left=0;bottom=0;right=0;overflow=hidden;" vertex="1" parent="3dD48Li0RrHzxx_4RiOe-66">
          <mxGeometry width="75" height="26" as="geometry">
            <mxRectangle width="75" height="26" as="alternateBounds" />
          </mxGeometry>
        </mxCell>
        <mxCell id="3dD48Li0RrHzxx_4RiOe-68" value="10:00" style="shape=partialRectangle;html=1;whiteSpace=wrap;connectable=0;fillColor=none;top=0;left=0;bottom=0;right=0;overflow=hidden;" vertex="1" parent="3dD48Li0RrHzxx_4RiOe-66">
          <mxGeometry x="75" width="75" height="26" as="geometry">
            <mxRectangle width="75" height="26" as="alternateBounds" />
          </mxGeometry>
        </mxCell>
      </root>
    </mxGraphModel>
  </diagram>
</mxfile>
